SplineFontDB: 3.0
FontName: PhilosopherTwo-BoldItalic
FullName: Philosopher Two Bold Italic
FamilyName: Philosopher Two
Weight: Bold
Copyright: Copyright (c) 2011 by Jovanny Lemonad. All rights reserved.
Version: 2
ItalicAngle: -10
UnderlinePosition: -150
UnderlineWidth: 50
Ascent: 800
Descent: 200
sfntRevision: 0x00010000
LayerCount: 2
Layer: 0 1 "Back"  1
Layer: 1 1 "Fore"  0
XUID: [1021 288 713564382 9009759]
FSType: 0
OS2Version: 3
OS2_WeightWidthSlopeOnly: 0
OS2_UseTypoMetrics: 1
CreationTime: 1303645754
ModificationTime: 1304081934
PfmFamily: 17
TTFWeight: 700
TTFWidth: 5
LineGap: 0
VLineGap: 0
Panose: 2 0 8 3 0 0 0 9 0 4
OS2TypoAscent: 864
OS2TypoAOffset: 0
OS2TypoDescent: -220
OS2TypoDOffset: 0
OS2TypoLinegap: 0
OS2WinAscent: 864
OS2WinAOffset: 0
OS2WinDescent: 220
OS2WinDOffset: 0
HheadAscent: 864
HheadAOffset: 0
HheadDescent: -220
HheadDOffset: 0
OS2SubXSize: 700
OS2SubYSize: 650
OS2SubXOff: 0
OS2SubYOff: 143
OS2SupXSize: 700
OS2SupYSize: 650
OS2SupXOff: 0
OS2SupYOff: 453
OS2StrikeYSize: 50
OS2StrikeYPos: 250
OS2Vendor: 'MONO'
OS2CodePages: 20000011.00000000
OS2UnicodeRanges: 8000002f.0000000a.00000000.00000000
Lookup: 4 0 0 "'frac' Diagonal Fractions in Latin lookup 0"  {"'frac' Diagonal Fractions in Latin lookup 0 subtable"  } ['frac' ('latn' <'dflt' > ) ]
Lookup: 258 0 0 "'kern' Horizontal Kerning in Latin lookup 0"  {"'kern' Horizontal Kerning in Latin lookup 0 per glyph data 0"  "'kern' Horizontal Kerning in Latin lookup 0 kerning class 1"  } ['kern' ('latn' <'dflt' > ) ]
MarkAttachClasses: 1
DEI: 91125
KernClass2: 68+ 57 "'kern' Horizontal Kerning in Latin lookup 0 kerning class 1" 
 27 guilsinglleft guillemotleft
 29 guilsinglright guillemotright
 22 quotedblleft quoteleft
 24 quotedblright quoteright
 9 trademark
 20 quotedbl quotesingle
 8 asterisk
 28 emdash endash hyphen uni00AD
 40 quotedblbase quotesinglbase comma period
 5 slash
 9 backslash
 10 exclamdown
 10 registered
 12 questiondown
 9 ampersand

StartChar: plusminus
Encoding: 177 177 4
Width: 583
Flags: W
LayerCount: 2
Fore
SplineSet
12 55 m 1,0,-1
 25 125 l 1,1,-1
 222 125 l 1,2,-1
 252 295 l 1,3,-1
 55 295 l 1,4,-1
 67 365 l 1,5,-1
 264 365 l 1,6,-1
 298 560 l 1,7,-1
 388 560 l 1,8,-1
 354 365 l 1,9,-1
 551 365 l 1,10,-1
 539 295 l 1,11,-1
 342 295 l 1,12,-1
 312 125 l 1,13,-1
 509 125 l 1,14,-1
 496 55 l 1,15,-1
 12 55 l 1,0,-1
EndSplineSet
EndChar

StartChar: emdash
Encoding: 8212 8212 5
Width: 894
Flags: W
LayerCount: 2
Fore
SplineSet
820 227 m 1,0,-1
 56 227 l 1,1,-1
 67 292 l 1,2,-1
 831 292 l 1,3,-1
 820 227 l 1,0,-1
EndSplineSet
EndChar

StartChar: quotedblleft
Encoding: 8220 8220 6
Width: 400
Flags: W
LayerCount: 2
Fore
SplineSet
156 542 m 1,0,1
 181 542 181 542 194 529.5 c 128,-1,2
 207 517 207 517 207 496 c 0,3,4
 207 467 207 467 188 443.5 c 128,-1,5
 169 420 169 420 135 420 c 0,6,7
 107 420 107 420 93.5 437.5 c 128,-1,8
 80 455 80 455 80 480 c 0,9,10
 80 514 80 514 93 544 c 128,-1,11
 106 574 106 574 127 600 c 128,-1,12
 148 626 148 626 175 648 c 128,-1,13
 202 670 202 670 231 688 c 1,14,-1
 245 664 l 1,15,16
 231 656 231 656 214.5 644 c 128,-1,17
 198 632 198 632 183 616 c 128,-1,18
 168 600 168 600 156.5 580.5 c 128,-1,19
 145 561 145 561 141 539 c 1,20,-1
 156 542 l 1,0,1
338 542 m 1,21,22
 363 542 363 542 376 529.5 c 128,-1,23
 389 517 389 517 389 496 c 0,24,25
 389 467 389 467 370 443.5 c 128,-1,26
 351 420 351 420 317 420 c 0,27,28
 289 420 289 420 275.5 437.5 c 128,-1,29
 262 455 262 455 262 480 c 0,30,31
 262 514 262 514 275 544 c 128,-1,32
 288 574 288 574 309 600 c 128,-1,33
 330 626 330 626 357 648 c 128,-1,34
 384 670 384 670 413 688 c 1,35,-1
 427 664 l 1,36,37
 413 656 413 656 396.5 644 c 128,-1,38
 380 632 380 632 365 616 c 128,-1,39
 350 600 350 600 338.5 580.5 c 128,-1,40
 327 561 327 561 323 539 c 1,41,-1
 338 542 l 1,21,22
EndSplineSet
EndChar

StartChar: quotedblright
Encoding: 8221 8221 7
Width: 402
Flags: W
LayerCount: 2
Fore
SplineSet
346 558 m 1,0,1
 321 558 321 558 308 570.5 c 128,-1,2
 295 583 295 583 295 604 c 0,3,4
 295 633 295 633 314 656.5 c 128,-1,5
 333 680 333 680 367 680 c 0,6,7
 395 680 395 680 408.5 662.5 c 128,-1,8
 422 645 422 645 422 620 c 0,9,10
 422 586 422 586 409 556 c 128,-1,11
 396 526 396 526 375 500 c 128,-1,12
 354 474 354 474 327 452 c 128,-1,13
 300 430 300 430 271 412 c 1,14,-1
 257 436 l 1,15,16
 271 444 271 444 287.5 456 c 128,-1,17
 304 468 304 468 319 484 c 128,-1,18
 334 500 334 500 345.5 519.5 c 128,-1,19
 357 539 357 539 361 561 c 1,20,-1
 346 558 l 1,0,1
164 558 m 1,21,22
 139 558 139 558 126 570.5 c 128,-1,23
 113 583 113 583 113 604 c 0,24,25
 113 633 113 633 132 656.5 c 128,-1,26
 151 680 151 680 185 680 c 0,27,28
 213 680 213 680 226.5 662.5 c 128,-1,29
 240 645 240 645 240 620 c 0,30,31
 240 586 240 586 227 556 c 128,-1,32
 214 526 214 526 193 500 c 128,-1,33
 172 474 172 474 145 452 c 128,-1,34
 118 430 118 430 89 412 c 1,35,-1
 75 436 l 1,36,37
 89 444 89 444 105.5 456 c 128,-1,38
 122 468 122 468 137 484 c 128,-1,39
 152 500 152 500 163.5 519.5 c 128,-1,40
 175 539 175 539 179 561 c 1,41,-1
 164 558 l 1,21,22
EndSplineSet
EndChar

StartChar: guilsinglleft
Encoding: 8249 8249 8
Width: 297
Flags: W
LayerCount: 2
Fore
SplineSet
211 30 m 1,0,-1
 147 30 l 1,1,-1
 23 225 l 1,2,-1
 216 420 l 1,3,-1
 280 420 l 1,4,-1
 148 226 l 1,5,-1
 211 30 l 1,0,-1
EndSplineSet
EndChar

StartChar: quotedblbase
Encoding: 8222 8222 9
Width: 412
Flags: W
LayerCount: 2
Fore
SplineSet
62 -14 m 1,0,1
 37 -14 37 -14 24 -1.5 c 128,-1,2
 11 11 11 11 11 32 c 0,3,4
 11 62 11 62 30.5 85 c 128,-1,5
 50 108 50 108 84 108 c 0,6,7
 112 108 112 108 125 90.5 c 128,-1,8
 138 73 138 73 138 48 c 0,9,10
 138 14 138 14 125.5 -16 c 128,-1,11
 113 -46 113 -46 92 -72 c 128,-1,12
 71 -98 71 -98 43.5 -120 c 128,-1,13
 16 -142 16 -142 -13 -160 c 1,14,-1
 -26 -136 l 1,15,16
 -13 -128 -13 -128 3.5 -116 c 128,-1,17
 20 -104 20 -104 35 -88 c 128,-1,18
 50 -72 50 -72 62 -52.5 c 128,-1,19
 74 -33 74 -33 78 -11 c 1,20,-1
 62 -14 l 1,0,1
244 -14 m 1,21,22
 219 -14 219 -14 206 -1.5 c 128,-1,23
 193 11 193 11 193 32 c 0,24,25
 193 62 193 62 212.5 85 c 128,-1,26
 232 108 232 108 266 108 c 0,27,28
 294 108 294 108 307 90.5 c 128,-1,29
 320 73 320 73 320 48 c 0,30,31
 320 14 320 14 307.5 -16 c 128,-1,32
 295 -46 295 -46 274 -72 c 128,-1,33
 253 -98 253 -98 225.5 -120 c 128,-1,34
 198 -142 198 -142 169 -160 c 1,35,-1
 156 -136 l 1,36,37
 169 -128 169 -128 185.5 -116 c 128,-1,38
 202 -104 202 -104 217 -88 c 128,-1,39
 232 -72 232 -72 244 -52.5 c 128,-1,40
 256 -33 256 -33 260 -11 c 1,41,-1
 244 -14 l 1,21,22
EndSplineSet
EndChar

StartChar: endash
Encoding: 8211 8211 10
Width: 624
Flags: W
LayerCount: 2
Fore
SplineSet
549 227 m 1,0,-1
 55 227 l 1,1,-1
 66 292 l 1,2,-1
 560 292 l 1,3,-1
 549 227 l 1,0,-1
EndSplineSet
EndChar

StartChar: Euro
Encoding: 8364 8364 11
Width: 741
Flags: W
LayerCount: 2
Fore
SplineSet
679 447 m 1,0,1
 677 538 677 538 634.5 586.5 c 128,-1,2
 592 635 592 635 509 635 c 0,3,4
 468 635 468 635 430 623.5 c 128,-1,5
 392 612 392 612 359 584.5 c 128,-1,6
 326 557 326 557 298.5 512 c 128,-1,7
 271 467 271 467 252 400 c 1,8,-1
 447 400 l 1,9,-1
 427 355 l 1,10,-1
 240 355 l 1,11,-1
 230 295 l 1,12,-1
 414 295 l 1,13,-1
 394 250 l 1,14,-1
 226 250 l 1,15,-1
 226 233 l 2,16,17
 226 189 226 189 235.5 151.5 c 128,-1,18
 245 114 245 114 266 85.5 c 128,-1,19
 287 57 287 57 320.5 41 c 128,-1,20
 354 25 354 25 402 25 c 0,21,22
 471 25 471 25 536.5 61.5 c 128,-1,23
 602 98 602 98 650 168 c 1,24,-1
 680 141 l 1,25,26
 649 99 649 99 615.5 69 c 128,-1,27
 582 39 582 39 543.5 19 c 128,-1,28
 505 -1 505 -1 460.5 -10.5 c 128,-1,29
 416 -20 416 -20 364 -20 c 0,30,31
 296 -20 296 -20 244 -0.5 c 128,-1,32
 192 19 192 19 157 54.5 c 128,-1,33
 122 90 122 90 104.5 138.5 c 128,-1,34
 87 187 87 187 87 245 c 2,35,-1
 87 250 l 1,36,-1
 22 250 l 1,37,-1
 42 295 l 1,38,-1
 90 295 l 1,39,40
 95 323 95 323 97 334.5 c 128,-1,41
 99 346 99 346 101 355 c 1,42,-1
 55 355 l 1,43,-1
 75 400 l 1,44,-1
 115 400 l 1,45,46
 138 461 138 461 176 512 c 128,-1,47
 214 563 214 563 262.5 600.5 c 128,-1,48
 311 638 311 638 368.5 659 c 128,-1,49
 426 680 426 680 487 680 c 0,50,51
 581 680 581 680 634.5 655.5 c 128,-1,52
 688 631 688 631 710 599 c 1,53,54
 716 588 716 588 718.5 574.5 c 128,-1,55
 721 561 721 561 721 545 c 0,56,57
 721 522 721 522 717.5 497.5 c 128,-1,58
 714 473 714 473 709 447 c 1,59,-1
 679 447 l 1,0,1
EndSplineSet
EndChar

StartChar: percent
Encoding: 37 37 12
Width: 758
Flags: W
LayerCount: 2
Fore
SplineSet
36 0 m 1,0,-1
 636 660 l 1,1,-1
 742 660 l 1,2,-1
 142 0 l 1,3,-1
 36 0 l 1,0,-1
568 271 m 0,4,5
 633 271 633 271 669 242.5 c 128,-1,6
 705 214 705 214 705 161 c 0,7,8
 705 124 705 124 690.5 93.5 c 128,-1,9
 676 63 676 63 651 41 c 128,-1,10
 626 19 626 19 592 7 c 128,-1,11
 558 -5 558 -5 520 -5 c 0,12,13
 454 -5 454 -5 417.5 23.5 c 128,-1,14
 381 52 381 52 381 105 c 0,15,16
 381 142 381 142 396 172.5 c 128,-1,17
 411 203 411 203 436.5 225 c 128,-1,18
 462 247 462 247 496 259 c 128,-1,19
 530 271 530 271 568 271 c 0,4,5
559 231 m 0,20,21
 535 231 535 231 516.5 219.5 c 128,-1,22
 498 208 498 208 485.5 190 c 128,-1,23
 473 172 473 172 467 149 c 128,-1,24
 461 126 461 126 461 103 c 0,25,26
 461 35 461 35 526 35 c 0,27,28
 550 35 550 35 568 45.5 c 128,-1,29
 586 56 586 56 599 74 c 128,-1,30
 612 92 612 92 618.5 115 c 128,-1,31
 625 138 625 138 625 162 c 0,32,33
 625 195 625 195 608 213 c 128,-1,34
 591 231 591 231 559 231 c 0,20,21
260 665 m 0,35,36
 324 665 324 665 360 637 c 128,-1,37
 396 609 396 609 396 557 c 0,38,39
 396 520 396 520 381.5 489 c 128,-1,40
 367 458 367 458 342 436 c 128,-1,41
 317 414 317 414 283.5 401.5 c 128,-1,42
 250 389 250 389 211 389 c 0,43,44
 145 389 145 389 108.5 417.5 c 128,-1,45
 72 446 72 446 72 499 c 0,46,47
 72 536 72 536 87 566.5 c 128,-1,48
 102 597 102 597 127.5 619 c 128,-1,49
 153 641 153 641 187.5 653 c 128,-1,50
 222 665 222 665 260 665 c 0,35,36
251 625 m 0,51,52
 227 625 227 625 208.5 613.5 c 128,-1,53
 190 602 190 602 177.5 584 c 128,-1,54
 165 566 165 566 158.5 543 c 128,-1,55
 152 520 152 520 152 497 c 0,56,57
 152 429 152 429 217 429 c 0,58,59
 242 429 242 429 260.5 440.5 c 128,-1,60
 279 452 279 452 291.5 470 c 128,-1,61
 304 488 304 488 310 511 c 128,-1,62
 316 534 316 534 316 558 c 0,63,64
 316 625 316 625 251 625 c 0,51,52
EndSplineSet
EndChar

StartChar: perthousand
Encoding: 8240 8240 13
Width: 1072
Flags: W
LayerCount: 2
Fore
SplineSet
39 0 m 1,0,-1
 639 660 l 1,1,-1
 745 660 l 1,2,-1
 145 0 l 1,3,-1
 39 0 l 1,0,-1
551 271 m 0,4,5
 616 271 616 271 652 242.5 c 128,-1,6
 688 214 688 214 688 161 c 0,7,8
 688 124 688 124 673.5 93.5 c 128,-1,9
 659 63 659 63 634 41 c 128,-1,10
 609 19 609 19 575 7 c 128,-1,11
 541 -5 541 -5 503 -5 c 0,12,13
 437 -5 437 -5 400.5 23.5 c 128,-1,14
 364 52 364 52 364 105 c 0,15,16
 364 142 364 142 379 172.5 c 128,-1,17
 394 203 394 203 419.5 225 c 128,-1,18
 445 247 445 247 479 259 c 128,-1,19
 513 271 513 271 551 271 c 0,4,5
542 231 m 0,20,21
 518 231 518 231 499.5 219.5 c 128,-1,22
 481 208 481 208 468.5 190 c 128,-1,23
 456 172 456 172 450 149 c 128,-1,24
 444 126 444 126 444 103 c 0,25,26
 444 35 444 35 509 35 c 0,27,28
 533 35 533 35 551.5 46 c 128,-1,29
 570 57 570 57 582.5 75 c 128,-1,30
 595 93 595 93 601.5 116 c 128,-1,31
 608 139 608 139 608 162 c 0,32,33
 608 195 608 195 591 213 c 128,-1,34
 574 231 574 231 542 231 c 0,20,21
263 665 m 0,35,36
 327 665 327 665 363 637 c 128,-1,37
 399 609 399 609 399 557 c 0,38,39
 399 520 399 520 384.5 489 c 128,-1,40
 370 458 370 458 345 436 c 128,-1,41
 320 414 320 414 286.5 401.5 c 128,-1,42
 253 389 253 389 214 389 c 0,43,44
 148 389 148 389 111.5 417.5 c 128,-1,45
 75 446 75 446 75 499 c 0,46,47
 75 536 75 536 90 566.5 c 128,-1,48
 105 597 105 597 130.5 619 c 128,-1,49
 156 641 156 641 190.5 653 c 128,-1,50
 225 665 225 665 263 665 c 0,35,36
254 625 m 0,51,52
 230 625 230 625 211.5 613.5 c 128,-1,53
 193 602 193 602 180.5 584 c 128,-1,54
 168 566 168 566 161.5 543 c 128,-1,55
 155 520 155 520 155 497 c 0,56,57
 155 429 155 429 220 429 c 0,58,59
 245 429 245 429 263.5 440.5 c 128,-1,60
 282 452 282 452 294.5 470 c 128,-1,61
 307 488 307 488 313 511 c 128,-1,62
 319 534 319 534 319 558 c 0,63,64
 319 625 319 625 254 625 c 0,51,52
885 271 m 0,65,66
 950 271 950 271 986 242.5 c 128,-1,67
 1022 214 1022 214 1022 161 c 0,68,69
 1022 124 1022 124 1007.5 93.5 c 128,-1,70
 993 63 993 63 968 41 c 128,-1,71
 943 19 943 19 909 7 c 128,-1,72
 875 -5 875 -5 837 -5 c 0,73,74
 771 -5 771 -5 734.5 23.5 c 128,-1,75
 698 52 698 52 698 105 c 0,76,77
 698 142 698 142 713 172.5 c 128,-1,78
 728 203 728 203 753.5 225 c 128,-1,79
 779 247 779 247 813 259 c 128,-1,80
 847 271 847 271 885 271 c 0,65,66
876 231 m 0,81,82
 852 231 852 231 833.5 219.5 c 128,-1,83
 815 208 815 208 802.5 190 c 128,-1,84
 790 172 790 172 784 149 c 128,-1,85
 778 126 778 126 778 103 c 0,86,87
 778 35 778 35 843 35 c 0,88,89
 867 35 867 35 885.5 46 c 128,-1,90
 904 57 904 57 916.5 75 c 128,-1,91
 929 93 929 93 935.5 116 c 128,-1,92
 942 139 942 139 942 162 c 0,93,94
 942 195 942 195 925 213 c 128,-1,95
 908 231 908 231 876 231 c 0,81,82
EndSplineSet
Ligature2: "'frac' Diagonal Fractions in Latin lookup 0 subtable" zero slash zero zero
EndChar

StartChar: ellipsis
Encoding: 8230 8230 14
Width: 646
Flags: W
LayerCount: 2
Fore
SplineSet
135 61 m 0,0,1
 135 32 135 32 115 9 c 128,-1,2
 95 -14 95 -14 62 -14 c 0,3,4
 37 -14 37 -14 24 -1.5 c 128,-1,5
 11 11 11 11 11 32 c 0,6,7
 11 62 11 62 30.5 85 c 128,-1,8
 50 108 50 108 84 108 c 0,9,10
 110 108 110 108 122.5 95.5 c 128,-1,11
 135 83 135 83 135 61 c 0,0,1
345 61 m 0,12,13
 345 32 345 32 325 9 c 128,-1,14
 305 -14 305 -14 272 -14 c 0,15,16
 247 -14 247 -14 234 -1.5 c 128,-1,17
 221 11 221 11 221 32 c 0,18,19
 221 62 221 62 240.5 85 c 128,-1,20
 260 108 260 108 294 108 c 0,21,22
 320 108 320 108 332.5 95.5 c 128,-1,23
 345 83 345 83 345 61 c 0,12,13
555 61 m 0,24,25
 555 32 555 32 535 9 c 128,-1,26
 515 -14 515 -14 482 -14 c 0,27,28
 457 -14 457 -14 444 -1.5 c 128,-1,29
 431 11 431 11 431 32 c 0,30,31
 431 62 431 62 450.5 85 c 128,-1,32
 470 108 470 108 504 108 c 0,33,34
 530 108 530 108 542.5 95.5 c 128,-1,35
 555 83 555 83 555 61 c 0,24,25
EndSplineSet
EndChar

StartChar: guilsinglright
Encoding: 8250 8250 15
Width: 295
Flags: W
LayerCount: 2
Fore
SplineSet
129 226 m 1,0,-1
 67 420 l 1,1,-1
 131 420 l 1,2,-1
 254 225 l 1,3,-1
 62 30 l 1,4,-1
 -2 30 l 1,5,-1
 129 226 l 1,0,-1
EndSplineSet
EndChar

StartChar: guillemotright
Encoding: 187 187 16
Width: 427
Flags: W
LayerCount: 2
Fore
SplineSet
211 225 m 1,0,-1
 84 80 l 1,1,-1
 20 80 l 1,2,-1
 107 225 l 1,3,-1
 71 370 l 1,4,-1
 135 370 l 1,5,-1
 211 225 l 1,0,-1
261 226 m 1,6,-1
 199 420 l 1,7,-1
 263 420 l 1,8,-1
 386 225 l 1,9,-1
 194 30 l 1,10,-1
 130 30 l 1,11,-1
 261 226 l 1,6,-1
EndSplineSet
EndChar

StartChar: quotesinglbase
Encoding: 8218 8218 17
Width: 230
Flags: W
LayerCount: 2
Fore
SplineSet
62 -14 m 1,0,1
 37 -14 37 -14 24 -1.5 c 128,-1,2
 11 11 11 11 11 32 c 0,3,4
 11 62 11 62 30.5 85 c 128,-1,5
 50 108 50 108 84 108 c 0,6,7
 112 108 112 108 125 90.5 c 128,-1,8
 138 73 138 73 138 48 c 0,9,10
 138 14 138 14 125.5 -16 c 128,-1,11
 113 -46 113 -46 92 -72 c 128,-1,12
 71 -98 71 -98 43.5 -120 c 128,-1,13
 16 -142 16 -142 -13 -160 c 1,14,-1
 -26 -136 l 1,15,16
 -13 -128 -13 -128 3.5 -116 c 128,-1,17
 20 -104 20 -104 35 -88 c 128,-1,18
 50 -72 50 -72 62 -52.5 c 128,-1,19
 74 -33 74 -33 78 -11 c 1,20,-1
 62 -14 l 1,0,1
EndSplineSet
EndChar

StartChar: quoteleft
Encoding: 8216 8216 18
Width: 218
Flags: W
LayerCount: 2
Fore
SplineSet
156 542 m 1,0,1
 181 542 181 542 194 529.5 c 128,-1,2
 207 517 207 517 207 496 c 0,3,4
 207 467 207 467 188 443.5 c 128,-1,5
 169 420 169 420 135 420 c 0,6,7
 107 420 107 420 93.5 437.5 c 128,-1,8
 80 455 80 455 80 480 c 0,9,10
 80 514 80 514 93 544 c 128,-1,11
 106 574 106 574 127 600 c 128,-1,12
 148 626 148 626 175 648 c 128,-1,13
 202 670 202 670 231 688 c 1,14,-1
 245 664 l 1,15,16
 231 656 231 656 214.5 644 c 128,-1,17
 198 632 198 632 183 616 c 128,-1,18
 168 600 168 600 156.5 580.5 c 128,-1,19
 145 561 145 561 141 539 c 1,20,-1
 156 542 l 1,0,1
EndSplineSet
EndChar

StartChar: quoteright
Encoding: 8217 8217 19
Width: 220
Flags: W
LayerCount: 2
Fore
SplineSet
164 558 m 1,0,1
 139 558 139 558 126 570.5 c 128,-1,2
 113 583 113 583 113 604 c 0,3,4
 113 633 113 633 132 656.5 c 128,-1,5
 151 680 151 680 185 680 c 0,6,7
 213 680 213 680 226.5 662.5 c 128,-1,8
 240 645 240 645 240 620 c 0,9,10
 240 586 240 586 227 556 c 128,-1,11
 214 526 214 526 193 500 c 128,-1,12
 172 474 172 474 145 452 c 128,-1,13
 118 430 118 430 89 412 c 1,14,-1
 75 436 l 1,15,16
 89 444 89 444 105.5 456 c 128,-1,17
 122 468 122 468 137 484 c 128,-1,18
 152 500 152 500 163.5 519.5 c 128,-1,19
 175 539 175 539 179 561 c 1,20,-1
 164 558 l 1,0,1
EndSplineSet
EndChar

StartChar: trademark
Encoding: 8482 8482 20
Width: 942
Flags: W
LayerCount: 2
Fore
SplineSet
474 660 m 1,0,-1
 468 628 l 1,1,-1
 347 628 l 1,2,-1
 289 297 l 1,3,-1
 193 297 l 1,4,-1
 251 628 l 1,5,-1
 205 628 l 2,6,7
 171 628 171 628 146.5 607 c 128,-1,8
 122 586 122 586 114 543 c 1,9,-1
 98 543 l 1,10,-1
 107 594 l 2,11,12
 109 606 109 606 114.5 618 c 128,-1,13
 120 630 120 630 129.5 639.5 c 128,-1,14
 139 649 139 649 154 654.5 c 128,-1,15
 169 660 169 660 191 660 c 2,16,-1
 474 660 l 1,0,-1
917 660 m 1,17,18
 900 565 900 565 890.5 509.5 c 128,-1,19
 881 454 881 454 876.5 424 c 128,-1,20
 872 394 872 394 871 382.5 c 128,-1,21
 870 371 870 371 870 364 c 0,22,23
 870 335 870 335 878 321 c 128,-1,24
 886 307 886 307 902 302 c 1,25,-1
 900 290 l 1,26,27
 840 290 840 290 808.5 311.5 c 128,-1,28
 777 333 777 333 777 389 c 0,29,30
 777 394 777 394 777.5 401.5 c 128,-1,31
 778 409 778 409 781 426.5 c 128,-1,32
 784 444 784 444 789 474.5 c 128,-1,33
 794 505 794 505 803 556 c 1,34,-1
 641 297 l 1,35,-1
 616 297 l 1,36,-1
 519 572 l 1,37,-1
 471 297 l 1,38,-1
 433 297 l 1,39,-1
 497 660 l 1,40,-1
 585 660 l 1,41,-1
 670 417 l 1,42,-1
 822 660 l 1,43,-1
 917 660 l 1,17,18
EndSplineSet
EndChar

StartChar: exclam
Encoding: 33 33 21
Width: 248
Flags: W
LayerCount: 2
Fore
SplineSet
149 155 m 1,0,-1
 55 155 l 1,1,-1
 125 660 l 1,2,-1
 258 660 l 1,3,-1
 149 155 l 1,0,-1
145 61 m 0,4,5
 145 32 145 32 125 9 c 128,-1,6
 105 -14 105 -14 72 -14 c 0,7,8
 47 -14 47 -14 34 -1.5 c 128,-1,9
 21 11 21 11 21 32 c 0,10,11
 21 62 21 62 40.5 85 c 128,-1,12
 60 108 60 108 94 108 c 0,13,14
 120 108 120 108 132.5 95.5 c 128,-1,15
 145 83 145 83 145 61 c 0,4,5
EndSplineSet
EndChar

StartChar: quotedbl
Encoding: 34 34 22
Width: 392
Flags: W
LayerCount: 2
Fore
SplineSet
264 390 m 1,0,-1
 282 660 l 1,1,-1
 412 660 l 1,2,-1
 334 390 l 1,3,-1
 264 390 l 1,0,-1
94 390 m 1,4,-1
 112 660 l 1,5,-1
 242 660 l 1,6,-1
 164 390 l 1,7,-1
 94 390 l 1,4,-1
EndSplineSet
EndChar

StartChar: numbersign
Encoding: 35 35 23
Width: 702
Flags: W
LayerCount: 2
Fore
SplineSet
69 0 m 1,0,-1
 135 172 l 1,1,-1
 12 172 l 1,2,-1
 23 237 l 1,3,-1
 159 237 l 1,4,-1
 227 413 l 1,5,-1
 114 413 l 1,6,-1
 126 478 l 1,7,-1
 253 478 l 1,8,-1
 329 675 l 1,9,-1
 428 675 l 1,10,-1
 352 478 l 1,11,-1
 479 478 l 1,12,-1
 555 675 l 1,13,-1
 655 675 l 1,14,-1
 579 478 l 1,15,-1
 707 478 l 1,16,-1
 695 413 l 1,17,-1
 553 413 l 1,18,-1
 486 237 l 1,19,-1
 604 237 l 1,20,-1
 593 172 l 1,21,-1
 461 172 l 1,22,-1
 395 0 l 1,23,-1
 295 0 l 1,24,-1
 361 172 l 1,25,-1
 234 172 l 1,26,-1
 168 0 l 1,27,-1
 69 0 l 1,0,-1
259 237 m 1,28,-1
 385 237 l 1,29,-1
 453 413 l 1,30,-1
 326 413 l 1,31,-1
 259 237 l 1,28,-1
EndSplineSet
EndChar

StartChar: dollar
Encoding: 36 36 24
Width: 552
Flags: W
LayerCount: 2
Fore
SplineSet
376 676 m 1,0,1
 409 673 409 673 439.5 664.5 c 128,-1,2
 470 656 470 656 493 642.5 c 128,-1,3
 516 629 516 629 530 610.5 c 128,-1,4
 544 592 544 592 544 570 c 0,5,6
 544 568 544 568 543.5 565 c 128,-1,7
 543 562 543 562 541 549.5 c 128,-1,8
 539 537 539 537 534.5 511.5 c 128,-1,9
 530 486 530 486 522 441 c 1,10,-1
 494 441 l 1,11,-1
 494 449 l 2,12,13
 494 539 494 539 461.5 581.5 c 128,-1,14
 429 624 429 624 368 631 c 1,15,-1
 325 390 l 1,16,-1
 400 341 l 2,17,18
 452 306 452 306 477.5 273.5 c 128,-1,19
 503 241 503 241 503 198 c 0,20,21
 503 149 503 149 482 111.5 c 128,-1,22
 461 74 461 74 426 47.5 c 128,-1,23
 391 21 391 21 346 5 c 128,-1,24
 301 -11 301 -11 254 -16 c 1,25,-1
 242 -80 l 1,26,-1
 172 -80 l 1,27,-1
 184 -15 l 1,28,29
 149 -12 149 -12 118 -4 c 128,-1,30
 87 4 87 4 63 17.5 c 128,-1,31
 39 31 39 31 25 49 c 128,-1,32
 11 67 11 67 11 90 c 0,33,34
 11 91 11 91 11.5 94.5 c 128,-1,35
 12 98 12 98 14 111 c 128,-1,36
 16 124 16 124 20 149.5 c 128,-1,37
 24 175 24 175 32 220 c 1,38,-1
 60 220 l 1,39,-1
 60 212 l 2,40,41
 60 122 60 122 92.5 79.5 c 128,-1,42
 125 37 125 37 192 29 c 1,43,-1
 237 287 l 1,44,-1
 176 328 l 1,45,46
 125 361 125 361 103 395.5 c 128,-1,47
 81 430 81 430 81 472 c 0,48,49
 81 517 81 517 99.5 553 c 128,-1,50
 118 589 118 589 148.5 615 c 128,-1,51
 179 641 179 641 220 656.5 c 128,-1,52
 261 672 261 672 306 677 c 1,53,-1
 316 735 l 1,54,-1
 386 735 l 1,55,-1
 376 676 l 1,0,1
262 31 m 1,56,57
 283 35 283 35 302 44.5 c 128,-1,58
 321 54 321 54 336 68 c 128,-1,59
 351 82 351 82 360 101 c 128,-1,60
 369 120 369 120 369 144 c 0,61,62
 369 176 369 176 350.5 199 c 128,-1,63
 332 222 332 222 300 245 c 1,64,-1
 262 31 l 1,56,57
297 628 m 1,65,66
 260 617 260 617 232.5 588.5 c 128,-1,67
 205 560 205 560 205 518 c 0,68,69
 205 490 205 490 220.5 471 c 128,-1,70
 236 452 236 452 263 432 c 1,71,-1
 297 628 l 1,65,66
EndSplineSet
EndChar

StartChar: ampersand
Encoding: 38 38 25
Width: 634
Flags: W
LayerCount: 2
Fore
SplineSet
6 108 m 0,0,1
 6 148 6 148 23 181 c 128,-1,2
 40 214 40 214 68 240 c 128,-1,3
 96 266 96 266 130.5 287 c 128,-1,4
 165 308 165 308 200 326 c 1,5,6
 195 331 195 331 182 346.5 c 128,-1,7
 169 362 169 362 155.5 385 c 128,-1,8
 142 408 142 408 132 436.5 c 128,-1,9
 122 465 122 465 122 496 c 0,10,11
 122 540 122 540 141.5 574.5 c 128,-1,12
 161 609 161 609 193 632.5 c 128,-1,13
 225 656 225 656 266 668 c 128,-1,14
 307 680 307 680 351 680 c 0,15,16
 432 680 432 680 473 648 c 128,-1,17
 514 616 514 616 514 564 c 0,18,19
 514 525 514 525 496 492.5 c 128,-1,20
 478 460 478 460 449.5 432.5 c 128,-1,21
 421 405 421 405 387 382 c 128,-1,22
 353 359 353 359 321 340 c 1,23,-1
 471 140 l 1,24,25
 493 160 493 160 512.5 182 c 128,-1,26
 532 204 532 204 546 221 c 0,27,28
 563 241 563 241 577 261 c 1,29,-1
 610 236 l 1,30,31
 597 215 597 215 580 193 c 0,32,33
 566 174 566 174 545.5 150.5 c 128,-1,34
 525 127 525 127 499 103 c 1,35,-1
 578 0 l 1,36,-1
 442 0 l 1,37,-1
 410 38 l 1,38,39
 410 38 410 38 396 29 c 128,-1,40
 382 20 382 20 357 9 c 128,-1,41
 332 -2 332 -2 298.5 -11 c 128,-1,42
 265 -20 265 -20 228 -20 c 0,43,44
 166 -20 166 -20 123.5 -10 c 128,-1,45
 81 0 81 0 55 17 c 128,-1,46
 29 34 29 34 17.5 57.5 c 128,-1,47
 6 81 6 81 6 108 c 0,0,1
244 20 m 0,48,49
 274 20 274 20 300 28 c 128,-1,50
 326 36 326 36 345 46 c 0,51,52
 367 57 367 57 386 72 c 1,53,54
 345 128 345 128 308.5 175 c 128,-1,55
 272 222 272 222 232 278 c 1,56,57
 195 249 195 249 166 208 c 128,-1,58
 137 167 137 167 137 115 c 0,59,60
 137 71 137 71 163.5 45.5 c 128,-1,61
 190 20 190 20 244 20 c 0,48,49
344 640 m 0,62,63
 318 640 318 640 300 625.5 c 128,-1,64
 282 611 282 611 271 588.5 c 128,-1,65
 260 566 260 566 255.5 539.5 c 128,-1,66
 251 513 251 513 251 490 c 0,67,68
 251 450 251 450 265 422.5 c 128,-1,69
 279 395 279 395 292 381 c 1,70,71
 335 415 335 415 364.5 462 c 128,-1,72
 394 509 394 509 394 569 c 0,73,74
 394 608 394 608 378.5 624 c 128,-1,75
 363 640 363 640 344 640 c 0,62,63
EndSplineSet
EndChar

StartChar: quotesingle
Encoding: 39 39 26
Width: 222
Flags: W
LayerCount: 2
Fore
SplineSet
94 390 m 1,0,-1
 112 660 l 1,1,-1
 242 660 l 1,2,-1
 164 390 l 1,3,-1
 94 390 l 1,0,-1
EndSplineSet
EndChar

StartChar: parenleft
Encoding: 40 40 27
Width: 321
Flags: W
LayerCount: 2
Fore
SplineSet
10 148 m 0,0,1
 10 236 10 236 37.5 315.5 c 128,-1,2
 65 395 65 395 113.5 464 c 128,-1,3
 162 533 162 533 228 592 c 128,-1,4
 294 651 294 651 372 700 c 1,5,-1
 382 680 l 1,6,7
 318 629 318 629 271 559.5 c 128,-1,8
 224 490 224 490 193 411 c 128,-1,9
 162 332 162 332 147 247 c 128,-1,10
 132 162 132 162 132 79 c 0,11,12
 132 -5 132 -5 154 -75.5 c 128,-1,13
 176 -146 176 -146 227 -200 c 1,14,-1
 210 -220 l 1,15,16
 111 -145 111 -145 60.5 -54 c 128,-1,17
 10 37 10 37 10 148 c 0,0,1
EndSplineSet
EndChar

StartChar: parenright
Encoding: 41 41 28
Width: 321
Flags: W
LayerCount: 2
Fore
SplineSet
298 331 m 0,0,1
 298 243 298 243 270.5 164 c 128,-1,2
 243 85 243 85 194.5 16 c 128,-1,3
 146 -53 146 -53 80 -112.5 c 128,-1,4
 14 -172 14 -172 -63 -220 c 1,5,-1
 -74 -200 l 1,6,7
 -10 -149 -10 -149 37 -80 c 128,-1,8
 84 -11 84 -11 115 68 c 128,-1,9
 146 147 146 147 161 232 c 128,-1,10
 176 317 176 317 176 400 c 0,11,12
 176 485 176 485 153.5 555.5 c 128,-1,13
 131 626 131 626 80 680 c 1,14,-1
 98 700 l 1,15,16
 197 625 197 625 247.5 534 c 128,-1,17
 298 443 298 443 298 331 c 0,0,1
EndSplineSet
EndChar

StartChar: asterisk
Encoding: 42 42 29
Width: 436
Flags: W
LayerCount: 2
Fore
SplineSet
229 660 m 1,0,-1
 341 660 l 1,1,-1
 296 539 l 1,2,-1
 409 628 l 1,3,-1
 443 542 l 1,4,-1
 290 492 l 1,5,-1
 425 442 l 1,6,-1
 361 356 l 1,7,-1
 278 446 l 1,8,-1
 282 324 l 1,9,-1
 170 324 l 1,10,-1
 215 445 l 1,11,-1
 101 356 l 1,12,-1
 67 442 l 1,13,-1
 220 492 l 1,14,-1
 85 542 l 1,15,-1
 149 628 l 1,16,-1
 232 539 l 1,17,-1
 229 660 l 1,0,-1
EndSplineSet
EndChar

StartChar: plus
Encoding: 43 43 30
Width: 547
Flags: W
LayerCount: 2
Fore
SplineSet
232 295 m 1,0,-1
 35 295 l 1,1,-1
 47 365 l 1,2,-1
 244 365 l 1,3,-1
 278 560 l 1,4,-1
 368 560 l 1,5,-1
 334 365 l 1,6,-1
 531 365 l 1,7,-1
 519 295 l 1,8,-1
 322 295 l 1,9,-1
 287 100 l 1,10,-1
 197 100 l 1,11,-1
 232 295 l 1,0,-1
EndSplineSet
EndChar

StartChar: comma
Encoding: 44 44 31
Width: 230
Flags: W
LayerCount: 2
Fore
SplineSet
62 -14 m 1,0,1
 37 -14 37 -14 24 -1.5 c 128,-1,2
 11 11 11 11 11 32 c 0,3,4
 11 62 11 62 30.5 85 c 128,-1,5
 50 108 50 108 84 108 c 0,6,7
 112 108 112 108 125 90.5 c 128,-1,8
 138 73 138 73 138 48 c 0,9,10
 138 14 138 14 125.5 -16 c 128,-1,11
 113 -46 113 -46 92 -72 c 128,-1,12
 71 -98 71 -98 43.5 -120 c 128,-1,13
 16 -142 16 -142 -13 -160 c 1,14,-1
 -26 -136 l 1,15,16
 -13 -128 -13 -128 3.5 -116 c 128,-1,17
 20 -104 20 -104 35 -88 c 128,-1,18
 50 -72 50 -72 62 -52.5 c 128,-1,19
 74 -33 74 -33 78 -11 c 1,20,-1
 62 -14 l 1,0,1
EndSplineSet
EndChar

StartChar: hyphen
Encoding: 45 45 32
Width: 397
Flags: W
LayerCount: 2
Fore
SplineSet
65 312 m 1,0,-1
 344 312 l 1,1,-1
 327 217 l 1,2,-1
 48 217 l 1,3,-1
 65 312 l 1,0,-1
EndSplineSet
EndChar

StartChar: period
Encoding: 46 46 33
Width: 226
Flags: W
LayerCount: 2
Fore
SplineSet
135 61 m 0,0,1
 135 32 135 32 115 9 c 128,-1,2
 95 -14 95 -14 62 -14 c 0,3,4
 37 -14 37 -14 24 -1.5 c 128,-1,5
 11 11 11 11 11 32 c 0,6,7
 11 62 11 62 30.5 85 c 128,-1,8
 50 108 50 108 84 108 c 0,9,10
 110 108 110 108 122.5 95.5 c 128,-1,11
 135 83 135 83 135 61 c 0,0,1
EndSplineSet
EndChar

StartChar: slash
Encoding: 47 47 34
Width: 480
Flags: W
LayerCount: 2
Fore
SplineSet
-25 0 m 1,0,-1
 412 660 l 1,1,-1
 524 660 l 1,2,-1
 87 0 l 1,3,-1
 -25 0 l 1,0,-1
EndSplineSet
EndChar

StartChar: zero
Encoding: 48 48 35
Width: 609
Flags: W
LayerCount: 2
Fore
SplineSet
367 635 m 0,0,1
 338 635 338 635 312.5 612.5 c 128,-1,2
 287 590 287 590 266 552.5 c 128,-1,3
 245 515 245 515 228 466 c 128,-1,4
 211 417 211 417 199.5 364.5 c 128,-1,5
 188 312 188 312 182 259.5 c 128,-1,6
 176 207 176 207 176 163 c 0,7,8
 176 92 176 92 196.5 58.5 c 128,-1,9
 217 25 217 25 260 25 c 0,10,11
 289 25 289 25 314.5 47.5 c 128,-1,12
 340 70 340 70 361.5 107 c 128,-1,13
 383 144 383 144 399.5 192.5 c 128,-1,14
 416 241 416 241 428 293.5 c 128,-1,15
 440 346 440 346 446 398 c 128,-1,16
 452 450 452 450 452 495 c 0,17,18
 452 635 452 635 367 635 c 0,0,1
375 680 m 0,19,20
 432 680 432 680 472 664 c 128,-1,21
 512 648 512 648 537.5 618 c 128,-1,22
 563 588 563 588 574.5 545.5 c 128,-1,23
 586 503 586 503 586 451 c 0,24,25
 586 403 586 403 578.5 349 c 128,-1,26
 571 295 571 295 554.5 243 c 128,-1,27
 538 191 538 191 512 143 c 128,-1,28
 486 95 486 95 449 59 c 128,-1,29
 412 23 412 23 363 1.5 c 128,-1,30
 314 -20 314 -20 252 -20 c 0,31,32
 195 -20 195 -20 155.5 -4 c 128,-1,33
 116 12 116 12 90.5 41.5 c 128,-1,34
 65 71 65 71 53.5 113 c 128,-1,35
 42 155 42 155 42 208 c 0,36,37
 42 256 42 256 49.5 310 c 128,-1,38
 57 364 57 364 73 416.5 c 128,-1,39
 89 469 89 469 115 516.5 c 128,-1,40
 141 564 141 564 178 600.5 c 128,-1,41
 215 637 215 637 263.5 658.5 c 128,-1,42
 312 680 312 680 375 680 c 0,19,20
EndSplineSet
EndChar

StartChar: one
Encoding: 49 49 36
Width: 324
Flags: W
LayerCount: 2
Fore
SplineSet
200 0 m 1,0,-1
 70 0 l 1,1,-1
 165 542 l 1,2,-1
 68 486 l 1,3,-1
 50 517 l 1,4,-1
 229 660 l 1,5,-1
 316 660 l 1,6,-1
 200 0 l 1,0,-1
EndSplineSet
EndChar

StartChar: two
Encoding: 50 50 37
Width: 540
Flags: W
LayerCount: 2
Fore
SplineSet
-6 0 m 1,0,-1
 5 65 l 1,1,2
 34 89 34 89 73.5 120.5 c 128,-1,3
 113 152 113 152 156 189 c 128,-1,4
 199 226 199 226 241.5 267.5 c 128,-1,5
 284 309 284 309 317.5 352.5 c 128,-1,6
 351 396 351 396 371.5 441 c 128,-1,7
 392 486 392 486 392 531 c 0,8,9
 392 585 392 585 365.5 610 c 128,-1,10
 339 635 339 635 304 635 c 0,11,12
 241 635 241 635 191 593 c 128,-1,13
 141 551 141 551 110 460 c 1,14,-1
 75 460 l 1,15,16
 81 498 81 498 91 537.5 c 128,-1,17
 101 577 101 577 123 600 c 0,18,19
 156 633 156 633 212.5 656.5 c 128,-1,20
 269 680 269 680 332 680 c 0,21,22
 363 680 363 680 398 674.5 c 128,-1,23
 433 669 433 669 463 652.5 c 128,-1,24
 493 636 493 636 512.5 606.5 c 128,-1,25
 532 577 532 577 532 530 c 0,26,27
 532 478 532 478 505 426.5 c 128,-1,28
 478 375 478 375 436 327 c 128,-1,29
 394 279 394 279 342.5 236 c 128,-1,30
 291 193 291 193 241.5 156.5 c 128,-1,31
 192 120 192 120 151 91.5 c 128,-1,32
 110 63 110 63 88 45 c 1,33,-1
 295 45 l 2,34,35
 355 45 355 45 392.5 73.5 c 128,-1,36
 430 102 430 102 440 155 c 1,37,-1
 470 155 l 1,38,-1
 457 80 l 2,39,40
 454 65 454 65 448 50.5 c 128,-1,41
 442 36 442 36 431 25 c 128,-1,42
 420 14 420 14 402 7 c 128,-1,43
 384 0 384 0 358 0 c 2,44,-1
 -6 0 l 1,0,-1
EndSplineSet
EndChar

StartChar: three
Encoding: 51 51 38
Width: 543
Flags: W
LayerCount: 2
Fore
SplineSet
268 615 m 2,0,1
 208 615 208 615 170.5 586.5 c 128,-1,2
 133 558 133 558 124 505 c 1,3,-1
 94 505 l 1,4,-1
 107 580 l 2,5,6
 110 595 110 595 116 609.5 c 128,-1,7
 122 624 122 624 133 635 c 128,-1,8
 144 646 144 646 162 653 c 128,-1,9
 180 660 180 660 206 660 c 2,10,-1
 544 660 l 1,11,-1
 536 615 l 1,12,-1
 246 381 l 1,13,14
 246 381 246 381 253 382 c 128,-1,15
 260 383 260 383 269.5 383.5 c 128,-1,16
 279 384 279 384 290 384.5 c 128,-1,17
 301 385 301 385 310 385 c 0,18,19
 341 385 341 385 374 376.5 c 128,-1,20
 407 368 407 368 435 349 c 128,-1,21
 463 330 463 330 481 299 c 128,-1,22
 499 268 499 268 499 224 c 0,23,24
 499 170 499 170 476 125.5 c 128,-1,25
 453 81 453 81 414.5 48.5 c 128,-1,26
 376 16 376 16 326.5 -2 c 128,-1,27
 277 -20 277 -20 224 -20 c 0,28,29
 176 -20 176 -20 140 -12.5 c 128,-1,30
 104 -5 104 -5 77 9.5 c 128,-1,31
 50 24 50 24 30 44 c 128,-1,32
 10 64 10 64 -7 88 c 1,33,-1
 26 117 l 1,34,35
 60 70 60 70 102.5 47.5 c 128,-1,36
 145 25 145 25 188 25 c 0,37,38
 228 25 228 25 259.5 42 c 128,-1,39
 291 59 291 59 313 87.5 c 128,-1,40
 335 116 335 116 347 152.5 c 128,-1,41
 359 189 359 189 359 228 c 0,42,43
 359 286 359 286 329 313 c 128,-1,44
 299 340 299 340 254 340 c 0,45,46
 231 340 231 340 211 337 c 128,-1,47
 191 334 191 334 177 330 c 0,48,49
 159 326 159 326 146 321 c 1,50,-1
 129 359 l 1,51,-1
 447 615 l 1,52,-1
 268 615 l 2,0,1
EndSplineSet
EndChar

StartChar: four
Encoding: 52 52 39
Width: 574
Flags: W
LayerCount: 2
Fore
SplineSet
412 0 m 1,0,-1
 282 0 l 1,1,-1
 311 170 l 1,2,-1
 -9 170 l 1,3,-1
 -1 210 l 1,4,-1
 424 660 l 1,5,-1
 528 660 l 1,6,-1
 449 215 l 1,7,-1
 539 215 l 1,8,-1
 531 170 l 1,9,-1
 441 170 l 1,10,-1
 412 0 l 1,0,-1
319 215 m 1,11,-1
 377 543 l 1,12,-1
 68 215 l 1,13,-1
 319 215 l 1,11,-1
EndSplineSet
EndChar

StartChar: five
Encoding: 53 53 40
Width: 549
Flags: W
LayerCount: 2
Fore
SplineSet
282 390 m 0,0,1
 318 390 318 390 358 382.5 c 128,-1,2
 398 375 398 375 431.5 356.5 c 128,-1,3
 465 338 465 338 487 307 c 128,-1,4
 509 276 509 276 509 228 c 0,5,6
 509 166 509 166 485 120 c 128,-1,7
 461 74 461 74 420.5 42.5 c 128,-1,8
 380 11 380 11 326.5 -4.5 c 128,-1,9
 273 -20 273 -20 213 -20 c 0,10,11
 172 -20 172 -20 140.5 -12.5 c 128,-1,12
 109 -5 109 -5 84 9 c 128,-1,13
 59 23 59 23 39.5 43 c 128,-1,14
 20 63 20 63 4 88 c 1,15,-1
 38 114 l 1,16,17
 68 67 68 67 111.5 46 c 128,-1,18
 155 25 155 25 198 25 c 0,19,20
 238 25 238 25 270 42.5 c 128,-1,21
 302 60 302 60 324 88.5 c 128,-1,22
 346 117 346 117 357.5 154 c 128,-1,23
 369 191 369 191 369 229 c 0,24,25
 369 287 369 287 334 315.5 c 128,-1,26
 299 344 299 344 234 344 c 0,27,28
 213 344 213 344 190.5 340.5 c 128,-1,29
 168 337 168 337 149 332 c 0,30,31
 127 327 127 327 105 321 c 1,32,-1
 72 360 l 1,33,-1
 136 660 l 1,34,-1
 525 660 l 1,35,-1
 517 616 l 1,36,-1
 244 616 l 1,37,-1
 194 385 l 1,38,39
 209 386 209 386 225 387 c 0,40,41
 239 388 239 388 253.5 389 c 128,-1,42
 268 390 268 390 282 390 c 0,0,1
EndSplineSet
EndChar

StartChar: six
Encoding: 54 54 41
Width: 561
Flags: W
LayerCount: 2
Fore
SplineSet
42 208 m 0,0,1
 42 261 42 261 50 316.5 c 128,-1,2
 58 372 58 372 75 424.5 c 128,-1,3
 92 477 92 477 119.5 523.5 c 128,-1,4
 147 570 147 570 186.5 604.5 c 128,-1,5
 226 639 226 639 277.5 659.5 c 128,-1,6
 329 680 329 680 395 680 c 0,7,8
 429 680 429 680 457.5 674.5 c 128,-1,9
 486 669 486 669 506 663 c 0,10,11
 530 655 530 655 549 646 c 1,12,-1
 538 618 l 1,13,14
 517 622 517 622 494 626 c 0,15,16
 474 629 474 629 451 632 c 128,-1,17
 428 635 428 635 407 635 c 0,18,19
 332 635 332 635 276.5 574 c 128,-1,20
 221 513 221 513 198 385 c 1,21,22
 216 398 216 398 240 409 c 0,23,24
 260 418 260 418 287.5 425.5 c 128,-1,25
 315 433 315 433 347 433 c 0,26,27
 395 433 395 433 428.5 422 c 128,-1,28
 462 411 462 411 483.5 390.5 c 128,-1,29
 505 370 505 370 514.5 340.5 c 128,-1,30
 524 311 524 311 524 274 c 0,31,32
 524 217 524 217 504 164 c 128,-1,33
 484 111 484 111 447.5 70 c 128,-1,34
 411 29 411 29 358.5 4.5 c 128,-1,35
 306 -20 306 -20 242 -20 c 0,36,37
 142 -20 142 -20 92 37.5 c 128,-1,38
 42 95 42 95 42 208 c 0,0,1
309 388 m 0,39,40
 286 388 286 388 265 380.5 c 128,-1,41
 244 373 244 373 227 363.5 c 128,-1,42
 210 354 210 354 200 346 c 128,-1,43
 190 338 190 338 190 337 c 0,44,45
 181 286 181 286 177 244 c 128,-1,46
 173 202 173 202 173 169 c 0,47,48
 173 93 173 93 193 59 c 128,-1,49
 213 25 213 25 250 25 c 0,50,51
 288 25 288 25 315 54 c 128,-1,52
 342 83 342 83 358.5 123.5 c 128,-1,53
 375 164 375 164 382.5 208 c 128,-1,54
 390 252 390 252 390 283 c 0,55,56
 390 334 390 334 370.5 361 c 128,-1,57
 351 388 351 388 309 388 c 0,39,40
EndSplineSet
EndChar

StartChar: seven
Encoding: 55 55 42
Width: 476
Flags: W
LayerCount: 2
Fore
SplineSet
168 0 m 1,0,-1
 47 0 l 1,1,-1
 405 615 l 1,2,-1
 235 615 l 2,3,4
 175 615 175 615 137.5 586.5 c 128,-1,5
 100 558 100 558 91 505 c 1,6,-1
 61 505 l 1,7,-1
 74 580 l 2,8,9
 77 595 77 595 83 609.5 c 128,-1,10
 89 624 89 624 100 635 c 128,-1,11
 111 646 111 646 129 653 c 128,-1,12
 147 660 147 660 173 660 c 2,13,-1
 534 660 l 1,14,-1
 526 615 l 1,15,-1
 168 0 l 1,0,-1
EndSplineSet
EndChar

StartChar: eight
Encoding: 56 56 43
Width: 580
Flags: W
LayerCount: 2
Fore
SplineSet
560 550 m 256,0,1
 560 514 560 514 546.5 484.5 c 128,-1,2
 533 455 533 455 510 431.5 c 128,-1,3
 487 408 487 408 457 390 c 128,-1,4
 427 372 427 372 394 358 c 1,5,6
 419 343 419 343 442 326.5 c 128,-1,7
 465 310 465 310 483 290.5 c 128,-1,8
 501 271 501 271 511.5 247 c 128,-1,9
 522 223 522 223 522 193 c 0,10,11
 522 137 522 137 497 96.5 c 128,-1,12
 472 56 472 56 432 30 c 128,-1,13
 392 4 392 4 340.5 -8 c 128,-1,14
 289 -20 289 -20 237 -20 c 0,15,16
 190 -20 190 -20 149.5 -12 c 128,-1,17
 109 -4 109 -4 79 13.5 c 128,-1,18
 49 31 49 31 31.5 57.5 c 128,-1,19
 14 84 14 84 14 122 c 0,20,21
 14 164 14 164 32 197 c 128,-1,22
 50 230 50 230 79 255.5 c 128,-1,23
 108 281 108 281 144 300.5 c 128,-1,24
 180 320 180 320 217 335 c 1,25,26
 193 349 193 349 172.5 364 c 128,-1,27
 152 379 152 379 136.5 396.5 c 128,-1,28
 121 414 121 414 112 434.5 c 128,-1,29
 103 455 103 455 103 481 c 0,30,31
 103 533 103 533 124.5 570.5 c 128,-1,32
 146 608 146 608 182 632.5 c 128,-1,33
 218 657 218 657 264 668.5 c 128,-1,34
 310 680 310 680 360 680 c 0,35,36
 402 680 402 680 438.5 673.5 c 128,-1,37
 475 667 475 667 502 651.5 c 128,-1,38
 529 636 529 636 544.5 611 c 128,-1,39
 560 586 560 586 560 550 c 256,0,1
245 25 m 0,40,41
 273 25 273 25 298.5 36 c 128,-1,42
 324 47 324 47 342.5 65.5 c 128,-1,43
 361 84 361 84 372 110 c 128,-1,44
 383 136 383 136 383 166 c 0,45,46
 383 191 383 191 373.5 212 c 128,-1,47
 364 233 364 233 348 250 c 128,-1,48
 332 267 332 267 310.5 282 c 128,-1,49
 289 297 289 297 265 311 c 1,50,51
 211 283 211 283 180 233 c 128,-1,52
 149 183 149 183 149 118 c 0,53,54
 149 70 149 70 175 47.5 c 128,-1,55
 201 25 201 25 245 25 c 0,40,41
352 635 m 0,56,57
 328 635 328 635 308 624 c 128,-1,58
 288 613 288 613 273.5 595.5 c 128,-1,59
 259 578 259 578 250.5 555.5 c 128,-1,60
 242 533 242 533 242 510 c 0,61,62
 242 469 242 469 273 438 c 128,-1,63
 304 407 304 407 346 384 c 1,64,65
 385 411 385 411 405 456.5 c 128,-1,66
 425 502 425 502 425 552 c 0,67,68
 425 576 425 576 418 592 c 128,-1,69
 411 608 411 608 400.5 617.5 c 128,-1,70
 390 627 390 627 377 631 c 128,-1,71
 364 635 364 635 352 635 c 0,56,57
EndSplineSet
EndChar

StartChar: nine
Encoding: 57 57 44
Width: 562
Flags: W
LayerCount: 2
Fore
SplineSet
538 451 m 0,0,1
 538 398 538 398 530 342.5 c 128,-1,2
 522 287 522 287 504.5 235 c 128,-1,3
 487 183 487 183 459.5 136.5 c 128,-1,4
 432 90 432 90 392.5 55 c 128,-1,5
 353 20 353 20 301 0 c 128,-1,6
 249 -20 249 -20 184 -20 c 0,7,8
 149 -20 149 -20 121 -15 c 128,-1,9
 93 -10 93 -10 73 -3 c 1,10,11
 49 4 49 4 30 14 c 1,12,-1
 41 42 l 1,13,14
 62 37 62 37 85 33 c 0,15,16
 105 30 105 30 127.5 27.5 c 128,-1,17
 150 25 150 25 172 25 c 0,18,19
 247 25 247 25 302.5 86 c 128,-1,20
 358 147 358 147 381 275 c 1,21,22
 362 262 362 262 339 251 c 0,23,24
 319 242 319 242 292 234.5 c 128,-1,25
 265 227 265 227 233 227 c 0,26,27
 137 227 137 227 96.5 269.5 c 128,-1,28
 56 312 56 312 56 386 c 0,29,30
 56 443 56 443 75.5 496 c 128,-1,31
 95 549 95 549 131.5 590 c 128,-1,32
 168 631 168 631 220 655.5 c 128,-1,33
 272 680 272 680 337 680 c 0,34,35
 538 680 538 680 538 451 c 0,0,1
270 272 m 0,36,37
 292 272 292 272 313.5 279.5 c 128,-1,38
 335 287 335 287 352 296.5 c 128,-1,39
 369 306 369 306 379 314 c 128,-1,40
 389 322 389 322 389 323 c 0,41,42
 407 425 407 425 407 491 c 0,43,44
 407 567 407 567 386.5 601 c 128,-1,45
 366 635 366 635 329 635 c 0,46,47
 290 635 290 635 263.5 606 c 128,-1,48
 237 577 237 577 220.5 536 c 128,-1,49
 204 495 204 495 197 450.5 c 128,-1,50
 190 406 190 406 190 375 c 0,51,52
 190 324 190 324 209 298 c 128,-1,53
 228 272 228 272 270 272 c 0,36,37
EndSplineSet
EndChar

StartChar: colon
Encoding: 58 58 45
Width: 239
Flags: W
LayerCount: 2
Fore
SplineSet
141 61 m 0,0,1
 141 32 141 32 121 9 c 128,-1,2
 101 -14 101 -14 68 -14 c 0,3,4
 43 -14 43 -14 30 -1.5 c 128,-1,5
 17 11 17 11 17 32 c 0,6,7
 17 62 17 62 36.5 85 c 128,-1,8
 56 108 56 108 90 108 c 0,9,10
 116 108 116 108 128.5 95.5 c 128,-1,11
 141 83 141 83 141 61 c 0,0,1
203 414 m 0,12,13
 203 385 203 385 183 362 c 128,-1,14
 163 339 163 339 130 339 c 0,15,16
 104 339 104 339 91.5 351.5 c 128,-1,17
 79 364 79 364 79 386 c 0,18,19
 79 415 79 415 99 438 c 128,-1,20
 119 461 119 461 152 461 c 0,21,22
 178 461 178 461 190.5 448.5 c 128,-1,23
 203 436 203 436 203 414 c 0,12,13
EndSplineSet
EndChar

StartChar: semicolon
Encoding: 59 59 46
Width: 251
Flags: W
LayerCount: 2
Fore
SplineSet
208 414 m 0,0,1
 208 385 208 385 188 362 c 128,-1,2
 168 339 168 339 135 339 c 0,3,4
 109 339 109 339 96.5 351.5 c 128,-1,5
 84 364 84 364 84 386 c 0,6,7
 84 415 84 415 104 438 c 128,-1,8
 124 461 124 461 157 461 c 0,9,10
 183 461 183 461 195.5 448.5 c 128,-1,11
 208 436 208 436 208 414 c 0,0,1
73 -14 m 1,12,13
 48 -14 48 -14 35 -1.5 c 128,-1,14
 22 11 22 11 22 32 c 0,15,16
 22 62 22 62 41.5 85 c 128,-1,17
 61 108 61 108 95 108 c 0,18,19
 123 108 123 108 136 90.5 c 128,-1,20
 149 73 149 73 149 48 c 0,21,22
 149 14 149 14 136.5 -16 c 128,-1,23
 124 -46 124 -46 103 -72 c 128,-1,24
 82 -98 82 -98 54.5 -120 c 128,-1,25
 27 -142 27 -142 -2 -160 c 1,26,-1
 -15 -136 l 1,27,28
 -2 -128 -2 -128 14.5 -116 c 128,-1,29
 31 -104 31 -104 46 -88 c 128,-1,30
 61 -72 61 -72 73 -52.5 c 128,-1,31
 85 -33 85 -33 89 -11 c 1,32,-1
 73 -14 l 1,12,13
EndSplineSet
EndChar

StartChar: less
Encoding: 60 60 47
Width: 611
Flags: W
LayerCount: 2
Fore
SplineSet
46 370 m 1,0,-1
 606 596 l 1,1,-1
 590 505 l 1,2,-1
 168 335 l 1,3,-1
 530 165 l 1,4,-1
 514 74 l 1,5,-1
 33 300 l 1,6,-1
 46 370 l 1,0,-1
EndSplineSet
EndChar

StartChar: equal
Encoding: 61 61 48
Width: 670
Flags: W
LayerCount: 2
Fore
SplineSet
91 455 m 1,0,-1
 640 455 l 1,1,-1
 627 385 l 1,2,-1
 78 385 l 1,3,-1
 91 455 l 1,0,-1
59 275 m 1,4,-1
 608 275 l 1,5,-1
 596 205 l 1,6,-1
 47 205 l 1,7,-1
 59 275 l 1,4,-1
EndSplineSet
EndChar

StartChar: greater
Encoding: 62 62 49
Width: 610
Flags: W
LayerCount: 2
Fore
SplineSet
584 300 m 1,0,-1
 25 74 l 1,1,-1
 41 165 l 1,2,-1
 463 335 l 1,3,-1
 101 505 l 1,4,-1
 117 596 l 1,5,-1
 597 370 l 1,6,-1
 584 300 l 1,0,-1
EndSplineSet
EndChar

StartChar: question
Encoding: 63 63 50
Width: 500
Flags: W
LayerCount: 2
Fore
SplineSet
288 635 m 0,0,1
 229 635 229 635 177.5 591.5 c 128,-1,2
 126 548 126 548 89 447 c 1,3,-1
 59 447 l 1,4,5
 60 449 60 449 60 451 c 128,-1,6
 60 453 60 453 61 455 c 0,7,8
 69 497 69 497 79 536 c 128,-1,9
 89 575 89 575 112 599 c 1,10,11
 129 615 129 615 153 629.5 c 128,-1,12
 177 644 177 644 205 655.5 c 128,-1,13
 233 667 233 667 264 673.5 c 128,-1,14
 295 680 295 680 326 680 c 0,15,16
 366 680 366 680 400 670 c 128,-1,17
 434 660 434 660 458.5 640.5 c 128,-1,18
 483 621 483 621 496.5 592 c 128,-1,19
 510 563 510 563 510 526 c 0,20,21
 510 479 510 479 494.5 444.5 c 128,-1,22
 479 410 479 410 455 382 c 128,-1,23
 431 354 431 354 401 330 c 128,-1,24
 371 306 371 306 342 280.5 c 128,-1,25
 313 255 313 255 288 225.5 c 128,-1,26
 263 196 263 196 249 156 c 1,27,-1
 181 156 l 1,28,29
 190 193 190 193 207.5 224 c 128,-1,30
 225 255 225 255 246 283.5 c 128,-1,31
 267 312 267 312 289.5 339.5 c 128,-1,32
 312 367 312 367 330 397.5 c 128,-1,33
 348 428 348 428 359.5 463 c 128,-1,34
 371 498 371 498 371 541 c 0,35,36
 371 594 371 594 348 614.5 c 128,-1,37
 325 635 325 635 288 635 c 0,0,1
258 61 m 0,38,39
 258 32 258 32 238 9 c 128,-1,40
 218 -14 218 -14 185 -14 c 0,41,42
 160 -14 160 -14 147 -1.5 c 128,-1,43
 134 11 134 11 134 32 c 0,44,45
 134 62 134 62 153.5 85 c 128,-1,46
 173 108 173 108 207 108 c 0,47,48
 233 108 233 108 245.5 95.5 c 128,-1,49
 258 83 258 83 258 61 c 0,38,39
EndSplineSet
EndChar

StartChar: at
Encoding: 64 64 51
Width: 879
Flags: W
LayerCount: 2
Fore
SplineSet
435 495 m 0,0,1
 465 495 465 495 485 486.5 c 128,-1,2
 505 478 505 478 517 467 c 0,3,4
 531 455 531 455 540 440 c 1,5,-1
 545 440 l 1,6,-1
 588 485 l 1,7,-1
 673 485 l 1,8,-1
 605 102 l 2,9,10
 604 97 604 97 604 87 c 0,11,12
 604 71 604 71 611.5 61 c 128,-1,13
 619 51 619 51 636 51 c 0,14,15
 666 51 666 51 688.5 67.5 c 128,-1,16
 711 84 711 84 727.5 111 c 128,-1,17
 744 138 744 138 755 172 c 128,-1,18
 766 206 766 206 772.5 240.5 c 128,-1,19
 779 275 779 275 782 307.5 c 128,-1,20
 785 340 785 340 785 363 c 0,21,22
 785 430 785 430 765.5 480.5 c 128,-1,23
 746 531 746 531 709.5 565.5 c 128,-1,24
 673 600 673 600 621 617.5 c 128,-1,25
 569 635 569 635 504 635 c 0,26,27
 403 635 403 635 326 593.5 c 128,-1,28
 249 552 249 552 196.5 483.5 c 128,-1,29
 144 415 144 415 117.5 326.5 c 128,-1,30
 91 238 91 238 91 143 c 0,31,32
 91 73 91 73 110.5 21 c 128,-1,33
 130 -31 130 -31 166 -65.5 c 128,-1,34
 202 -100 202 -100 253.5 -117.5 c 128,-1,35
 305 -135 305 -135 369 -135 c 0,36,37
 464 -135 464 -135 546 -110.5 c 128,-1,38
 628 -86 628 -86 702 -40 c 1,39,-1
 721 -80 l 1,40,41
 650 -124 650 -124 562 -152 c 128,-1,42
 474 -180 474 -180 361 -180 c 0,43,44
 283 -180 283 -180 220.5 -159.5 c 128,-1,45
 158 -139 158 -139 113.5 -98 c 128,-1,46
 69 -57 69 -57 45 3 c 128,-1,47
 21 63 21 63 21 143 c 0,48,49
 21 245 21 245 54 342 c 128,-1,50
 87 439 87 439 149.5 514 c 128,-1,51
 212 589 212 589 303.5 634.5 c 128,-1,52
 395 680 395 680 512 680 c 0,53,54
 590 680 590 680 653.5 659 c 128,-1,55
 717 638 717 638 762 598 c 128,-1,56
 807 558 807 558 831 499 c 128,-1,57
 855 440 855 440 855 364 c 0,58,59
 855 306 855 306 840.5 242.5 c 128,-1,60
 826 179 826 179 794.5 126.5 c 128,-1,61
 763 74 763 74 712 39.5 c 128,-1,62
 661 5 661 5 588 5 c 0,63,64
 575 5 575 5 558 6 c 128,-1,65
 541 7 541 7 524.5 12.5 c 128,-1,66
 508 18 508 18 494 29 c 128,-1,67
 480 40 480 40 473 60 c 1,68,69
 458 44 458 44 440 32 c 0,70,71
 424 21 424 21 401 13 c 128,-1,72
 378 5 378 5 348 5 c 0,73,74
 303 5 303 5 270.5 18.5 c 128,-1,75
 238 32 238 32 217 56 c 128,-1,76
 196 80 196 80 185.5 112.5 c 128,-1,77
 175 145 175 145 175 183 c 0,78,79
 175 235 175 235 192 290.5 c 128,-1,80
 209 346 209 346 242 391.5 c 128,-1,81
 275 437 275 437 323.5 466 c 128,-1,82
 372 495 372 495 435 495 c 0,0,1
447 450 m 0,83,84
 421 450 421 450 400.5 434 c 128,-1,85
 380 418 380 418 364 392.5 c 128,-1,86
 348 367 348 367 337.5 335 c 128,-1,87
 327 303 327 303 320 270.5 c 128,-1,88
 313 238 313 238 310 208 c 128,-1,89
 307 178 307 178 307 157 c 0,90,91
 307 109 307 109 322.5 79.5 c 128,-1,92
 338 50 338 50 376 50 c 0,93,94
 399 50 399 50 417 60 c 128,-1,95
 435 70 435 70 449 82 c 0,96,97
 465 96 465 96 478 115 c 1,98,-1
 525 385 l 1,99,100
 519 403 519 403 508 417 c 0,101,102
 499 429 499 429 484.5 439.5 c 128,-1,103
 470 450 470 450 447 450 c 0,83,84
EndSplineSet
EndChar

StartChar: A
Encoding: 65 65 52
Width: 647
Flags: W
LayerCount: 2
Fore
SplineSet
549 126 m 2,0,1
 560 82 560 82 581 56 c 128,-1,2
 602 30 602 30 635 26 c 1,3,-1
 631 1 l 1,4,5
 623 -1 623 -1 608 -2.5 c 128,-1,6
 593 -4 593 -4 582 -4 c 0,7,8
 558 -4 558 -4 531.5 0.5 c 128,-1,9
 505 5 505 5 481 18.5 c 128,-1,10
 457 32 457 32 437.5 57.5 c 128,-1,11
 418 83 418 83 408 126 c 2,12,-1
 395 182 l 1,13,-1
 129 182 l 1,14,-1
 15 0 l 1,15,-1
 -37 0 l 1,16,-1
 374 660 l 1,17,-1
 419 660 l 1,18,-1
 549 126 l 2,0,1
158 227 m 1,19,-1
 384 227 l 1,20,-1
 320 488 l 1,21,-1
 158 227 l 1,19,-1
EndSplineSet
EndChar

StartChar: B
Encoding: 66 66 53
Width: 646
Flags: W
LayerCount: 2
Fore
SplineSet
347 620 m 0,0,1
 335 620 335 620 323.5 619 c 128,-1,2
 312 618 312 618 304 616 c 0,3,4
 294 614 294 614 286 613 c 1,5,-1
 241 361 l 1,6,-1
 316 361 l 2,7,8
 350 361 350 361 380 371.5 c 128,-1,9
 410 382 410 382 432.5 402.5 c 128,-1,10
 455 423 455 423 468.5 452 c 128,-1,11
 482 481 482 481 482 518 c 0,12,13
 482 547 482 547 470.5 566.5 c 128,-1,14
 459 586 459 586 440.5 598 c 128,-1,15
 422 610 422 610 397.5 615 c 128,-1,16
 373 620 373 620 347 620 c 0,0,1
48 0 m 1,17,18
 72 137 72 137 88.5 231.5 c 128,-1,19
 105 326 105 326 116 389 c 128,-1,20
 127 452 127 452 133 487.5 c 128,-1,21
 139 523 139 523 142 541.5 c 128,-1,22
 145 560 145 560 145.5 566 c 128,-1,23
 146 572 146 572 146 575 c 0,24,25
 146 601 146 601 133.5 615.5 c 128,-1,26
 121 630 121 630 89 630 c 2,27,-1
 79 630 l 1,28,-1
 84 660 l 1,29,-1
 354 660 l 2,30,31
 397 660 397 660 444.5 655.5 c 128,-1,32
 492 651 492 651 531 636.5 c 128,-1,33
 570 622 570 622 595.5 594 c 128,-1,34
 621 566 621 566 621 518 c 0,35,36
 621 483 621 483 607.5 455 c 128,-1,37
 594 427 594 427 571 404.5 c 128,-1,38
 548 382 548 382 518 366 c 128,-1,39
 488 350 488 350 454 341 c 1,40,41
 494 337 494 337 522 326 c 128,-1,42
 550 315 550 315 566.5 298.5 c 128,-1,43
 583 282 583 282 590.5 261.5 c 128,-1,44
 598 241 598 241 598 217 c 0,45,46
 598 154 598 154 569 112.5 c 128,-1,47
 540 71 540 71 493 46 c 128,-1,48
 446 21 446 21 387 10.5 c 128,-1,49
 328 0 328 0 268 0 c 2,50,-1
 48 0 l 1,17,18
260 40 m 2,51,52
 297 40 297 40 332.5 50.5 c 128,-1,53
 368 61 368 61 396 82 c 128,-1,54
 424 103 424 103 440.5 135 c 128,-1,55
 457 167 457 167 457 210 c 0,56,57
 457 316 457 316 308 316 c 2,58,-1
 233 316 l 1,59,-1
 186 50 l 1,60,61
 194 47 194 47 205 45 c 0,62,63
 225 40 225 40 255 40 c 2,64,-1
 260 40 l 2,51,52
EndSplineSet
EndChar

StartChar: C
Encoding: 67 67 54
Width: 680
Flags: W
LayerCount: 2
Fore
SplineSet
630 447 m 1,0,1
 628 538 628 538 585.5 586.5 c 128,-1,2
 543 635 543 635 460 635 c 0,3,4
 385 635 385 635 331 597 c 128,-1,5
 277 559 277 559 243 499.5 c 128,-1,6
 209 440 209 440 193 369 c 128,-1,7
 177 298 177 298 177 232 c 0,8,9
 177 188 177 188 186.5 150.5 c 128,-1,10
 196 113 196 113 217 85 c 128,-1,11
 238 57 238 57 271.5 41 c 128,-1,12
 305 25 305 25 353 25 c 0,13,14
 422 25 422 25 487.5 61.5 c 128,-1,15
 553 98 553 98 601 168 c 1,16,-1
 631 141 l 1,17,18
 600 99 600 99 566.5 69 c 128,-1,19
 533 39 533 39 494.5 19 c 128,-1,20
 456 -1 456 -1 411.5 -10.5 c 128,-1,21
 367 -20 367 -20 315 -20 c 0,22,23
 247 -20 247 -20 195 0 c 128,-1,24
 143 20 143 20 108 55 c 128,-1,25
 73 90 73 90 55.5 139 c 128,-1,26
 38 188 38 188 38 246 c 0,27,28
 38 323 38 323 67.5 400.5 c 128,-1,29
 97 478 97 478 150.5 540 c 128,-1,30
 204 602 204 602 277.5 641 c 128,-1,31
 351 680 351 680 438 680 c 0,32,33
 469 680 469 680 509.5 675 c 128,-1,34
 550 670 550 670 586 655.5 c 128,-1,35
 622 641 622 641 647 614.5 c 128,-1,36
 672 588 672 588 672 545 c 0,37,38
 672 522 672 522 668.5 497.5 c 128,-1,39
 665 473 665 473 660 447 c 1,40,-1
 630 447 l 1,0,1
EndSplineSet
EndChar

StartChar: D
Encoding: 68 68 55
Width: 737
Flags: W
LayerCount: 2
Fore
SplineSet
362 620 m 2,0,1
 347 620 347 620 333.5 619 c 128,-1,2
 320 618 320 618 309 616 c 0,3,4
 297 614 297 614 286 613 c 1,5,-1
 186 47 l 1,6,7
 196 45 196 45 208 43 c 0,8,9
 218 41 218 41 231.5 40.5 c 128,-1,10
 245 40 245 40 260 40 c 2,11,-1
 270 40 l 2,12,13
 339 40 339 40 394 72.5 c 128,-1,14
 449 105 449 105 488 156.5 c 128,-1,15
 527 208 527 208 547.5 273 c 128,-1,16
 568 338 568 338 568 403 c 0,17,18
 568 503 568 503 515.5 561.5 c 128,-1,19
 463 620 463 620 370 620 c 2,20,-1
 362 620 l 2,0,1
356 660 m 2,21,22
 537 660 537 660 627 591.5 c 128,-1,23
 717 523 717 523 717 402 c 0,24,25
 717 312 717 312 682 237.5 c 128,-1,26
 647 163 647 163 586 110.5 c 128,-1,27
 525 58 525 58 442.5 29 c 128,-1,28
 360 0 360 0 266 0 c 2,29,-1
 48 0 l 1,30,-1
 141 530 l 2,31,32
 146 558 146 558 146 575 c 0,33,34
 146 601 146 601 133.5 615.5 c 128,-1,35
 121 630 121 630 89 630 c 2,36,-1
 79 630 l 1,37,-1
 84 660 l 1,38,-1
 356 660 l 2,21,22
EndSplineSet
EndChar

StartChar: E
Encoding: 69 69 56
Width: 602
Flags: W
LayerCount: 2
Fore
SplineSet
525 660 m 2,0,1
 568 660 568 660 583 643 c 128,-1,2
 598 626 598 626 598 602 c 0,3,4
 598 599 598 599 597.5 595 c 128,-1,5
 597 591 597 591 595.5 580.5 c 128,-1,6
 594 570 594 570 590.5 549.5 c 128,-1,7
 587 529 587 529 581 495 c 1,8,-1
 551 495 l 1,9,10
 554 513 554 513 554 528 c 0,11,12
 554 574 554 574 526.5 594.5 c 128,-1,13
 499 615 499 615 447 615 c 2,14,-1
 286 615 l 1,15,-1
 242 365 l 1,16,-1
 502 365 l 1,17,-1
 494 320 l 1,18,-1
 234 320 l 1,19,-1
 185 45 l 1,20,-1
 356 45 l 2,21,22
 411 45 411 45 454 69.5 c 128,-1,23
 497 94 497 94 535 159 c 1,24,-1
 560 149 l 1,25,-1
 517 70 l 2,26,27
 500 38 500 38 479.5 19 c 128,-1,28
 459 0 459 0 418 0 c 2,29,-1
 48 0 l 1,30,31
 72 137 72 137 88.5 231.5 c 128,-1,32
 105 326 105 326 116 389 c 128,-1,33
 127 452 127 452 133 487.5 c 128,-1,34
 139 523 139 523 142 541.5 c 128,-1,35
 145 560 145 560 145.5 566 c 128,-1,36
 146 572 146 572 146 575 c 0,37,38
 146 601 146 601 133.5 615.5 c 128,-1,39
 121 630 121 630 89 630 c 2,40,-1
 79 630 l 1,41,-1
 84 660 l 1,42,-1
 525 660 l 2,0,1
EndSplineSet
EndChar

StartChar: F
Encoding: 70 70 57
Width: 542
Flags: W
LayerCount: 2
Fore
SplineSet
503 660 m 2,0,1
 546 660 546 660 561 643 c 128,-1,2
 576 626 576 626 576 602 c 0,3,4
 576 599 576 599 575.5 595 c 128,-1,5
 575 591 575 591 573.5 580.5 c 128,-1,6
 572 570 572 570 568.5 549.5 c 128,-1,7
 565 529 565 529 559 495 c 1,8,-1
 529 495 l 1,9,10
 532 513 532 513 532 528 c 0,11,12
 532 575 532 575 504.5 595 c 128,-1,13
 477 615 477 615 425 615 c 2,14,-1
 286 615 l 1,15,-1
 241 360 l 1,16,-1
 461 360 l 1,17,-1
 453 315 l 1,18,-1
 233 315 l 1,19,-1
 178 0 l 1,20,-1
 48 0 l 1,21,-1
 141 530 l 2,22,23
 146 558 146 558 146 575 c 0,24,25
 146 601 146 601 133.5 615.5 c 128,-1,26
 121 630 121 630 89 630 c 2,27,-1
 79 630 l 1,28,-1
 84 660 l 1,29,-1
 503 660 l 2,0,1
EndSplineSet
EndChar

StartChar: G
Encoding: 71 71 58
Width: 734
Flags: W
LayerCount: 2
Fore
SplineSet
620 47 m 1,0,1
 556 12 556 12 488 -4 c 128,-1,2
 420 -20 420 -20 343 -20 c 0,3,4
 274 -20 274 -20 218 2 c 128,-1,5
 162 24 162 24 122.5 63 c 128,-1,6
 83 102 83 102 61.5 156 c 128,-1,7
 40 210 40 210 40 273 c 0,8,9
 40 350 40 350 70 423 c 128,-1,10
 100 496 100 496 152.5 553 c 128,-1,11
 205 610 205 610 277.5 645 c 128,-1,12
 350 680 350 680 436 680 c 0,13,14
 468 680 468 680 509.5 675 c 128,-1,15
 551 670 551 670 588 655 c 128,-1,16
 625 640 625 640 650.5 613 c 128,-1,17
 676 586 676 586 676 543 c 0,18,19
 676 522 676 522 673 500.5 c 128,-1,20
 670 479 670 479 666 460 c 1,21,-1
 636 460 l 1,22,23
 633 552 633 552 589 593.5 c 128,-1,24
 545 635 545 635 458 635 c 0,25,26
 407 635 407 635 366.5 617 c 128,-1,27
 326 599 326 599 294.5 568 c 128,-1,28
 263 537 263 537 240.5 496 c 128,-1,29
 218 455 218 455 203.5 409.5 c 128,-1,30
 189 364 189 364 182 317 c 128,-1,31
 175 270 175 270 175 226 c 0,32,33
 175 168 175 168 188.5 128.5 c 128,-1,34
 202 89 202 89 225 65 c 128,-1,35
 248 41 248 41 280 30.5 c 128,-1,36
 312 20 312 20 350 20 c 0,37,38
 395 20 395 20 428.5 27 c 128,-1,39
 462 34 462 34 490 46 c 1,40,-1
 521 224 l 2,41,42
 525 245 525 245 535 266.5 c 128,-1,43
 545 288 545 288 569 305.5 c 128,-1,44
 593 323 593 323 633 334.5 c 128,-1,45
 673 346 673 346 737 346 c 1,46,-1
 732 321 l 1,47,48
 698 321 698 321 678.5 296 c 128,-1,49
 659 271 659 271 651 226 c 2,50,-1
 620 47 l 1,0,1
EndSplineSet
EndChar

StartChar: H
Encoding: 72 72 59
Width: 723
Flags: W
LayerCount: 2
Fore
SplineSet
564 660 m 1,0,-1
 694 660 l 1,1,-1
 600 130 l 2,2,3
 598 118 598 118 597 107.5 c 128,-1,4
 596 97 596 97 596 87 c 0,5,6
 596 61 596 61 608 45.5 c 128,-1,7
 620 30 620 30 653 30 c 2,8,-1
 663 30 l 1,9,-1
 658 0 l 1,10,-1
 538 0 l 2,11,12
 498 0 498 0 481 15 c 128,-1,13
 464 30 464 30 464 69 c 0,14,15
 464 94 464 94 470 130 c 2,16,-1
 504 320 l 1,17,-1
 234 320 l 1,18,-1
 178 0 l 1,19,-1
 48 0 l 1,20,-1
 141 530 l 2,21,22
 146 558 146 558 146 575 c 0,23,24
 146 601 146 601 133.5 615.5 c 128,-1,25
 121 630 121 630 89 630 c 2,26,-1
 79 630 l 1,27,-1
 84 660 l 1,28,-1
 204 660 l 2,29,30
 243 660 243 660 260.5 645.5 c 128,-1,31
 278 631 278 631 278 593 c 0,32,33
 278 565 278 565 271 530 c 2,34,-1
 242 365 l 1,35,-1
 512 365 l 1,36,-1
 564 660 l 1,0,-1
EndSplineSet
EndChar

StartChar: I
Encoding: 73 73 60
Width: 307
Flags: W
LayerCount: 2
Fore
SplineSet
148 660 m 1,0,-1
 278 660 l 1,1,-1
 184 130 l 2,2,3
 182 118 182 118 181 107.5 c 128,-1,4
 180 97 180 97 180 87 c 0,5,6
 180 61 180 61 192 45.5 c 128,-1,7
 204 30 204 30 237 30 c 2,8,-1
 247 30 l 1,9,-1
 242 0 l 1,10,-1
 122 0 l 2,11,12
 82 0 82 0 65 15 c 128,-1,13
 48 30 48 30 48 69 c 0,14,15
 48 94 48 94 54 130 c 2,16,-1
 148 660 l 1,0,-1
EndSplineSet
EndChar

StartChar: J
Encoding: 74 74 61
Width: 280
Flags: W
LayerCount: 2
Fore
SplineSet
171 83 m 2,0,1
 160 18 160 18 143 -24 c 128,-1,2
 126 -66 126 -66 96.5 -91.5 c 128,-1,3
 67 -117 67 -117 22 -127 c 128,-1,4
 -23 -137 -23 -137 -90 -137 c 1,5,-1
 -84 -107 l 1,6,7
 -62 -104 -62 -104 -43 -94 c 128,-1,8
 -24 -84 -24 -84 -8.5 -62.5 c 128,-1,9
 7 -41 7 -41 19.5 -5.5 c 128,-1,10
 32 30 32 30 41 83 c 2,11,-1
 143 660 l 1,12,-1
 273 660 l 1,13,-1
 171 83 l 2,0,1
EndSplineSet
EndChar

StartChar: K
Encoding: 75 75 62
Width: 694
Flags: W
LayerCount: 2
Fore
SplineSet
49 0 m 1,0,1
 73 137 73 137 89.5 231.5 c 128,-1,2
 106 326 106 326 116.5 389 c 128,-1,3
 127 452 127 452 133 487.5 c 128,-1,4
 139 523 139 523 142 541.5 c 128,-1,5
 145 560 145 560 145.5 566 c 128,-1,6
 146 572 146 572 146 575 c 0,7,8
 146 601 146 601 133.5 615.5 c 128,-1,9
 121 630 121 630 89 630 c 2,10,-1
 79 630 l 1,11,-1
 84 660 l 1,12,-1
 204 660 l 2,13,14
 244 660 244 660 261.5 645 c 128,-1,15
 279 630 279 630 279 592 c 0,16,17
 279 586 279 586 278 576 c 128,-1,18
 277 566 277 566 273 540.5 c 128,-1,19
 269 515 269 515 260.5 468 c 128,-1,20
 252 421 252 421 238 340 c 1,21,-1
 449 555 l 2,22,23
 469 576 469 576 491 595 c 128,-1,24
 513 614 513 614 537 628.5 c 128,-1,25
 561 643 561 643 588 651.5 c 128,-1,26
 615 660 615 660 645 660 c 2,27,-1
 715 660 l 1,28,-1
 709 625 l 1,29,30
 652 625 652 625 603.5 610.5 c 128,-1,31
 555 596 555 596 513 554 c 2,32,-1
 332 370 l 1,33,-1
 520 130 l 2,34,35
 536 109 536 109 554.5 91 c 128,-1,36
 573 73 573 73 592 58.5 c 128,-1,37
 611 44 611 44 628.5 35 c 128,-1,38
 646 26 646 26 661 24 c 1,39,-1
 657 0 l 1,40,41
 645 -4 645 -4 625 -7 c 128,-1,42
 605 -10 605 -10 582 -10 c 0,43,44
 554 -10 554 -10 526.5 -5.5 c 128,-1,45
 499 -1 499 -1 471.5 12.5 c 128,-1,46
 444 26 444 26 416 49 c 128,-1,47
 388 72 388 72 359 110 c 2,48,-1
 228 278 l 1,49,-1
 179 0 l 1,50,-1
 49 0 l 1,51,-1
 49 0 l 1,0,1
EndSplineSet
EndChar

StartChar: L
Encoding: 76 76 63
Width: 567
Flags: W
LayerCount: 2
Fore
SplineSet
530 45 m 1,0,-1
 523 0 l 1,1,-1
 48 0 l 1,2,-1
 141 530 l 2,3,4
 146 558 146 558 146 575 c 0,5,6
 146 601 146 601 133.5 615.5 c 128,-1,7
 121 630 121 630 89 630 c 2,8,-1
 79 630 l 1,9,-1
 84 660 l 1,10,-1
 204 660 l 2,11,12
 243 660 243 660 260.5 645.5 c 128,-1,13
 278 631 278 631 278 593 c 0,14,15
 278 565 278 565 271 530 c 2,16,-1
 185 45 l 1,17,-1
 530 45 l 1,0,-1
EndSplineSet
EndChar

StartChar: M
Encoding: 77 77 64
Width: 869
Flags: W
LayerCount: 2
Fore
SplineSet
755 170 m 2,0,1
 750 140 750 140 747 115 c 128,-1,2
 744 90 744 90 744 70 c 0,3,4
 744 -10 744 -10 795 -20 c 1,5,-1
 791 -45 l 1,6,7
 700 -45 700 -45 659 -10 c 128,-1,8
 618 25 618 25 618 100 c 0,9,10
 618 116 618 116 620 133 c 128,-1,11
 622 150 622 150 625 170 c 2,12,-1
 688 524 l 1,13,-1
 377 0 l 1,14,-1
 344 0 l 1,15,-1
 171 544 l 1,16,-1
 76 0 l 1,17,-1
 26 0 l 1,18,-1
 142 660 l 1,19,-1
 264 660 l 1,20,-1
 419 169 l 1,21,-1
 711 660 l 1,22,-1
 842 660 l 1,23,-1
 755 170 l 2,0,1
EndSplineSet
EndChar

StartChar: N
Encoding: 78 78 65
Width: 695
Flags: W
LayerCount: 2
Fore
SplineSet
556 200 m 1,0,-1
 637 660 l 1,1,-1
 687 660 l 1,2,-1
 570 -3 l 1,3,-1
 524 -3 l 1,4,-1
 188 495 l 1,5,-1
 101 0 l 1,6,-1
 51 0 l 1,7,8
 75 137 75 137 92 232 c 128,-1,9
 109 327 109 327 119.5 389 c 128,-1,10
 130 451 130 451 136 486 c 128,-1,11
 142 521 142 521 145 538 c 128,-1,12
 148 555 148 555 148.5 559.5 c 128,-1,13
 149 564 149 564 149 566 c 0,14,15
 149 594 149 594 132 612 c 128,-1,16
 115 630 115 630 72 630 c 2,17,-1
 67 630 l 1,18,-1
 72 660 l 1,19,-1
 142 660 l 2,20,21
 199 660 199 660 231.5 645 c 128,-1,22
 264 630 264 630 282 600 c 1,23,-1
 556 200 l 1,0,-1
EndSplineSet
EndChar

StartChar: O
Encoding: 79 79 66
Width: 735
Flags: W
LayerCount: 2
Fore
SplineSet
323 25 m 0,0,1
 370 25 370 25 407 45 c 128,-1,2
 444 65 444 65 472.5 98 c 128,-1,3
 501 131 501 131 521 173.5 c 128,-1,4
 541 216 541 216 553.5 262 c 128,-1,5
 566 308 566 308 572 353.5 c 128,-1,6
 578 399 578 399 578 438 c 0,7,8
 578 533 578 533 540 584 c 128,-1,9
 502 635 502 635 430 635 c 0,10,11
 384 635 384 635 347 615 c 128,-1,12
 310 595 310 595 281.5 561.5 c 128,-1,13
 253 528 253 528 233 485 c 128,-1,14
 213 442 213 442 200.5 396 c 128,-1,15
 188 350 188 350 182 304.5 c 128,-1,16
 176 259 176 259 176 221 c 0,17,18
 176 127 176 127 213.5 76 c 128,-1,19
 251 25 251 25 323 25 c 0,0,1
40 256 m 0,20,21
 40 334 40 334 69 410 c 128,-1,22
 98 486 98 486 150.5 546 c 128,-1,23
 203 606 203 606 276.5 643 c 128,-1,24
 350 680 350 680 438 680 c 0,25,26
 503 680 503 680 554 659.5 c 128,-1,27
 605 639 605 639 640.5 602.5 c 128,-1,28
 676 566 676 566 694.5 515 c 128,-1,29
 713 464 713 464 713 404 c 0,30,31
 713 326 713 326 684 250 c 128,-1,32
 655 174 655 174 602.5 114 c 128,-1,33
 550 54 550 54 476.5 17 c 128,-1,34
 403 -20 403 -20 315 -20 c 0,35,36
 250 -20 250 -20 199 0.5 c 128,-1,37
 148 21 148 21 112.5 57.5 c 128,-1,38
 77 94 77 94 58.5 145 c 128,-1,39
 40 196 40 196 40 256 c 0,20,21
EndSplineSet
EndChar

StartChar: P
Encoding: 80 80 67
Width: 580
Flags: W
LayerCount: 2
Fore
SplineSet
352 620 m 0,0,1
 340 620 340 620 328 619 c 128,-1,2
 316 618 316 618 307 616 c 0,3,4
 296 614 296 614 286 613 c 1,5,-1
 232 307 l 1,6,-1
 292 307 l 2,7,8
 333 307 333 307 364 324 c 128,-1,9
 395 341 395 341 416 369.5 c 128,-1,10
 437 398 437 398 448 435 c 128,-1,11
 459 472 459 472 459 511 c 0,12,13
 459 542 459 542 450 563 c 128,-1,14
 441 584 441 584 426 597 c 128,-1,15
 411 610 411 610 391.5 615 c 128,-1,16
 372 620 372 620 352 620 c 0,0,1
359 660 m 2,17,18
 390 660 390 660 431.5 655 c 128,-1,19
 473 650 473 650 510 633.5 c 128,-1,20
 547 617 547 617 572.5 585.5 c 128,-1,21
 598 554 598 554 598 500 c 0,22,23
 598 444 598 444 574.5 400.5 c 128,-1,24
 551 357 551 357 512 327.5 c 128,-1,25
 473 298 473 298 423 282.5 c 128,-1,26
 373 267 373 267 320 267 c 2,27,-1
 225 267 l 1,28,-1
 178 0 l 1,29,-1
 48 0 l 1,30,31
 72 137 72 137 88.5 231.5 c 128,-1,32
 105 326 105 326 116 389 c 128,-1,33
 127 452 127 452 133 487.5 c 128,-1,34
 139 523 139 523 142 541.5 c 128,-1,35
 145 560 145 560 145.5 566 c 128,-1,36
 146 572 146 572 146 575 c 0,37,38
 146 601 146 601 133.5 615.5 c 128,-1,39
 121 630 121 630 89 630 c 2,40,-1
 79 630 l 1,41,-1
 84 660 l 1,42,-1
 359 660 l 2,17,18
EndSplineSet
EndChar

StartChar: Q
Encoding: 81 81 68
Width: 737
Flags: W
LayerCount: 2
Fore
SplineSet
41 256 m 0,0,1
 41 334 41 334 70 410 c 128,-1,2
 99 486 99 486 151.5 546 c 128,-1,3
 204 606 204 606 277.5 643 c 128,-1,4
 351 680 351 680 439 680 c 0,5,6
 504 680 504 680 555 659.5 c 128,-1,7
 606 639 606 639 641.5 602.5 c 128,-1,8
 677 566 677 566 695.5 515 c 128,-1,9
 714 464 714 464 714 404 c 0,10,11
 714 336 714 336 693 271.5 c 128,-1,12
 672 207 672 207 633 152.5 c 128,-1,13
 594 98 594 98 538.5 56 c 128,-1,14
 483 14 483 14 413 -7 c 1,15,16
 419 -43 419 -43 439.5 -74.5 c 128,-1,17
 460 -106 460 -106 488 -129.5 c 128,-1,18
 516 -153 516 -153 549 -166 c 128,-1,19
 582 -179 582 -179 613 -179 c 1,20,-1
 608 -205 l 1,21,22
 551 -205 551 -205 495.5 -194.5 c 128,-1,23
 440 -184 440 -184 390 -160 c 128,-1,24
 340 -136 340 -136 295.5 -98 c 128,-1,25
 251 -60 251 -60 215 -4 c 1,26,27
 173 9 173 9 141 33.5 c 128,-1,28
 109 58 109 58 86.5 92 c 128,-1,29
 64 126 64 126 52.5 167.5 c 128,-1,30
 41 209 41 209 41 256 c 0,0,1
324 25 m 0,31,32
 371 25 371 25 408 45 c 128,-1,33
 445 65 445 65 473.5 98 c 128,-1,34
 502 131 502 131 522 173.5 c 128,-1,35
 542 216 542 216 554.5 262 c 128,-1,36
 567 308 567 308 573 353.5 c 128,-1,37
 579 399 579 399 579 438 c 0,38,39
 579 533 579 533 541 584 c 128,-1,40
 503 635 503 635 431 635 c 0,41,42
 385 635 385 635 348 615 c 128,-1,43
 311 595 311 595 282.5 561.5 c 128,-1,44
 254 528 254 528 234 485 c 128,-1,45
 214 442 214 442 201.5 396 c 128,-1,46
 189 350 189 350 183 304.5 c 128,-1,47
 177 259 177 259 177 221 c 0,48,49
 177 127 177 127 214.5 76 c 128,-1,50
 252 25 252 25 324 25 c 0,31,32
EndSplineSet
EndChar

StartChar: R
Encoding: 82 82 69
Width: 616
Flags: W
LayerCount: 2
Fore
SplineSet
353 620 m 0,0,1
 341 620 341 620 329 619 c 128,-1,2
 317 618 317 618 308 616 c 0,3,4
 297 614 297 614 287 613 c 1,5,-1
 239 342 l 1,6,-1
 299 342 l 2,7,8
 334 342 334 342 364 355.5 c 128,-1,9
 394 369 394 369 415.5 392.5 c 128,-1,10
 437 416 437 416 449 448 c 128,-1,11
 461 480 461 480 461 516 c 0,12,13
 461 545 461 545 451.5 565 c 128,-1,14
 442 585 442 585 426.5 597 c 128,-1,15
 411 609 411 609 391.5 614.5 c 128,-1,16
 372 620 372 620 353 620 c 0,0,1
272 302 m 1,17,-1
 232 302 l 1,18,-1
 179 0 l 1,19,-1
 48 0 l 1,20,21
 72 137 72 137 88.5 231.5 c 128,-1,22
 105 326 105 326 116 389 c 128,-1,23
 127 452 127 452 133 487.5 c 128,-1,24
 139 523 139 523 142 541.5 c 128,-1,25
 145 560 145 560 145.5 566 c 128,-1,26
 146 572 146 572 146 575 c 0,27,28
 146 601 146 601 133.5 615.5 c 128,-1,29
 121 630 121 630 89 630 c 2,30,-1
 79 630 l 1,31,-1
 84 660 l 1,32,-1
 360 660 l 2,33,34
 393 660 393 660 434.5 655.5 c 128,-1,35
 476 651 476 651 513 635 c 128,-1,36
 550 619 550 619 575 589.5 c 128,-1,37
 600 560 600 560 600 511 c 0,38,39
 600 469 600 469 584.5 436 c 128,-1,40
 569 403 569 403 542.5 378.5 c 128,-1,41
 516 354 516 354 480.5 337 c 128,-1,42
 445 320 445 320 406 310 c 1,43,-1
 480 135 l 2,44,45
 493 103 493 103 507.5 82.5 c 128,-1,46
 522 62 522 62 535.5 50 c 128,-1,47
 549 38 549 38 561.5 32.5 c 128,-1,48
 574 27 574 27 585 25 c 1,49,-1
 581 0 l 1,50,51
 573 -4 573 -4 551.5 -7 c 128,-1,52
 530 -10 530 -10 511 -10 c 0,53,54
 485 -10 485 -10 462 -3 c 128,-1,55
 439 4 439 4 418 21 c 128,-1,56
 397 38 397 38 378.5 66 c 128,-1,57
 360 94 360 94 342 135 c 2,58,-1
 272 302 l 1,17,-1
EndSplineSet
EndChar

StartChar: S
Encoding: 83 83 70
Width: 562
Flags: W
LayerCount: 2
Fore
SplineSet
222 -17 m 0,0,1
 183 -17 183 -17 146 -9.5 c 128,-1,2
 109 -2 109 -2 80 11.5 c 128,-1,3
 51 25 51 25 33.5 45 c 128,-1,4
 16 65 16 65 16 91 c 0,5,6
 16 92 16 92 16.5 95.5 c 128,-1,7
 17 99 17 99 19 111.5 c 128,-1,8
 21 124 21 124 25 149.5 c 128,-1,9
 29 175 29 175 37 220 c 1,10,-1
 65 220 l 1,11,-1
 65 213 l 2,12,13
 65 113 65 113 105 70.5 c 128,-1,14
 145 28 145 28 228 28 c 0,15,16
 253 28 253 28 279 35 c 128,-1,17
 305 42 305 42 326 56 c 128,-1,18
 347 70 347 70 360.5 92 c 128,-1,19
 374 114 374 114 374 144 c 0,20,21
 374 179 374 179 351.5 203.5 c 128,-1,22
 329 228 329 228 291 254 c 2,23,-1
 181 328 l 1,24,25
 130 361 130 361 108 395.5 c 128,-1,26
 86 430 86 430 86 472 c 0,27,28
 86 521 86 521 107.5 559.5 c 128,-1,29
 129 598 129 598 165 624.5 c 128,-1,30
 201 651 201 651 247.5 664.5 c 128,-1,31
 294 678 294 678 343 678 c 0,32,33
 382 678 382 678 419 670.5 c 128,-1,34
 456 663 456 663 485 649.5 c 128,-1,35
 514 636 514 636 531.5 615.5 c 128,-1,36
 549 595 549 595 549 570 c 0,37,38
 549 568 549 568 548.5 565 c 128,-1,39
 548 562 548 562 546 549.5 c 128,-1,40
 544 537 544 537 539.5 511.5 c 128,-1,41
 535 486 535 486 527 441 c 1,42,-1
 499 441 l 1,43,-1
 499 452 l 2,44,45
 499 550 499 550 459.5 591.5 c 128,-1,46
 420 633 420 633 346 633 c 0,47,48
 322 633 322 633 297.5 625.5 c 128,-1,49
 273 618 273 618 253.5 603.5 c 128,-1,50
 234 589 234 589 222 567.5 c 128,-1,51
 210 546 210 546 210 518 c 0,52,53
 210 484 210 484 233 462 c 128,-1,54
 256 440 256 440 294 414 c 2,55,-1
 405 341 l 2,56,57
 457 306 457 306 482.5 273.5 c 128,-1,58
 508 241 508 241 508 198 c 0,59,60
 508 144 508 144 482.5 103.5 c 128,-1,61
 457 63 457 63 416.5 36.5 c 128,-1,62
 376 10 376 10 325 -3.5 c 128,-1,63
 274 -17 274 -17 222 -17 c 0,0,1
EndSplineSet
EndChar

StartChar: T
Encoding: 84 84 71
Width: 577
Flags: W
LayerCount: 2
Fore
SplineSet
637 660 m 1,0,-1
 629 615 l 1,1,-1
 420 615 l 1,2,-1
 312 0 l 1,3,-1
 182 0 l 1,4,-1
 290 615 l 1,5,-1
 219 615 l 2,6,7
 166 615 166 615 130.5 588.5 c 128,-1,8
 95 562 95 562 83 495 c 1,9,-1
 53 495 l 1,10,-1
 68 580 l 2,11,12
 71 595 71 595 77 609.5 c 128,-1,13
 83 624 83 624 94 635 c 128,-1,14
 105 646 105 646 123 653 c 128,-1,15
 141 660 141 660 167 660 c 2,16,-1
 637 660 l 1,0,-1
EndSplineSet
EndChar

StartChar: U
Encoding: 85 85 72
Width: 697
Flags: W
LayerCount: 2
Fore
SplineSet
268 530 m 0,0,1
 255 454 255 454 246 400 c 128,-1,2
 237 346 237 346 231 308.5 c 128,-1,3
 225 271 225 271 221 247.5 c 128,-1,4
 217 224 217 224 215.5 210 c 128,-1,5
 214 196 214 196 213.5 188 c 128,-1,6
 213 180 213 180 213 174 c 0,7,8
 213 105 213 105 241 67.5 c 128,-1,9
 269 30 269 30 332 30 c 0,10,11
 387 30 387 30 428.5 45.5 c 128,-1,12
 470 61 470 61 500 92.5 c 128,-1,13
 530 124 530 124 549 172.5 c 128,-1,14
 568 221 568 221 580 288 c 2,15,-1
 646 660 l 1,16,-1
 696 660 l 1,17,-1
 630 288 l 2,18,19
 618 217 618 217 595 162 c 128,-1,20
 572 107 572 107 534.5 68.5 c 128,-1,21
 497 30 497 30 442.5 10 c 128,-1,22
 388 -10 388 -10 313 -10 c 0,23,24
 195 -10 195 -10 140.5 41 c 128,-1,25
 86 92 86 92 86 195 c 0,26,27
 86 205 86 205 87 220 c 128,-1,28
 88 235 88 235 93.5 269.5 c 128,-1,29
 99 304 99 304 109.5 365 c 128,-1,30
 120 426 120 426 138 530 c 0,31,32
 143 558 143 558 143 575 c 0,33,34
 143 601 143 601 130.5 615.5 c 128,-1,35
 118 630 118 630 86 630 c 1,36,-1
 91 660 l 1,37,-1
 201 660 l 2,38,39
 240 660 240 660 257.5 645.5 c 128,-1,40
 275 631 275 631 275 593 c 0,41,42
 275 565 275 565 268 530 c 0,0,1
EndSplineSet
EndChar

StartChar: V
Encoding: 86 86 73
Width: 637
Flags: W
LayerCount: 2
Fore
SplineSet
109 543 m 2,0,1
 95 599 95 599 76.5 621.5 c 128,-1,2
 58 644 58 644 29 648 c 1,3,-1
 32 668 l 1,4,5
 36 668 36 668 52 669 c 128,-1,6
 68 670 68 670 75 670 c 0,7,8
 101 670 101 670 127.5 666 c 128,-1,9
 154 662 154 662 178 649 c 128,-1,10
 202 636 202 636 220.5 611 c 128,-1,11
 239 586 239 586 250 543 c 2,12,-1
 342 169 l 1,13,-1
 640 660 l 1,14,-1
 691 660 l 1,15,-1
 285 -10 l 1,16,-1
 245 -10 l 1,17,-1
 109 543 l 2,0,1
EndSplineSet
EndChar

StartChar: W
Encoding: 87 87 74
Width: 905
Flags: W
LayerCount: 2
Fore
SplineSet
644 179 m 1,0,-1
 900 660 l 1,1,-1
 948 660 l 1,2,-1
 593 -9 l 1,3,-1
 553 -9 l 1,4,-1
 468 383 l 1,5,-1
 262 -9 l 1,6,-1
 222 -9 l 1,7,-1
 103 543 l 2,8,9
 91 600 91 600 71.5 622 c 128,-1,10
 52 644 52 644 23 648 c 1,11,-1
 26 668 l 1,12,13
 30 668 30 668 46 669 c 128,-1,14
 62 670 62 670 69 670 c 0,15,16
 95 670 95 670 122 666.5 c 128,-1,17
 149 663 149 663 173 650 c 128,-1,18
 197 637 197 637 216 611.5 c 128,-1,19
 235 586 235 586 244 543 c 2,20,-1
 318 198 l 1,21,-1
 454 454 l 1,22,-1
 434 543 l 2,23,24
 422 600 422 600 399 622 c 128,-1,25
 376 644 376 644 347 648 c 1,26,-1
 350 668 l 1,27,28
 354 668 354 668 368.5 669 c 128,-1,29
 383 670 383 670 390 670 c 0,30,31
 416 670 416 670 443.5 666.5 c 128,-1,32
 471 663 471 663 495 650 c 128,-1,33
 519 637 519 637 537.5 611.5 c 128,-1,34
 556 586 556 586 565 543 c 2,35,-1
 644 179 l 1,0,-1
EndSplineSet
EndChar

StartChar: X
Encoding: 88 88 75
Width: 645
Flags: W
LayerCount: 2
Fore
SplineSet
371 416 m 1,0,-1
 607 660 l 1,1,-1
 672 660 l 1,2,-1
 392 371 l 1,3,-1
 506 130 l 2,4,5
 515 111 515 111 528 92 c 128,-1,6
 541 73 541 73 556 57.5 c 128,-1,7
 571 42 571 42 587.5 32 c 128,-1,8
 604 22 604 22 621 20 c 1,9,-1
 618 0 l 1,10,-1
 508 0 l 2,11,12
 480 0 480 0 457.5 10 c 128,-1,13
 435 20 435 20 417 36 c 128,-1,14
 399 52 399 52 386 71.5 c 128,-1,15
 373 91 373 91 364 110 c 2,16,-1
 290 266 l 1,17,-1
 33 0 l 1,18,-1
 -32 0 l 1,19,-1
 268 311 l 1,20,-1
 165 530 l 2,21,22
 156 549 156 549 143 568 c 128,-1,23
 130 587 130 587 115 602.5 c 128,-1,24
 100 618 100 618 83 628 c 128,-1,25
 66 638 66 638 50 640 c 1,26,-1
 54 660 l 1,27,-1
 164 660 l 2,28,29
 192 660 192 660 214.5 650 c 128,-1,30
 237 640 237 640 254.5 624 c 128,-1,31
 272 608 272 608 285 588.5 c 128,-1,32
 298 569 298 569 307 550 c 2,33,-1
 371 416 l 1,0,-1
EndSplineSet
EndChar

StartChar: Y
Encoding: 89 89 76
Width: 639
Flags: W
LayerCount: 2
Fore
SplineSet
385 345 m 1,0,-1
 635 660 l 1,1,-1
 700 660 l 1,2,-1
 408 291 l 1,3,-1
 357 0 l 1,4,-1
 227 0 l 1,5,-1
 273 264 l 1,6,-1
 143 530 l 2,7,8
 134 549 134 549 121 568 c 128,-1,9
 108 587 108 587 93 602.5 c 128,-1,10
 78 618 78 618 61.5 628 c 128,-1,11
 45 638 45 638 29 640 c 1,12,-1
 33 660 l 1,13,-1
 142 660 l 2,14,15
 170 660 170 660 192.5 650 c 128,-1,16
 215 640 215 640 232.5 624 c 128,-1,17
 250 608 250 608 263 588.5 c 128,-1,18
 276 569 276 569 285 550 c 2,19,-1
 385 345 l 1,0,-1
EndSplineSet
EndChar

StartChar: Z
Encoding: 90 90 77
Width: 599
Flags: W
LayerCount: 2
Fore
SplineSet
649 660 m 1,0,-1
 148 45 l 1,1,-1
 535 45 l 1,2,-1
 528 0 l 1,3,-1
 -17 0 l 1,4,-1
 -12 32 l 1,5,-1
 463 616 l 1,6,-1
 246 616 l 2,7,8
 193 616 193 616 157.5 589.5 c 128,-1,9
 122 563 122 563 110 495 c 1,10,-1
 80 495 l 1,11,-1
 95 580 l 2,12,13
 98 595 98 595 104 609.5 c 128,-1,14
 110 624 110 624 121 635 c 128,-1,15
 132 646 132 646 150 653 c 128,-1,16
 168 660 168 660 194 660 c 2,17,-1
 649 660 l 1,0,-1
EndSplineSet
EndChar

StartChar: bracketleft
Encoding: 91 91 78
Width: 332
Flags: W
LayerCount: 2
Fore
SplineSet
228 -200 m 1,0,-1
 -17 -200 l 1,1,-1
 138 680 l 1,2,-1
 383 680 l 1,3,-1
 375 635 l 1,4,-1
 250 635 l 1,5,-1
 111 -155 l 1,6,-1
 236 -155 l 1,7,-1
 228 -200 l 1,0,-1
EndSplineSet
EndChar

StartChar: backslash
Encoding: 92 92 79
Width: 475
Flags: W
LayerCount: 2
Fore
SplineSet
293 0 m 1,0,-1
 88 660 l 1,1,-1
 200 660 l 1,2,-1
 405 0 l 1,3,-1
 293 0 l 1,0,-1
EndSplineSet
EndChar

StartChar: bracketright
Encoding: 93 93 80
Width: 332
Flags: W
LayerCount: 2
Fore
SplineSet
-56 -155 m 1,0,-1
 68 -155 l 1,1,-1
 207 635 l 1,2,-1
 82 635 l 1,3,-1
 90 680 l 1,4,-1
 335 680 l 1,5,-1
 180 -200 l 1,6,-1
 -64 -200 l 1,7,-1
 -56 -155 l 1,0,-1
EndSplineSet
EndChar

StartChar: asciicircum
Encoding: 94 94 81
Width: 514
Flags: W
LayerCount: 2
Fore
SplineSet
348 680 m 1,0,-1
 502 330 l 1,1,-1
 404 330 l 1,2,-1
 305 557 l 1,3,-1
 126 330 l 1,4,-1
 28 330 l 1,5,-1
 304 680 l 1,6,-1
 348 680 l 1,0,-1
EndSplineSet
EndChar

StartChar: underscore
Encoding: 95 95 82
Width: 434
Flags: W
LayerCount: 2
Fore
SplineSet
369 -70 m 1,0,-1
 -51 -70 l 1,1,-1
 -38 0 l 1,2,-1
 382 0 l 1,3,-1
 369 -70 l 1,0,-1
EndSplineSet
EndChar

StartChar: grave
Encoding: 96 96 83
Width: 227
Flags: W
LayerCount: 2
Fore
SplineSet
89 680 m 1,0,-1
 214 680 l 1,1,-1
 241 477 l 1,2,-1
 167 477 l 1,3,-1
 89 680 l 1,0,-1
EndSplineSet
EndChar

StartChar: a
Encoding: 97 97 84
Width: 549
Flags: W
LayerCount: 2
Fore
SplineSet
295 435 m 0,0,1
 269 435 269 435 248.5 419 c 128,-1,2
 228 403 228 403 212.5 378 c 128,-1,3
 197 353 197 353 186 321 c 128,-1,4
 175 289 175 289 168 256.5 c 128,-1,5
 161 224 161 224 158 194.5 c 128,-1,6
 155 165 155 165 155 144 c 0,7,8
 155 96 155 96 171 65.5 c 128,-1,9
 187 35 187 35 225 35 c 0,10,11
 248 35 248 35 266 45 c 128,-1,12
 284 55 284 55 298 67 c 0,13,14
 314 81 314 81 326 100 c 1,15,-1
 374 370 l 1,16,17
 368 388 368 388 357 402 c 0,18,19
 348 414 348 414 333 424.5 c 128,-1,20
 318 435 318 435 295 435 c 0,0,1
283 480 m 0,21,22
 313 480 313 480 333 471.5 c 128,-1,23
 353 463 353 463 365 452 c 0,24,25
 379 440 379 440 388 425 c 1,26,-1
 393 425 l 1,27,-1
 436 470 l 1,28,-1
 521 470 l 1,29,-1
 439 0 l 1,30,-1
 354 0 l 1,31,-1
 326 45 l 1,32,-1
 321 45 l 1,33,34
 307 29 307 29 289 17 c 0,35,36
 273 6 273 6 250 -2 c 128,-1,37
 227 -10 227 -10 197 -10 c 0,38,39
 152 -10 152 -10 119.5 4 c 128,-1,40
 87 18 87 18 65.5 42 c 128,-1,41
 44 66 44 66 33.5 99 c 128,-1,42
 23 132 23 132 23 170 c 0,43,44
 23 222 23 222 40.5 277 c 128,-1,45
 58 332 58 332 91 377 c 128,-1,46
 124 422 124 422 172.5 451 c 128,-1,47
 221 480 221 480 283 480 c 0,21,22
EndSplineSet
EndChar

StartChar: b
Encoding: 98 98 85
Width: 550
Flags: W
LayerCount: 2
Fore
SplineSet
160 100 m 1,0,1
 166 81 166 81 177 67 c 0,2,3
 186 55 186 55 201 45 c 128,-1,4
 216 35 216 35 239 35 c 0,5,6
 266 35 266 35 287 50.5 c 128,-1,7
 308 66 308 66 323 91.5 c 128,-1,8
 338 117 338 117 349 148.5 c 128,-1,9
 360 180 360 180 366 212.5 c 128,-1,10
 372 245 372 245 375 274.5 c 128,-1,11
 378 304 378 304 378 325 c 0,12,13
 378 376 378 376 361.5 405.5 c 128,-1,14
 345 435 345 435 304 435 c 0,15,16
 285 435 285 435 268.5 430 c 128,-1,17
 252 425 252 425 240 420 c 0,18,19
 226 413 226 413 214 405 c 1,20,-1
 160 100 l 1,0,1
13 0 m 1,21,22
 37 137 37 137 53.5 231.5 c 128,-1,23
 70 326 70 326 81 389 c 128,-1,24
 92 452 92 452 98 487.5 c 128,-1,25
 104 523 104 523 107 541.5 c 128,-1,26
 110 560 110 560 110.5 566 c 128,-1,27
 111 572 111 572 111 575 c 0,28,29
 111 601 111 601 98.5 615.5 c 128,-1,30
 86 630 86 630 54 630 c 2,31,-1
 44 630 l 1,32,-1
 49 660 l 1,33,-1
 169 660 l 2,34,35
 208 660 208 660 225.5 645.5 c 128,-1,36
 243 631 243 631 243 593 c 0,37,38
 243 587 243 587 242.5 578.5 c 128,-1,39
 242 570 242 570 239.5 554.5 c 128,-1,40
 237 539 237 539 233 514 c 128,-1,41
 229 489 229 489 222 450 c 1,42,43
 236 458 236 458 253 465 c 0,44,45
 267 470 267 470 287 475 c 128,-1,46
 307 480 307 480 332 480 c 0,47,48
 378 480 378 480 411.5 466.5 c 128,-1,49
 445 453 445 453 467 428.5 c 128,-1,50
 489 404 489 404 499.5 370.5 c 128,-1,51
 510 337 510 337 510 297 c 0,52,53
 510 244 510 244 493 189.5 c 128,-1,54
 476 135 476 135 443.5 90.5 c 128,-1,55
 411 46 411 46 362.5 18 c 128,-1,56
 314 -10 314 -10 251 -10 c 0,57,58
 221 -10 221 -10 200.5 -2 c 128,-1,59
 180 6 180 6 168 17 c 1,60,61
 153 29 153 29 145 45 c 1,62,-1
 140 45 l 1,63,-1
 98 0 l 1,64,-1
 13 0 l 1,21,22
EndSplineSet
EndChar

StartChar: c
Encoding: 99 99 86
Width: 498
Flags: W
LayerCount: 2
Fore
SplineSet
320 435 m 0,0,1
 275 435 275 435 244 405.5 c 128,-1,2
 213 376 213 376 193.5 333 c 128,-1,3
 174 290 174 290 165.5 242 c 128,-1,4
 157 194 157 194 157 157 c 0,5,6
 157 35 157 35 255 35 c 0,7,8
 307 35 307 35 343.5 59 c 128,-1,9
 380 83 380 83 412 118 c 1,10,-1
 439 95 l 1,11,12
 425 78 425 78 406.5 59.5 c 128,-1,13
 388 41 388 41 362.5 25.5 c 128,-1,14
 337 10 337 10 303.5 0 c 128,-1,15
 270 -10 270 -10 227 -10 c 0,16,17
 175 -10 175 -10 137 4.5 c 128,-1,18
 99 19 99 19 74 44.5 c 128,-1,19
 49 70 49 70 37 104.5 c 128,-1,20
 25 139 25 139 25 180 c 0,21,22
 25 241 25 241 45.5 295.5 c 128,-1,23
 66 350 66 350 103.5 391 c 128,-1,24
 141 432 141 432 194 456 c 128,-1,25
 247 480 247 480 313 480 c 0,26,27
 334 480 334 480 362 478.5 c 128,-1,28
 390 477 390 477 415 469.5 c 128,-1,29
 440 462 440 462 457.5 446 c 128,-1,30
 475 430 475 430 475 400 c 0,31,32
 475 383 475 383 471.5 359.5 c 128,-1,33
 468 336 468 336 462 305 c 1,34,-1
 432 305 l 1,35,36
 433 311 433 311 433 317 c 128,-1,37
 433 323 433 323 433 329 c 0,38,39
 433 382 433 382 403.5 408.5 c 128,-1,40
 374 435 374 435 320 435 c 0,0,1
EndSplineSet
EndChar

StartChar: d
Encoding: 100 100 87
Width: 550
Flags: W
LayerCount: 2
Fore
SplineSet
381 405 m 1,0,1
 372 413 372 413 360 420 c 1,2,3
 349 425 349 425 334.5 430 c 128,-1,4
 320 435 320 435 301 435 c 0,5,6
 259 435 259 435 231 402 c 128,-1,7
 203 369 203 369 186.5 322.5 c 128,-1,8
 170 276 170 276 163.5 226.5 c 128,-1,9
 157 177 157 177 157 144 c 0,10,11
 157 94 157 94 172.5 64.5 c 128,-1,12
 188 35 188 35 226 35 c 0,13,14
 249 35 249 35 267 45 c 128,-1,15
 285 55 285 55 299 67 c 0,16,17
 315 81 315 81 327 100 c 1,18,-1
 381 405 l 1,0,1
389 450 m 1,19,20
 395 486 395 486 399 508.5 c 128,-1,21
 403 531 403 531 405 544 c 128,-1,22
 407 557 407 557 407.5 563.5 c 128,-1,23
 408 570 408 570 408 575 c 0,24,25
 408 601 408 601 395.5 615.5 c 128,-1,26
 383 630 383 630 351 630 c 2,27,-1
 341 630 l 1,28,-1
 346 660 l 1,29,-1
 466 660 l 2,30,31
 505 660 505 660 522.5 645.5 c 128,-1,32
 540 631 540 631 540 593 c 0,33,34
 540 589 540 589 539.5 582 c 128,-1,35
 539 575 539 575 536 555 c 128,-1,36
 533 535 533 535 527 498 c 128,-1,37
 521 461 521 461 509.5 396.5 c 128,-1,38
 498 332 498 332 481 235.5 c 128,-1,39
 464 139 464 139 440 0 c 1,40,-1
 355 0 l 1,41,-1
 327 45 l 1,42,-1
 322 45 l 1,43,44
 308 29 308 29 290 17 c 0,45,46
 274 6 274 6 251 -2 c 128,-1,47
 228 -10 228 -10 198 -10 c 0,48,49
 154 -10 154 -10 121.5 3.5 c 128,-1,50
 89 17 89 17 67.5 41.5 c 128,-1,51
 46 66 46 66 35.5 99.5 c 128,-1,52
 25 133 25 133 25 173 c 0,53,54
 25 227 25 227 42 281.5 c 128,-1,55
 59 336 59 336 92.5 380.5 c 128,-1,56
 126 425 126 425 175.5 452.5 c 128,-1,57
 225 480 225 480 289 480 c 0,58,59
 313 480 313 480 331.5 475 c 128,-1,60
 350 470 350 470 363 465 c 0,61,62
 378 458 378 458 389 450 c 1,19,20
EndSplineSet
EndChar

StartChar: e
Encoding: 101 101 88
Width: 508
Flags: W
LayerCount: 2
Fore
SplineSet
272 245 m 2,0,1
 292 245 292 245 307.5 256 c 128,-1,2
 323 267 323 267 333.5 284 c 128,-1,3
 344 301 344 301 349.5 321.5 c 128,-1,4
 355 342 355 342 355 362 c 0,5,6
 355 400 355 400 336.5 417.5 c 128,-1,7
 318 435 318 435 295 435 c 0,8,9
 274 435 274 435 255 425.5 c 128,-1,10
 236 416 236 416 219.5 393.5 c 128,-1,11
 203 371 203 371 189.5 335 c 128,-1,12
 176 299 176 299 167 245 c 1,13,-1
 272 245 l 2,0,1
490 358 m 0,14,15
 490 315 490 315 470 285 c 128,-1,16
 450 255 450 255 417.5 236 c 128,-1,17
 385 217 385 217 344.5 208.5 c 128,-1,18
 304 200 304 200 264 200 c 2,19,-1
 159 200 l 1,20,21
 153 168 153 168 153 144 c 0,22,23
 153 89 153 89 176.5 62 c 128,-1,24
 200 35 200 35 240 35 c 0,25,26
 292 35 292 35 328.5 59 c 128,-1,27
 365 83 365 83 397 118 c 1,28,-1
 424 95 l 1,29,30
 410 78 410 78 391.5 59.5 c 128,-1,31
 373 41 373 41 348 25.5 c 128,-1,32
 323 10 323 10 290.5 0 c 128,-1,33
 258 -10 258 -10 217 -10 c 0,34,35
 171 -10 171 -10 135.5 4 c 128,-1,36
 100 18 100 18 75.5 43.5 c 128,-1,37
 51 69 51 69 38 104.5 c 128,-1,38
 25 140 25 140 25 182 c 0,39,40
 25 239 25 239 44.5 292.5 c 128,-1,41
 64 346 64 346 100 387.5 c 128,-1,42
 136 429 136 429 187.5 454.5 c 128,-1,43
 239 480 239 480 303 480 c 0,44,45
 392 480 392 480 441 447.5 c 128,-1,46
 490 415 490 415 490 358 c 0,14,15
EndSplineSet
EndChar

StartChar: f
Encoding: 102 102 89
Width: 345
Flags: W
LayerCount: 2
Fore
SplineSet
99 425 m 1,0,-1
 39 425 l 1,1,-1
 47 470 l 1,2,-1
 107 470 l 1,3,-1
 112 497 l 2,4,5
 127 582 127 582 183.5 626 c 128,-1,6
 240 670 240 670 338 670 c 0,7,8
 364 670 364 670 389 665.5 c 128,-1,9
 414 661 414 661 426 653 c 0,10,11
 449 638 449 638 457 610 c 1,12,-1
 411 575 l 1,13,14
 400 598 400 598 380.5 611.5 c 128,-1,15
 361 625 361 625 335 625 c 0,16,17
 301 625 301 625 278 597.5 c 128,-1,18
 255 570 255 570 242 497 c 2,19,-1
 237 470 l 1,20,-1
 367 470 l 1,21,-1
 359 425 l 1,22,-1
 229 425 l 1,23,-1
 159 25 l 2,24,25
 148 -37 148 -37 130 -78.5 c 128,-1,26
 112 -120 112 -120 82 -144.5 c 128,-1,27
 52 -169 52 -169 8.5 -179.5 c 128,-1,28
 -35 -190 -35 -190 -96 -190 c 1,29,-1
 -92 -165 l 1,30,31
 -69 -161 -69 -161 -50.5 -150 c 128,-1,32
 -32 -139 -32 -139 -17.5 -117 c 128,-1,33
 -3 -95 -3 -95 8.5 -60.5 c 128,-1,34
 20 -26 20 -26 29 25 c 2,35,-1
 99 425 l 1,0,-1
EndSplineSet
EndChar

StartChar: g
Encoding: 103 103 90
Width: 550
Flags: W
LayerCount: 2
Fore
SplineSet
375 370 m 1,0,1
 369 388 369 388 358 402 c 0,2,3
 349 414 349 414 334 424.5 c 128,-1,4
 319 435 319 435 296 435 c 0,5,6
 269 435 269 435 248.5 420.5 c 128,-1,7
 228 406 228 406 213 382 c 128,-1,8
 198 358 198 358 187.5 328 c 128,-1,9
 177 298 177 298 170.5 267.5 c 128,-1,10
 164 237 164 237 161.5 208 c 128,-1,11
 159 179 159 179 159 158 c 0,12,13
 159 110 159 110 176 82.5 c 128,-1,14
 193 55 193 55 234 55 c 0,15,16
 253 55 253 55 269.5 59.5 c 128,-1,17
 286 64 286 64 298 70 c 0,18,19
 312 76 312 76 324 85 c 1,20,-1
 375 370 l 1,0,1
446 35 m 2,21,22
 437 -18 437 -18 414 -61 c 128,-1,23
 391 -104 391 -104 356.5 -135 c 128,-1,24
 322 -166 322 -166 276 -183 c 128,-1,25
 230 -200 230 -200 174 -200 c 0,26,27
 133 -200 133 -200 104 -190 c 128,-1,28
 75 -180 75 -180 55 -164.5 c 128,-1,29
 35 -149 35 -149 23 -130.5 c 128,-1,30
 11 -112 11 -112 3 -95 c 1,31,-1
 38 -72 l 1,32,33
 48 -89 48 -89 59.5 -104.5 c 128,-1,34
 71 -120 71 -120 85.5 -131 c 128,-1,35
 100 -142 100 -142 119 -148.5 c 128,-1,36
 138 -155 138 -155 162 -155 c 0,37,38
 216 -155 216 -155 257 -110.5 c 128,-1,39
 298 -66 298 -66 316 35 c 1,40,-1
 317 40 l 1,41,42
 304 31 304 31 286 25 c 0,43,44
 271 19 271 19 250.5 14.5 c 128,-1,45
 230 10 230 10 206 10 c 0,46,47
 114 10 114 10 70.5 58.5 c 128,-1,48
 27 107 27 107 27 185 c 0,49,50
 27 237 27 237 44 290 c 128,-1,51
 61 343 61 343 93.5 385 c 128,-1,52
 126 427 126 427 174 453.5 c 128,-1,53
 222 480 222 480 284 480 c 0,54,55
 314 480 314 480 334 471.5 c 128,-1,56
 354 463 354 463 366 452 c 0,57,58
 380 440 380 440 389 425 c 1,59,-1
 394 425 l 1,60,-1
 437 470 l 1,61,-1
 522 470 l 1,62,-1
 446 35 l 2,21,22
EndSplineSet
EndChar

StartChar: h
Encoding: 104 104 91
Width: 546
Flags: W
LayerCount: 2
Fore
SplineSet
105 530 m 2,0,1
 110 558 110 558 110 575 c 0,2,3
 110 601 110 601 97.5 615.5 c 128,-1,4
 85 630 85 630 53 630 c 2,5,-1
 43 630 l 1,6,-1
 48 660 l 1,7,-1
 168 660 l 2,8,9
 207 660 207 660 224.5 645.5 c 128,-1,10
 242 631 242 631 242 593 c 0,11,12
 242 565 242 565 235 530 c 2,13,-1
 219 442 l 1,14,15
 235 452 235 452 253 461 c 0,16,17
 269 468 269 468 290 474 c 128,-1,18
 311 480 311 480 336 480 c 0,19,20
 366 480 366 480 395.5 474 c 128,-1,21
 425 468 425 468 447.5 452.5 c 128,-1,22
 470 437 470 437 484 410.5 c 128,-1,23
 498 384 498 384 498 344 c 0,24,25
 498 340 498 340 497.5 335 c 128,-1,26
 497 330 497 330 495.5 318 c 128,-1,27
 494 306 494 306 490.5 284.5 c 128,-1,28
 487 263 487 263 481 226 c 128,-1,29
 475 189 475 189 465.5 133.5 c 128,-1,30
 456 78 456 78 442 0 c 1,31,-1
 312 0 l 1,32,33
 332 116 332 116 343.5 182 c 128,-1,34
 355 248 355 248 360.5 281 c 128,-1,35
 366 314 366 314 367 324.5 c 128,-1,36
 368 335 368 335 368 340 c 0,37,38
 368 390 368 390 347 410 c 128,-1,39
 326 430 326 430 297 430 c 0,40,41
 280 430 280 430 264.5 424.5 c 128,-1,42
 249 419 249 419 237 412 c 0,43,44
 223 404 223 404 211 395 c 1,45,-1
 142 0 l 1,46,-1
 12 0 l 1,47,-1
 105 530 l 2,0,1
EndSplineSet
EndChar

StartChar: i
Encoding: 105 105 92
Width: 271
Flags: W
LayerCount: 2
Fore
SplineSet
256 596 m 0,0,1
 256 567 256 567 240.5 545.5 c 128,-1,2
 225 524 225 524 190 524 c 0,3,4
 158 524 158 524 142.5 541.5 c 128,-1,5
 127 559 127 559 127 584 c 0,6,7
 127 611 127 611 144.5 633.5 c 128,-1,8
 162 656 162 656 193 656 c 0,9,10
 225 656 225 656 240.5 638.5 c 128,-1,11
 256 621 256 621 256 596 c 0,0,1
92 340 m 2,12,13
 97 368 97 368 97 385 c 0,14,15
 97 411 97 411 84.5 425.5 c 128,-1,16
 72 440 72 440 40 440 c 2,17,-1
 30 440 l 1,18,-1
 35 470 l 1,19,-1
 155 470 l 2,20,21
 194 470 194 470 211.5 455.5 c 128,-1,22
 229 441 229 441 229 403 c 0,23,24
 229 390 229 390 227 374.5 c 128,-1,25
 225 359 225 359 222 340 c 2,26,-1
 163 0 l 1,27,-1
 33 0 l 1,28,-1
 92 340 l 2,12,13
EndSplineSet
EndChar

StartChar: j
Encoding: 106 106 93
Width: 270
Flags: W
LayerCount: 2
Fore
SplineSet
37 25 m 0,0,1
 51 108 51 108 61.5 166 c 128,-1,2
 72 224 72 224 78.5 263 c 128,-1,3
 85 302 85 302 89 324.5 c 128,-1,4
 93 347 93 347 94.5 359.5 c 128,-1,5
 96 372 96 372 96.5 377 c 128,-1,6
 97 382 97 382 97 385 c 0,7,8
 97 411 97 411 84.5 425.5 c 128,-1,9
 72 440 72 440 40 440 c 2,10,-1
 30 440 l 1,11,-1
 35 470 l 1,12,-1
 155 470 l 2,13,14
 194 470 194 470 211.5 455.5 c 128,-1,15
 229 441 229 441 229 403 c 0,16,17
 229 399 229 399 228.5 393 c 128,-1,18
 228 387 228 387 226 373 c 128,-1,19
 224 359 224 359 220 335 c 128,-1,20
 216 311 216 311 209 270.5 c 128,-1,21
 202 230 202 230 192 170 c 128,-1,22
 182 110 182 110 167 25 c 0,23,24
 156 -37 156 -37 138 -78.5 c 128,-1,25
 120 -120 120 -120 90 -144.5 c 128,-1,26
 60 -169 60 -169 16.5 -179.5 c 128,-1,27
 -27 -190 -27 -190 -88 -190 c 1,28,-1
 -84 -165 l 1,29,30
 -61 -161 -61 -161 -42.5 -150 c 128,-1,31
 -24 -139 -24 -139 -9.5 -117 c 128,-1,32
 5 -95 5 -95 16.5 -60.5 c 128,-1,33
 28 -26 28 -26 37 25 c 0,0,1
256 596 m 0,34,35
 256 569 256 569 238.5 546.5 c 128,-1,36
 221 524 221 524 190 524 c 0,37,38
 158 524 158 524 142.5 541.5 c 128,-1,39
 127 559 127 559 127 584 c 0,40,41
 127 611 127 611 144.5 633.5 c 128,-1,42
 162 656 162 656 193 656 c 0,43,44
 225 656 225 656 240.5 638.5 c 128,-1,45
 256 621 256 621 256 596 c 0,34,35
EndSplineSet
EndChar

StartChar: k
Encoding: 107 107 94
Width: 507
Flags: W
LayerCount: 2
Fore
SplineSet
177 196 m 1,0,-1
 143 0 l 1,1,-1
 13 0 l 1,2,3
 37 137 37 137 53.5 231.5 c 128,-1,4
 70 326 70 326 81 389 c 128,-1,5
 92 452 92 452 98 487.5 c 128,-1,6
 104 523 104 523 107 541.5 c 128,-1,7
 110 560 110 560 110.5 566 c 128,-1,8
 111 572 111 572 111 575 c 0,9,10
 111 601 111 601 98.5 615.5 c 128,-1,11
 86 630 86 630 54 630 c 2,12,-1
 44 630 l 1,13,-1
 49 660 l 1,14,-1
 169 660 l 2,15,16
 208 660 208 660 225.5 645.5 c 128,-1,17
 243 631 243 631 243 593 c 0,18,19
 243 587 243 587 242 575 c 128,-1,20
 241 563 241 563 235.5 528.5 c 128,-1,21
 230 494 230 494 218.5 427.5 c 128,-1,22
 207 361 207 361 186 245 c 1,23,-1
 333 393 l 2,24,25
 351 411 351 411 368 425.5 c 128,-1,26
 385 440 385 440 403.5 450 c 128,-1,27
 422 460 422 460 443 465 c 128,-1,28
 464 470 464 470 490 470 c 2,29,-1
 510 470 l 1,30,-1
 506 444 l 1,31,32
 476 444 476 444 449.5 432 c 128,-1,33
 423 420 423 420 397 394 c 2,34,-1
 279 276 l 1,35,-1
 381 100 l 2,36,37
 419 33 419 33 461 24 c 1,38,-1
 457 0 l 1,39,40
 449 -4 449 -4 427 -7 c 128,-1,41
 405 -10 405 -10 386 -10 c 0,42,43
 344 -10 344 -10 310 7.5 c 128,-1,44
 276 25 276 25 251 70 c 1,45,-1
 177 196 l 1,0,-1
EndSplineSet
EndChar

StartChar: l
Encoding: 108 108 95
Width: 260
Flags: W
LayerCount: 2
Fore
SplineSet
16 0 m 1,0,1
 40 137 40 137 56.5 231.5 c 128,-1,2
 73 326 73 326 84 389 c 128,-1,3
 95 452 95 452 101 487.5 c 128,-1,4
 107 523 107 523 110 541.5 c 128,-1,5
 113 560 113 560 113.5 566 c 128,-1,6
 114 572 114 572 114 575 c 0,7,8
 114 601 114 601 101.5 615.5 c 128,-1,9
 89 630 89 630 57 630 c 2,10,-1
 47 630 l 1,11,-1
 52 660 l 1,12,-1
 172 660 l 2,13,14
 211 660 211 660 228.5 645.5 c 128,-1,15
 246 631 246 631 246 593 c 0,16,17
 246 589 246 589 245.5 582 c 128,-1,18
 245 575 245 575 242 555 c 128,-1,19
 239 535 239 535 233 498 c 128,-1,20
 227 461 227 461 215.5 396.5 c 128,-1,21
 204 332 204 332 187 235.5 c 128,-1,22
 170 139 170 139 146 0 c 1,23,-1
 16 0 l 1,24,-1
 16 0 l 1,0,1
EndSplineSet
EndChar

StartChar: m
Encoding: 109 109 96
Width: 827
Flags: W
LayerCount: 2
Fore
SplineSet
217 432 m 1,0,1
 237 448 237 448 271.5 464 c 128,-1,2
 306 480 306 480 351 480 c 0,3,4
 379 480 379 480 400.5 473.5 c 128,-1,5
 422 467 422 467 438 458 c 128,-1,6
 454 449 454 449 464 439.5 c 128,-1,7
 474 430 474 430 479 423 c 1,8,9
 502 445 502 445 537.5 462.5 c 128,-1,10
 573 480 573 480 631 480 c 0,11,12
 702 480 702 480 740.5 448.5 c 128,-1,13
 779 417 779 417 779 348 c 0,14,15
 779 342 779 342 778 331 c 128,-1,16
 777 320 777 320 771.5 286 c 128,-1,17
 766 252 766 252 754.5 185 c 128,-1,18
 743 118 743 118 722 0 c 1,19,-1
 592 0 l 1,20,21
 606 79 606 79 615.5 134.5 c 128,-1,22
 625 190 625 190 631.5 227.5 c 128,-1,23
 638 265 638 265 641.5 287 c 128,-1,24
 645 309 645 309 646.5 321.5 c 128,-1,25
 648 334 648 334 648.5 339 c 128,-1,26
 649 344 649 344 649 348 c 0,27,28
 649 393 649 393 631.5 411.5 c 128,-1,29
 614 430 614 430 587 430 c 0,30,31
 559 430 559 430 534.5 419 c 128,-1,32
 510 408 510 408 495 392 c 1,33,34
 496 388 496 388 497 383 c 256,35,36
 498 378 498 378 499 371 c 128,-1,37
 500 364 500 364 500 354 c 0,38,39
 500 350 500 350 499.5 344.5 c 128,-1,40
 499 339 499 339 497.5 326.5 c 128,-1,41
 496 314 496 314 492 291.5 c 128,-1,42
 488 269 488 269 481.5 231 c 128,-1,43
 475 193 475 193 465.5 136.5 c 128,-1,44
 456 80 456 80 442 0 c 1,45,-1
 312 0 l 1,46,47
 326 79 326 79 335.5 134.5 c 128,-1,48
 345 190 345 190 351.5 227.5 c 128,-1,49
 358 265 358 265 361.5 287 c 128,-1,50
 365 309 365 309 366.5 321.5 c 128,-1,51
 368 334 368 334 368.5 339 c 128,-1,52
 369 344 369 344 369 348 c 0,53,54
 369 393 369 393 351.5 411.5 c 128,-1,55
 334 430 334 430 307 430 c 0,56,57
 284 430 284 430 259.5 416.5 c 128,-1,58
 235 403 235 403 223 390 c 1,59,-1
 223 385 l 2,60,61
 223 383 223 383 223.5 380 c 128,-1,62
 224 377 224 377 224 372 c 0,63,64
 224 370 224 370 223.5 366 c 128,-1,65
 223 362 223 362 221.5 349.5 c 128,-1,66
 220 337 220 337 216.5 314 c 128,-1,67
 213 291 213 291 206 250.5 c 128,-1,68
 199 210 199 210 188.5 149 c 128,-1,69
 178 88 178 88 162 0 c 1,70,-1
 32 0 l 1,71,72
 47 89 47 89 58 151.5 c 128,-1,73
 69 214 69 214 76 256 c 128,-1,74
 83 298 83 298 87 322 c 128,-1,75
 91 346 91 346 93 359.5 c 128,-1,76
 95 373 95 373 95.5 378 c 128,-1,77
 96 383 96 383 96 386 c 0,78,79
 96 412 96 412 84 426 c 128,-1,80
 72 440 72 440 40 440 c 2,81,-1
 30 440 l 1,82,-1
 35 470 l 1,83,-1
 134 470 l 2,84,85
 164 470 164 470 185 461.5 c 128,-1,86
 206 453 206 453 213 432 c 1,87,-1
 217 432 l 1,0,1
EndSplineSet
EndChar

StartChar: n
Encoding: 110 110 97
Width: 577
Flags: W
LayerCount: 2
Fore
SplineSet
322 430 m 0,0,1
 290 430 290 430 265 421 c 128,-1,2
 240 412 240 412 225 399 c 1,3,-1
 225 394 l 2,4,5
 225 392 225 392 225.5 389 c 128,-1,6
 226 386 226 386 226 381 c 0,7,8
 226 379 226 379 225.5 375 c 128,-1,9
 225 371 225 371 223.5 358.5 c 128,-1,10
 222 346 222 346 218 322 c 128,-1,11
 214 298 214 298 207 256.5 c 128,-1,12
 200 215 200 215 189 152.5 c 128,-1,13
 178 90 178 90 162 0 c 1,14,-1
 32 0 l 1,15,16
 48 89 48 89 58.5 151.5 c 128,-1,17
 69 214 69 214 76 256 c 128,-1,18
 83 298 83 298 87 322 c 128,-1,19
 91 346 91 346 93 359.5 c 128,-1,20
 95 373 95 373 95.5 378 c 128,-1,21
 96 383 96 383 96 386 c 0,22,23
 96 412 96 412 84 426 c 128,-1,24
 72 440 72 440 40 440 c 2,25,-1
 30 440 l 1,26,-1
 35 470 l 1,27,-1
 134 470 l 2,28,29
 168 470 168 470 186 461.5 c 128,-1,30
 204 453 204 453 212 433 c 1,31,32
 222 441 222 441 236 449.5 c 128,-1,33
 250 458 250 458 268.5 464.5 c 128,-1,34
 287 471 287 471 311 475.5 c 128,-1,35
 335 480 335 480 366 480 c 0,36,37
 447 480 447 480 488 448.5 c 128,-1,38
 529 417 529 417 529 347 c 0,39,40
 529 343 529 343 528.5 337.5 c 128,-1,41
 528 332 528 332 526.5 320 c 128,-1,42
 525 308 525 308 521.5 286 c 128,-1,43
 518 264 518 264 511.5 226.5 c 128,-1,44
 505 189 505 189 495.5 134 c 128,-1,45
 486 79 486 79 472 0 c 1,46,-1
 342 0 l 1,47,48
 356 78 356 78 365.5 133.5 c 128,-1,49
 375 189 375 189 381 226 c 128,-1,50
 387 263 387 263 390.5 284.5 c 128,-1,51
 394 306 394 306 395.5 318 c 128,-1,52
 397 330 397 330 397.5 335 c 128,-1,53
 398 340 398 340 398 343 c 0,54,55
 398 391 398 391 377 410.5 c 128,-1,56
 356 430 356 430 322 430 c 0,0,1
EndSplineSet
EndChar

StartChar: o
Encoding: 111 111 98
Width: 553
Flags: W
LayerCount: 2
Fore
SplineSet
234 35 m 0,0,1
 275 35 275 35 303 66 c 128,-1,2
 331 97 331 97 348.5 140.5 c 128,-1,3
 366 184 366 184 373.5 232 c 128,-1,4
 381 280 381 280 381 313 c 0,5,6
 381 369 381 369 362.5 402 c 128,-1,7
 344 435 344 435 304 435 c 0,8,9
 263 435 263 435 235 404 c 128,-1,10
 207 373 207 373 189.5 329.5 c 128,-1,11
 172 286 172 286 164.5 238 c 128,-1,12
 157 190 157 190 157 157 c 0,13,14
 157 101 157 101 175.5 68 c 128,-1,15
 194 35 194 35 234 35 c 0,0,1
24 184 m 0,16,17
 24 240 24 240 45.5 293.5 c 128,-1,18
 67 347 67 347 105.5 388.5 c 128,-1,19
 144 430 144 430 196.5 455 c 128,-1,20
 249 480 249 480 312 480 c 0,21,22
 361 480 361 480 399 465.5 c 128,-1,23
 437 451 437 451 462.5 425 c 128,-1,24
 488 399 488 399 501 363.5 c 128,-1,25
 514 328 514 328 514 286 c 0,26,27
 514 230 514 230 492.5 176.5 c 128,-1,28
 471 123 471 123 432.5 81.5 c 128,-1,29
 394 40 394 40 341.5 15 c 128,-1,30
 289 -10 289 -10 226 -10 c 0,31,32
 177 -10 177 -10 139 4.5 c 128,-1,33
 101 19 101 19 75.5 45 c 128,-1,34
 50 71 50 71 37 106.5 c 128,-1,35
 24 142 24 142 24 184 c 0,16,17
EndSplineSet
EndChar

StartChar: p
Encoding: 112 112 99
Width: 569
Flags: W
LayerCount: 2
Fore
SplineSet
356 480 m 0,0,1
 400 480 400 480 432.5 466.5 c 128,-1,2
 465 453 465 453 486.5 428.5 c 128,-1,3
 508 404 508 404 518.5 370.5 c 128,-1,4
 529 337 529 337 529 297 c 0,5,6
 529 238 529 238 510.5 183 c 128,-1,7
 492 128 492 128 457.5 85 c 128,-1,8
 423 42 423 42 374.5 16 c 128,-1,9
 326 -10 326 -10 265 -10 c 0,10,11
 240 -10 240 -10 222 -5.5 c 128,-1,12
 204 -1 204 -1 191 5 c 0,13,14
 176 11 176 11 165 20 c 1,15,-1
 128 -190 l 1,16,-1
 -2 -190 l 1,17,18
 22 -53 22 -53 38.5 42 c 128,-1,19
 55 137 55 137 66 199.5 c 128,-1,20
 77 262 77 262 83 298 c 128,-1,21
 89 334 89 334 92 352.5 c 128,-1,22
 95 371 95 371 95.5 377 c 128,-1,23
 96 383 96 383 96 386 c 0,24,25
 96 412 96 412 84 426 c 128,-1,26
 72 440 72 440 40 440 c 2,27,-1
 30 440 l 1,28,-1
 35 470 l 1,29,-1
 134 470 l 2,30,31
 168 470 168 470 186.5 461 c 128,-1,32
 205 452 205 452 211 428 c 1,33,34
 221 436 221 436 235.5 445 c 128,-1,35
 250 454 250 454 268 462 c 128,-1,36
 286 470 286 470 308 475 c 128,-1,37
 330 480 330 480 356 480 c 0,0,1
328 435 m 256,38,39
 290 435 290 435 264.5 421 c 128,-1,40
 239 407 239 407 224 394 c 1,41,-1
 224 389 l 2,42,43
 224 387 224 387 224.5 383.5 c 128,-1,44
 225 380 225 380 225 375 c 0,45,46
 225 373 225 373 225 369.5 c 128,-1,47
 225 366 225 366 223.5 356 c 128,-1,48
 222 346 222 346 218.5 326.5 c 128,-1,49
 215 307 215 307 209.5 273.5 c 128,-1,50
 204 240 204 240 195 189 c 128,-1,51
 186 138 186 138 173 65 c 1,52,53
 182 56 182 56 194 50 c 0,54,55
 205 44 205 44 219.5 39.5 c 128,-1,56
 234 35 234 35 253 35 c 0,57,58
 281 35 281 35 303 51 c 128,-1,59
 325 67 325 67 341 92.5 c 128,-1,60
 357 118 357 118 367.5 150.5 c 128,-1,61
 378 183 378 183 384.5 215 c 128,-1,62
 391 247 391 247 394 276.5 c 128,-1,63
 397 306 397 306 397 326 c 0,64,65
 397 376 397 376 381.5 405.5 c 128,-1,66
 366 435 366 435 328 435 c 256,38,39
EndSplineSet
EndChar

StartChar: q
Encoding: 113 113 100
Width: 549
Flags: W
LayerCount: 2
Fore
SplineSet
374 370 m 1,0,1
 368 388 368 388 357 402 c 0,2,3
 348 414 348 414 333 424.5 c 128,-1,4
 318 435 318 435 295 435 c 0,5,6
 268 435 268 435 247 419.5 c 128,-1,7
 226 404 226 404 211 378.5 c 128,-1,8
 196 353 196 353 185 321.5 c 128,-1,9
 174 290 174 290 168 257.5 c 128,-1,10
 162 225 162 225 159 195.5 c 128,-1,11
 156 166 156 166 156 145 c 0,12,13
 156 94 156 94 172.5 64.5 c 128,-1,14
 189 35 189 35 230 35 c 0,15,16
 249 35 249 35 265.5 39.5 c 128,-1,17
 282 44 282 44 294 50 c 0,18,19
 308 56 308 56 320 65 c 1,20,-1
 374 370 l 1,0,1
405 -190 m 1,21,-1
 275 -190 l 1,22,-1
 312 20 l 1,23,24
 298 11 298 11 281 5 c 0,25,26
 267 -1 267 -1 246.5 -5.5 c 128,-1,27
 226 -10 226 -10 202 -10 c 0,28,29
 156 -10 156 -10 122.5 3.5 c 128,-1,30
 89 17 89 17 67 41.5 c 128,-1,31
 45 66 45 66 34.5 99.5 c 128,-1,32
 24 133 24 133 24 173 c 0,33,34
 24 226 24 226 41 280.5 c 128,-1,35
 58 335 58 335 90.5 379.5 c 128,-1,36
 123 424 123 424 171.5 452 c 128,-1,37
 220 480 220 480 283 480 c 0,38,39
 313 480 313 480 333 471.5 c 128,-1,40
 353 463 353 463 365 452 c 0,41,42
 379 440 379 440 388 425 c 1,43,-1
 393 425 l 1,44,-1
 436 470 l 1,45,-1
 521 470 l 1,46,-1
 405 -190 l 1,21,-1
EndSplineSet
EndChar

StartChar: r
Encoding: 114 114 101
Width: 420
Flags: W
LayerCount: 2
Fore
SplineSet
346 480 m 0,0,1
 390 480 390 480 414 460 c 0,2,3
 421 454 421 454 426 446 c 128,-1,4
 431 438 431 438 434 431 c 128,-1,5
 437 424 437 424 438.5 419.5 c 128,-1,6
 440 415 440 415 440 415 c 1,7,-1
 382 376 l 1,8,9
 377 386 377 386 368 395 c 0,10,11
 360 403 360 403 348.5 409 c 128,-1,12
 337 415 337 415 320 415 c 0,13,14
 288 415 288 415 264 406 c 128,-1,15
 240 397 240 397 225 384 c 1,16,17
 224 377 224 377 224 369 c 1,18,19
 223 362 223 362 223 353.5 c 128,-1,20
 223 345 223 345 221 336 c 2,21,-1
 162 0 l 1,22,-1
 32 0 l 1,23,24
 47 89 47 89 58 151.5 c 128,-1,25
 69 214 69 214 76 256 c 128,-1,26
 83 298 83 298 87 322 c 128,-1,27
 91 346 91 346 93 359.5 c 128,-1,28
 95 373 95 373 95.5 378 c 128,-1,29
 96 383 96 383 96 386 c 0,30,31
 96 412 96 412 84 426 c 128,-1,32
 72 440 72 440 40 440 c 2,33,-1
 30 440 l 1,34,-1
 35 470 l 1,35,-1
 134 470 l 2,36,37
 168 470 168 470 186 461.5 c 128,-1,38
 204 453 204 453 212 433 c 1,39,40
 233 449 233 449 267 464.5 c 128,-1,41
 301 480 301 480 346 480 c 0,0,1
EndSplineSet
EndChar

StartChar: s
Encoding: 115 115 102
Width: 469
Flags: W
LayerCount: 2
Fore
SplineSet
167 35 m 0,0,1
 184 35 184 35 204 38.5 c 128,-1,2
 224 42 224 42 241 51 c 128,-1,3
 258 60 258 60 269 74.5 c 128,-1,4
 280 89 280 89 280 111 c 0,5,6
 280 136 280 136 257.5 152.5 c 128,-1,7
 235 169 235 169 203 184 c 2,8,-1
 155 206 l 2,9,10
 106 229 106 229 78 257 c 128,-1,11
 50 285 50 285 50 325 c 256,12,13
 50 365 50 365 69.5 394.5 c 128,-1,14
 89 424 89 424 120 443 c 128,-1,15
 151 462 151 462 189 471 c 128,-1,16
 227 480 227 480 265 480 c 0,17,18
 286 480 286 480 315 478 c 128,-1,19
 344 476 344 476 369.5 468 c 128,-1,20
 395 460 395 460 413 442.5 c 128,-1,21
 431 425 431 425 431 395 c 0,22,23
 431 378 431 378 428.5 359.5 c 128,-1,24
 426 341 426 341 422 320 c 1,25,-1
 387 320 l 1,26,-1
 387 323 l 2,27,28
 387 370 387 370 361.5 402.5 c 128,-1,29
 336 435 336 435 277 435 c 0,30,31
 260 435 260 435 243 430.5 c 128,-1,32
 226 426 226 426 211.5 416 c 128,-1,33
 197 406 197 406 188 391.5 c 128,-1,34
 179 377 179 377 179 356 c 0,35,36
 179 334 179 334 194.5 319.5 c 128,-1,37
 210 305 210 305 238 293 c 2,38,-1
 294 268 l 2,39,40
 350 243 350 243 379.5 216 c 128,-1,41
 409 189 409 189 409 147 c 256,42,43
 409 105 409 105 387.5 75 c 128,-1,44
 366 45 366 45 333 26 c 128,-1,45
 300 7 300 7 259 -1.5 c 128,-1,46
 218 -10 218 -10 179 -10 c 0,47,48
 158 -10 158 -10 129 -8 c 128,-1,49
 100 -6 100 -6 74.5 2 c 128,-1,50
 49 10 49 10 31 27.5 c 128,-1,51
 13 45 13 45 13 75 c 0,52,53
 13 92 13 92 15.5 110.5 c 128,-1,54
 18 129 18 129 22 150 c 1,55,-1
 57 150 l 1,56,-1
 57 147 l 2,57,58
 57 100 57 100 82.5 67.5 c 128,-1,59
 108 35 108 35 167 35 c 0,0,1
EndSplineSet
EndChar

StartChar: t
Encoding: 116 116 103
Width: 355
Flags: W
LayerCount: 2
Fore
SplineSet
246 470 m 1,0,-1
 356 470 l 1,1,-1
 348 425 l 1,2,-1
 238 425 l 1,3,4
 224 347 224 347 214.5 292 c 128,-1,5
 205 237 205 237 198.5 200.5 c 128,-1,6
 192 164 192 164 188.5 142.5 c 128,-1,7
 185 121 185 121 183.5 109.5 c 128,-1,8
 182 98 182 98 181.5 93.5 c 128,-1,9
 181 89 181 89 181 86 c 0,10,11
 181 57 181 57 192 46 c 128,-1,12
 203 35 203 35 222 35 c 0,13,14
 238 35 238 35 253.5 39 c 128,-1,15
 269 43 269 43 280 48 c 0,16,17
 293 54 293 54 305 62 c 1,18,-1
 314 34 l 1,19,20
 299 22 299 22 279 12 c 0,21,22
 262 4 262 4 236.5 -3 c 128,-1,23
 211 -10 211 -10 177 -10 c 0,24,25
 118 -10 118 -10 86 17.5 c 128,-1,26
 54 45 54 45 54 99 c 0,27,28
 54 102 54 102 54.5 106 c 128,-1,29
 55 110 55 110 56.5 121 c 128,-1,30
 58 132 58 132 61 152.5 c 128,-1,31
 64 173 64 173 70 208.5 c 128,-1,32
 76 244 76 244 85.5 296.5 c 128,-1,33
 95 349 95 349 108 425 c 1,34,-1
 48 425 l 1,35,-1
 56 470 l 1,36,-1
 116 470 l 1,37,-1
 132 560 l 1,38,-1
 193 620 l 1,39,-1
 273 620 l 1,40,-1
 246 470 l 1,0,-1
EndSplineSet
EndChar

StartChar: u
Encoding: 117 117 104
Width: 567
Flags: W
LayerCount: 2
Fore
SplineSet
81 340 m 0,0,1
 86 368 86 368 86 385 c 0,2,3
 86 411 86 411 73.5 425.5 c 128,-1,4
 61 440 61 440 29 440 c 2,5,-1
 19 440 l 1,6,-1
 24 470 l 1,7,-1
 144 470 l 2,8,9
 183 470 183 470 200.5 455.5 c 128,-1,10
 218 441 218 441 218 403 c 0,11,12
 218 375 218 375 211 340 c 1,13,14
 199 269 199 269 192 227 c 128,-1,15
 185 185 185 185 181.5 162 c 128,-1,16
 178 139 178 139 177 129.5 c 128,-1,17
 176 120 176 120 176 114 c 0,18,19
 176 70 176 70 193.5 52.5 c 128,-1,20
 211 35 211 35 243 35 c 0,21,22
 266 35 266 35 284 45 c 128,-1,23
 302 55 302 55 316 67 c 0,24,25
 332 81 332 81 344 100 c 1,26,-1
 409 470 l 1,27,-1
 539 470 l 1,28,-1
 457 0 l 1,29,-1
 372 0 l 1,30,-1
 344 45 l 1,31,-1
 339 45 l 1,32,33
 322 29 322 29 302 17 c 0,34,35
 284 6 284 6 259.5 -2 c 128,-1,36
 235 -10 235 -10 205 -10 c 0,37,38
 125 -10 125 -10 86 20.5 c 128,-1,39
 47 51 47 51 47 119 c 0,40,41
 47 125 47 125 47.5 134.5 c 128,-1,42
 48 144 48 144 51.5 166.5 c 128,-1,43
 55 189 55 189 62 229.5 c 128,-1,44
 69 270 69 270 81 340 c 0,0,1
EndSplineSet
EndChar

StartChar: v
Encoding: 118 118 105
Width: 502
Flags: W
LayerCount: 2
Fore
SplineSet
88 355 m 2,0,1
 72 410 72 410 57 433 c 128,-1,2
 42 456 42 456 17 458 c 1,3,-1
 21 478 l 1,4,5
 25 478 25 478 38 479 c 128,-1,6
 51 480 51 480 58 480 c 0,7,8
 88 480 88 480 114.5 475 c 128,-1,9
 141 470 141 470 162.5 456.5 c 128,-1,10
 184 443 184 443 200.5 418.5 c 128,-1,11
 217 394 217 394 228 355 c 2,12,-1
 282 163 l 1,13,-1
 472 470 l 1,14,-1
 526 470 l 1,15,-1
 229 -10 l 1,16,-1
 193 -10 l 1,17,-1
 88 355 l 2,0,1
EndSplineSet
EndChar

StartChar: w
Encoding: 119 119 106
Width: 776
Flags: W
LayerCount: 2
Fore
SplineSet
563 154 m 1,0,-1
 740 470 l 1,1,-1
 793 470 l 1,2,-1
 525 -10 l 1,3,-1
 479 -10 l 1,4,-1
 398 271 l 1,5,-1
 233 -10 l 1,6,-1
 188 -10 l 1,7,-1
 89 355 l 2,8,9
 74 411 74 411 57 434 c 128,-1,10
 40 457 40 457 14 459 c 1,11,-1
 18 478 l 1,12,13
 20 478 20 478 26.5 478.5 c 128,-1,14
 33 479 33 479 40.5 479 c 128,-1,15
 48 479 48 479 55.5 479.5 c 128,-1,16
 63 480 63 480 66 480 c 0,17,18
 98 480 98 480 123 474 c 128,-1,19
 148 468 148 468 167.5 454 c 128,-1,20
 187 440 187 440 201.5 416 c 128,-1,21
 216 392 216 392 226 355 c 2,22,-1
 277 164 l 1,23,-1
 373 324 l 1,24,-1
 364 355 l 2,25,26
 349 410 349 410 332.5 433.5 c 128,-1,27
 316 457 316 457 294 459 c 1,28,-1
 298 478 l 1,29,30
 302 478 302 478 315.5 479 c 128,-1,31
 329 480 329 480 336 480 c 0,32,33
 368 480 368 480 395 474.5 c 128,-1,34
 422 469 422 469 443.5 454.5 c 128,-1,35
 465 440 465 440 480.5 416 c 128,-1,36
 496 392 496 392 506 355 c 2,37,-1
 563 154 l 1,0,-1
EndSplineSet
EndChar

StartChar: x
Encoding: 120 120 107
Width: 497
Flags: W
LayerCount: 2
Fore
SplineSet
180 209 m 1,0,-1
 113 370 l 2,1,2
 98 406 98 406 77 426 c 128,-1,3
 56 446 56 446 34 450 c 1,4,-1
 37 470 l 1,5,-1
 132 470 l 2,6,7
 181 470 181 470 206 448.5 c 128,-1,8
 231 427 231 427 246 390 c 2,9,-1
 280 309 l 1,10,-1
 439 470 l 1,11,-1
 506 470 l 1,12,-1
 301 262 l 1,13,-1
 369 100 l 2,14,15
 384 64 384 64 405 44 c 128,-1,16
 426 24 426 24 448 20 c 1,17,-1
 445 0 l 1,18,-1
 350 0 l 2,19,20
 301 0 301 0 276 21.5 c 128,-1,21
 251 43 251 43 236 80 c 2,22,-1
 201 161 l 1,23,-1
 42 0 l 1,24,-1
 -25 0 l 1,25,-1
 180 209 l 1,0,-1
EndSplineSet
EndChar

StartChar: y
Encoding: 121 121 108
Width: 509
Flags: W
LayerCount: 2
Fore
SplineSet
226 -65 m 2,0,1
 203 -106 203 -106 182 -132 c 128,-1,2
 161 -158 161 -158 139 -173 c 128,-1,3
 117 -188 117 -188 93.5 -194 c 128,-1,4
 70 -200 70 -200 44 -200 c 2,5,-1
 4 -200 l 1,6,-1
 10 -165 l 1,7,8
 36 -165 36 -165 58.5 -160.5 c 128,-1,9
 81 -156 81 -156 100.5 -145 c 128,-1,10
 120 -134 120 -134 137.5 -115.5 c 128,-1,11
 155 -97 155 -97 172 -68 c 2,12,-1
 202 -14 l 1,13,-1
 92 380 l 2,14,15
 81 418 81 418 61.5 437 c 128,-1,16
 42 456 42 456 13 460 c 1,17,-1
 16 480 l 1,18,-1
 104 480 l 2,19,20
 149 480 149 480 179 458.5 c 128,-1,21
 209 437 209 437 220 400 c 2,22,-1
 291 148 l 1,23,-1
 469 470 l 1,24,-1
 522 470 l 1,25,-1
 226 -65 l 2,0,1
EndSplineSet
EndChar

StartChar: z
Encoding: 122 122 109
Width: 495
Flags: W
LayerCount: 2
Fore
SplineSet
515 470 m 1,0,-1
 156 45 l 1,1,-1
 419 45 l 1,2,-1
 412 0 l 1,3,-1
 -8 0 l 1,4,-1
 -3 31 l 1,5,-1
 329 425 l 1,6,-1
 211 425 l 2,7,8
 147 425 147 425 117.5 402 c 128,-1,9
 88 379 88 379 80 330 c 1,10,-1
 50 330 l 1,11,-1
 60 390 l 2,12,13
 63 405 63 405 69 419.5 c 128,-1,14
 75 434 75 434 86 445 c 128,-1,15
 97 456 97 456 115 463 c 128,-1,16
 133 470 133 470 159 470 c 2,17,-1
 515 470 l 1,0,-1
EndSplineSet
EndChar

StartChar: braceleft
Encoding: 123 123 110
Width: 312
Flags: W
LayerCount: 2
Fore
SplineSet
106 240 m 1,0,1
 204 212 204 212 204 132 c 0,2,3
 204 100 204 100 198 69 c 128,-1,4
 192 38 192 38 185.5 8 c 128,-1,5
 179 -22 179 -22 173 -52.5 c 128,-1,6
 167 -83 167 -83 167 -113 c 0,7,8
 167 -140 167 -140 177.5 -155.5 c 128,-1,9
 188 -171 188 -171 212 -176 c 1,10,-1
 206 -211 l 1,11,12
 162 -208 162 -208 131 -195.5 c 128,-1,13
 100 -183 100 -183 80.5 -164 c 128,-1,14
 61 -145 61 -145 52.5 -120.5 c 128,-1,15
 44 -96 44 -96 44 -68 c 0,16,17
 44 -42 44 -42 49 -16.5 c 128,-1,18
 54 9 54 9 59.5 34.5 c 128,-1,19
 65 60 65 60 70 85 c 128,-1,20
 75 110 75 110 75 136 c 0,21,22
 75 168 75 168 57 193 c 128,-1,23
 39 218 39 218 -7 224 c 1,24,-1
 -1 256 l 1,25,26
 56 264 56 264 83.5 296.5 c 128,-1,27
 111 329 111 329 119 370 c 2,28,-1
 143 510 l 2,29,30
 149 544 149 544 164.5 575 c 128,-1,31
 180 606 180 606 207 630.5 c 128,-1,32
 234 655 234 655 273 671 c 128,-1,33
 312 687 312 687 365 691 c 1,34,-1
 359 656 l 1,35,36
 324 650 324 650 306.5 623.5 c 128,-1,37
 289 597 289 597 281 552 c 2,38,-1
 251 380 l 2,39,40
 241 323 241 323 206.5 290 c 128,-1,41
 172 257 172 257 106 240 c 1,0,1
EndSplineSet
EndChar

StartChar: bar
Encoding: 124 124 111
Width: 264
Flags: W
LayerCount: 2
Fore
SplineSet
268 680 m 1,0,-1
 115 -190 l 1,1,-1
 -15 -190 l 1,2,-1
 138 680 l 1,3,-1
 268 680 l 1,0,-1
EndSplineSet
EndChar

StartChar: braceright
Encoding: 125 125 112
Width: 312
Flags: W
LayerCount: 2
Fore
SplineSet
193 240 m 1,0,1
 95 268 95 268 95 348 c 0,2,3
 95 378 95 378 101 408.5 c 128,-1,4
 107 439 107 439 113.5 469 c 128,-1,5
 120 499 120 499 126 529.5 c 128,-1,6
 132 560 132 560 132 592 c 0,7,8
 132 619 132 619 121.5 635 c 128,-1,9
 111 651 111 651 86 656 c 1,10,-1
 92 691 l 1,11,12
 136 688 136 688 167 675.5 c 128,-1,13
 198 663 198 663 217.5 644 c 128,-1,14
 237 625 237 625 245.5 600.5 c 128,-1,15
 254 576 254 576 254 548 c 0,16,17
 254 522 254 522 249 496.5 c 128,-1,18
 244 471 244 471 238.5 445.5 c 128,-1,19
 233 420 233 420 228 394.5 c 128,-1,20
 223 369 223 369 223 342 c 0,21,22
 223 310 223 310 241.5 286 c 128,-1,23
 260 262 260 262 306 256 c 1,24,-1
 300 224 l 1,25,26
 242 216 242 216 214.5 183.5 c 128,-1,27
 187 151 187 151 180 110 c 2,28,-1
 155 -30 l 2,29,30
 149 -64 149 -64 133.5 -95 c 128,-1,31
 118 -126 118 -126 91.5 -150.5 c 128,-1,32
 65 -175 65 -175 26 -191 c 128,-1,33
 -13 -207 -13 -207 -66 -211 c 1,34,-1
 -60 -176 l 1,35,36
 -25 -170 -25 -170 -7.5 -143.5 c 128,-1,37
 10 -117 10 -117 18 -72 c 2,38,-1
 48 100 l 2,39,40
 58 157 58 157 92.5 190 c 128,-1,41
 127 223 127 223 193 240 c 1,0,1
EndSplineSet
EndChar

StartChar: asciitilde
Encoding: 126 126 113
Width: 614
Flags: W
LayerCount: 2
Fore
SplineSet
184 343 m 0,0,1
 221 343 221 343 255 330.5 c 128,-1,2
 289 318 289 318 320.5 303 c 128,-1,3
 352 288 352 288 381.5 275.5 c 128,-1,4
 411 263 411 263 440 263 c 0,5,6
 482 263 482 263 503.5 278 c 128,-1,7
 525 293 525 293 530 323 c 1,8,-1
 570 323 l 1,9,10
 556 245 556 245 520.5 206 c 128,-1,11
 485 167 485 167 423 167 c 0,12,13
 385 167 385 167 351.5 179.5 c 128,-1,14
 318 192 318 192 286.5 207 c 128,-1,15
 255 222 255 222 225.5 234.5 c 128,-1,16
 196 247 196 247 167 247 c 0,17,18
 125 247 125 247 103.5 232 c 128,-1,19
 82 217 82 217 76 187 c 1,20,-1
 36 187 l 1,21,22
 50 265 50 265 86 304 c 128,-1,23
 122 343 122 343 184 343 c 0,0,1
EndSplineSet
EndChar

StartChar: exclamdown
Encoding: 161 161 114
Width: 241
Flags: W
LayerCount: 2
Fore
SplineSet
104 -194 m 1,0,-1
 -29 -194 l 1,1,-1
 79 311 l 1,2,-1
 173 311 l 1,3,-1
 104 -194 l 1,0,-1
207 434 m 0,4,5
 207 405 207 405 188 381.5 c 128,-1,6
 169 358 169 358 135 358 c 0,7,8
 109 358 109 358 96 371 c 128,-1,9
 83 384 83 384 83 406 c 0,10,11
 83 435 83 435 103.5 457.5 c 128,-1,12
 124 480 124 480 156 480 c 0,13,14
 181 480 181 480 194 467.5 c 128,-1,15
 207 455 207 455 207 434 c 0,4,5
EndSplineSet
EndChar

StartChar: sterling
Encoding: 163 163 115
Width: 536
Flags: W
LayerCount: 2
Fore
SplineSet
134 460 m 2,0,1
 145 524 145 524 171.5 564.5 c 128,-1,2
 198 605 198 605 232.5 628.5 c 128,-1,3
 267 652 267 652 304.5 661 c 128,-1,4
 342 670 342 670 376 670 c 0,5,6
 397 670 397 670 424 668.5 c 128,-1,7
 451 667 451 667 475.5 659 c 128,-1,8
 500 651 500 651 516.5 634.5 c 128,-1,9
 533 618 533 618 533 588 c 0,10,11
 533 575 533 575 531 561.5 c 128,-1,12
 529 548 529 548 527 535 c 1,13,-1
 472 535 l 1,14,15
 469 584 469 584 447.5 604.5 c 128,-1,16
 426 625 426 625 388 625 c 0,17,18
 369 625 369 625 350.5 617.5 c 128,-1,19
 332 610 332 610 315.5 591 c 128,-1,20
 299 572 299 572 286 540.5 c 128,-1,21
 273 509 273 509 264 460 c 2,22,-1
 247 365 l 1,23,-1
 377 365 l 1,24,-1
 369 320 l 1,25,-1
 239 320 l 1,26,-1
 221 220 l 2,27,28
 209 149 209 149 180 108 c 128,-1,29
 151 67 151 67 120 45 c 1,30,-1
 310 45 l 2,31,32
 370 45 370 45 403 75 c 128,-1,33
 436 105 436 105 447 165 c 1,34,-1
 477 165 l 1,35,-1
 462 80 l 2,36,37
 459 65 459 65 453 50.5 c 128,-1,38
 447 36 447 36 436 25 c 128,-1,39
 425 14 425 14 407 7 c 128,-1,40
 389 0 389 0 363 0 c 2,41,-1
 -12 0 l 1,42,-1
 -7 30 l 1,43,44
 12 36 12 36 27 48 c 128,-1,45
 42 60 42 60 53 82 c 128,-1,46
 64 104 64 104 73 137.5 c 128,-1,47
 82 171 82 171 91 220 c 2,48,-1
 109 320 l 1,49,-1
 49 320 l 1,50,-1
 57 365 l 1,51,-1
 117 365 l 1,52,-1
 134 460 l 2,0,1
EndSplineSet
EndChar

StartChar: yen
Encoding: 165 165 116
Width: 716
Flags: W
LayerCount: 2
Fore
SplineSet
441 345 m 1,0,-1
 691 660 l 1,1,-1
 756 660 l 1,2,-1
 464 291 l 1,3,-1
 459 265 l 1,4,-1
 545 265 l 1,5,-1
 537 220 l 1,6,-1
 451 220 l 1,7,-1
 444 180 l 1,8,-1
 530 180 l 1,9,-1
 522 135 l 1,10,-1
 436 135 l 1,11,-1
 413 0 l 1,12,-1
 283 0 l 1,13,-1
 306 135 l 1,14,-1
 222 135 l 1,15,-1
 230 180 l 1,16,-1
 314 180 l 1,17,-1
 321 220 l 1,18,-1
 237 220 l 1,19,-1
 245 265 l 1,20,-1
 328 265 l 1,21,-1
 199 530 l 2,22,23
 190 549 190 549 177 568 c 128,-1,24
 164 587 164 587 149 602.5 c 128,-1,25
 134 618 134 618 117.5 628 c 128,-1,26
 101 638 101 638 85 640 c 1,27,-1
 89 660 l 1,28,-1
 198 660 l 2,29,30
 226 660 226 660 248.5 650 c 128,-1,31
 271 640 271 640 288.5 624 c 128,-1,32
 306 608 306 608 319 588.5 c 128,-1,33
 332 569 332 569 341 550 c 2,34,-1
 441 345 l 1,0,-1
EndSplineSet
EndChar

StartChar: section
Encoding: 167 167 117
Width: 452
Flags: W
LayerCount: 2
Fore
SplineSet
322 625 m 0,0,1
 276 625 276 625 250 593.5 c 128,-1,2
 224 562 224 562 224 515 c 0,3,4
 224 477 224 477 247.5 453.5 c 128,-1,5
 271 430 271 430 302 408 c 0,6,7
 321 394 321 394 339.5 379.5 c 128,-1,8
 358 365 358 365 373 348 c 128,-1,9
 388 331 388 331 397.5 310.5 c 128,-1,10
 407 290 407 290 407 266 c 0,11,12
 407 237 407 237 395.5 212 c 128,-1,13
 384 187 384 187 364.5 166.5 c 128,-1,14
 345 146 345 146 319 129 c 128,-1,15
 293 112 293 112 265 100 c 1,16,17
 297 77 297 77 318.5 47 c 128,-1,18
 340 17 340 17 340 -23 c 256,19,20
 340 -63 340 -63 323 -95.5 c 128,-1,21
 306 -128 306 -128 278 -151.5 c 128,-1,22
 250 -175 250 -175 213 -187.5 c 128,-1,23
 176 -200 176 -200 136 -200 c 0,24,25
 115 -200 115 -200 88.5 -196.5 c 128,-1,26
 62 -193 62 -193 39 -183.5 c 128,-1,27
 16 -174 16 -174 0.5 -156 c 128,-1,28
 -15 -138 -15 -138 -15 -109 c 0,29,30
 -15 -96 -15 -96 -12.5 -81.5 c 128,-1,31
 -10 -67 -10 -67 -7 -49 c 1,32,-1
 25 -49 l 1,33,-1
 25 -55 l 2,34,35
 25 -102 25 -102 47.5 -128.5 c 128,-1,36
 70 -155 70 -155 114 -155 c 0,37,38
 160 -155 160 -155 186.5 -123.5 c 128,-1,39
 213 -92 213 -92 213 -45 c 0,40,41
 213 -28 213 -28 206.5 -14 c 128,-1,42
 200 0 200 0 189.5 12.5 c 128,-1,43
 179 25 179 25 165.5 36.5 c 128,-1,44
 152 48 152 48 138 60 c 0,45,46
 122 73 122 73 103 86.5 c 128,-1,47
 84 100 84 100 67.5 116.5 c 128,-1,48
 51 133 51 133 40 154 c 128,-1,49
 29 175 29 175 29 203 c 0,50,51
 29 232 29 232 41 257.5 c 128,-1,52
 53 283 53 283 72.5 304 c 128,-1,53
 92 325 92 325 117 342 c 128,-1,54
 142 359 142 359 169 370 c 1,55,56
 138 393 138 393 117 422.5 c 128,-1,57
 96 452 96 452 96 492 c 256,58,59
 96 532 96 532 112.5 564.5 c 128,-1,60
 129 597 129 597 157.5 620.5 c 128,-1,61
 186 644 186 644 222.5 657 c 128,-1,62
 259 670 259 670 300 670 c 0,63,64
 322 670 322 670 348 666.5 c 128,-1,65
 374 663 374 663 396.5 653 c 128,-1,66
 419 643 419 643 434.5 625 c 128,-1,67
 450 607 450 607 450 578 c 0,68,69
 450 565 450 565 448 551 c 128,-1,70
 446 537 446 537 443 519 c 1,71,-1
 411 519 l 1,72,-1
 411 522 l 2,73,74
 411 570 411 570 389 597.5 c 128,-1,75
 367 625 367 625 322 625 c 0,0,1
232 125 m 1,76,77
 261 136 261 136 276 166.5 c 128,-1,78
 291 197 291 197 291 231 c 0,79,80
 291 266 291 266 266 293.5 c 128,-1,81
 241 321 241 321 204 344 c 1,82,83
 176 333 176 333 160 303.5 c 128,-1,84
 144 274 144 274 144 240 c 0,85,86
 144 204 144 204 169.5 176 c 128,-1,87
 195 148 195 148 232 125 c 1,76,77
EndSplineSet
EndChar

StartChar: copyright
Encoding: 169 169 118
Width: 806
Flags: W
LayerCount: 2
Fore
SplineSet
475 688 m 0,0,1
 546 688 546 688 604 666.5 c 128,-1,2
 662 645 662 645 703 607 c 128,-1,3
 744 569 744 569 766 515 c 128,-1,4
 788 461 788 461 788 397 c 0,5,6
 788 313 788 313 753.5 236.5 c 128,-1,7
 719 160 719 160 659 101 c 128,-1,8
 599 42 599 42 519 7 c 128,-1,9
 439 -28 439 -28 349 -28 c 0,10,11
 278 -28 278 -28 220 -6.5 c 128,-1,12
 162 15 162 15 121 53 c 128,-1,13
 80 91 80 91 58 144.5 c 128,-1,14
 36 198 36 198 36 262 c 0,15,16
 36 346 36 346 70.5 423 c 128,-1,17
 105 500 105 500 164.5 559 c 128,-1,18
 224 618 224 618 304 653 c 128,-1,19
 384 688 384 688 475 688 c 0,0,1
356 17 m 0,20,21
 431 17 431 17 496.5 48 c 128,-1,22
 562 79 562 79 611.5 131 c 128,-1,23
 661 183 661 183 689.5 251.5 c 128,-1,24
 718 320 718 320 718 395 c 0,25,26
 718 450 718 450 700.5 496 c 128,-1,27
 683 542 683 542 650.5 574.5 c 128,-1,28
 618 607 618 607 571.5 625 c 128,-1,29
 525 643 525 643 467 643 c 0,30,31
 392 643 392 643 326 612 c 128,-1,32
 260 581 260 581 211 528.5 c 128,-1,33
 162 476 162 476 134 407.5 c 128,-1,34
 106 339 106 339 106 263 c 0,35,36
 106 208 106 208 123.5 162.5 c 128,-1,37
 141 117 141 117 173.5 85 c 128,-1,38
 206 53 206 53 252 35 c 128,-1,39
 298 17 298 17 356 17 c 0,20,21
576 409 m 1,40,41
 575 473 575 473 549.5 503 c 128,-1,42
 524 533 524 533 467 533 c 0,43,44
 419 533 419 533 385 508 c 128,-1,45
 351 483 351 483 329 444.5 c 128,-1,46
 307 406 307 406 296.5 360 c 128,-1,47
 286 314 286 314 286 272 c 0,48,49
 286 244 286 244 292 219 c 128,-1,50
 298 194 298 194 311.5 175 c 128,-1,51
 325 156 325 156 346 145 c 128,-1,52
 367 134 367 134 397 134 c 0,53,54
 483 134 483 134 558 230 c 1,55,-1
 580 212 l 1,56,57
 537 152 537 152 486.5 127 c 128,-1,58
 436 102 436 102 371 102 c 0,59,60
 328 102 328 102 294.5 115.5 c 128,-1,61
 261 129 261 129 238.5 152.5 c 128,-1,62
 216 176 216 176 204 208.5 c 128,-1,63
 192 241 192 241 192 280 c 0,64,65
 192 329 192 329 211.5 380 c 128,-1,66
 231 431 231 431 266 472 c 128,-1,67
 301 513 301 513 348.5 539 c 128,-1,68
 396 565 396 565 453 565 c 0,69,70
 476 565 476 565 504 561.5 c 128,-1,71
 532 558 532 558 556.5 547.5 c 128,-1,72
 581 537 581 537 597.5 518.5 c 128,-1,73
 614 500 614 500 614 469 c 0,74,75
 614 456 614 456 612 442 c 128,-1,76
 610 428 610 428 608 414 c 0,77,78
 608 412 608 412 607.5 411.5 c 128,-1,79
 607 411 607 411 607 409 c 1,80,-1
 576 409 l 1,40,41
EndSplineSet
EndChar

StartChar: guillemotleft
Encoding: 171 171 119
Width: 428
Flags: W
LayerCount: 2
Fore
SplineSet
326 370 m 1,0,-1
 390 370 l 1,1,-1
 302 225 l 1,2,-1
 339 80 l 1,3,-1
 275 80 l 1,4,-1
 198 225 l 1,5,-1
 326 370 l 1,0,-1
211 30 m 1,6,-1
 147 30 l 1,7,-1
 23 225 l 1,8,-1
 216 420 l 1,9,-1
 280 420 l 1,10,-1
 148 226 l 1,11,-1
 211 30 l 1,6,-1
EndSplineSet
EndChar

StartChar: logicalnot
Encoding: 172 172 120
Width: 665
Flags: W
LayerCount: 2
Fore
SplineSet
504 220 m 1,0,-1
 49 220 l 1,1,-1
 62 290 l 1,2,-1
 607 290 l 1,3,-1
 576 115 l 1,4,-1
 486 115 l 1,5,-1
 504 220 l 1,0,-1
EndSplineSet
EndChar

StartChar: registered
Encoding: 174 174 121
Width: 806
Flags: W
LayerCount: 2
Fore
SplineSet
474 685 m 0,0,1
 545 685 545 685 603 664 c 128,-1,2
 661 643 661 643 702 605 c 128,-1,3
 743 567 743 567 765.5 514 c 128,-1,4
 788 461 788 461 788 397 c 0,5,6
 788 313 788 313 753.5 236.5 c 128,-1,7
 719 160 719 160 659 102 c 128,-1,8
 599 44 599 44 519 9.5 c 128,-1,9
 439 -25 439 -25 349 -25 c 0,10,11
 278 -25 278 -25 220 -4 c 128,-1,12
 162 17 162 17 121 55 c 128,-1,13
 80 93 80 93 58 145.5 c 128,-1,14
 36 198 36 198 36 262 c 0,15,16
 36 346 36 346 70.5 422.5 c 128,-1,17
 105 499 105 499 164.5 557.5 c 128,-1,18
 224 616 224 616 303.5 650.5 c 128,-1,19
 383 685 383 685 474 685 c 0,0,1
357 20 m 0,20,21
 432 20 432 20 497.5 50.5 c 128,-1,22
 563 81 563 81 612 132.5 c 128,-1,23
 661 184 661 184 689.5 252 c 128,-1,24
 718 320 718 320 718 395 c 0,25,26
 718 450 718 450 700.5 495.5 c 128,-1,27
 683 541 683 541 650 573 c 128,-1,28
 617 605 617 605 570.5 622.5 c 128,-1,29
 524 640 524 640 466 640 c 0,30,31
 391 640 391 640 325.5 609.5 c 128,-1,32
 260 579 260 579 211 527.5 c 128,-1,33
 162 476 162 476 134 408 c 128,-1,34
 106 340 106 340 106 264 c 0,35,36
 106 209 106 209 123.5 164 c 128,-1,37
 141 119 141 119 173.5 87 c 128,-1,38
 206 55 206 55 252.5 37.5 c 128,-1,39
 299 20 299 20 357 20 c 0,20,21
390 349 m 0,40,41
 437 349 437 349 465 381 c 128,-1,42
 493 413 493 413 493 461 c 0,43,44
 493 496 493 496 473 511 c 128,-1,45
 453 526 453 526 421 526 c 0,46,47
 413 526 413 526 407.5 525.5 c 128,-1,48
 402 525 402 525 397 525 c 0,49,50
 392 524 392 524 387 524 c 1,51,-1
 356 351 l 1,52,53
 362 350 362 350 367 350 c 0,54,55
 372 349 372 349 377.5 349 c 128,-1,56
 383 349 383 349 390 349 c 0,40,41
371 320 m 1,57,-1
 351 320 l 1,58,-1
 317 125 l 1,59,-1
 229 125 l 1,60,-1
 291 477 l 2,61,62
 293 487 293 487 294 495 c 128,-1,63
 295 503 295 503 295 510 c 0,64,65
 295 539 295 539 272 539 c 2,66,-1
 254 539 l 1,67,-1
 256 555 l 1,68,-1
 429 555 l 2,69,70
 460 555 460 555 488.5 550.5 c 128,-1,71
 517 546 517 546 539 535 c 128,-1,72
 561 524 561 524 574 505 c 128,-1,73
 587 486 587 486 587 458 c 0,74,75
 587 405 587 405 552 372.5 c 128,-1,76
 517 340 517 340 463 326 c 1,77,-1
 512 216 l 2,78,79
 528 180 528 180 543.5 161 c 128,-1,80
 559 142 559 142 582 139 c 1,81,-1
 580 125 l 2,82,83
 579 124 579 124 565.5 121 c 128,-1,84
 552 118 552 118 526 118 c 0,85,86
 488 118 488 118 465 138.5 c 128,-1,87
 442 159 442 159 419 212 c 2,88,-1
 371 320 l 1,57,-1
EndSplineSet
EndChar

StartChar: questiondown
Encoding: 191 191 122
Width: 492
Flags: W
LayerCount: 2
Fore
SplineSet
192 -167 m 0,0,1
 250 -167 250 -167 302 -123.5 c 128,-1,2
 354 -80 354 -80 391 21 c 1,3,-1
 421 21 l 1,4,5
 413 -23 413 -23 402.5 -64 c 128,-1,6
 392 -105 392 -105 367 -130 c 0,7,8
 351 -147 351 -147 327.5 -161.5 c 128,-1,9
 304 -176 304 -176 275.5 -187.5 c 128,-1,10
 247 -199 247 -199 216 -205.5 c 128,-1,11
 185 -212 185 -212 154 -212 c 0,12,13
 113 -212 113 -212 79.5 -202 c 128,-1,14
 46 -192 46 -192 21.5 -172.5 c 128,-1,15
 -3 -153 -3 -153 -16.5 -124 c 128,-1,16
 -30 -95 -30 -95 -30 -58 c 0,17,18
 -30 -10 -30 -10 -13 25.5 c 128,-1,19
 4 61 4 61 30.5 90 c 128,-1,20
 57 119 57 119 88.5 143.5 c 128,-1,21
 120 168 120 168 149 193 c 128,-1,22
 178 218 178 218 200.5 246.5 c 128,-1,23
 223 275 223 275 232 312 c 1,24,-1
 300 312 l 1,25,26
 286 256 286 256 254.5 213 c 128,-1,27
 223 170 223 170 190.5 128 c 128,-1,28
 158 86 158 86 133.5 38.5 c 128,-1,29
 109 -9 109 -9 109 -73 c 0,30,31
 109 -126 109 -126 132 -146.5 c 128,-1,32
 155 -167 155 -167 192 -167 c 0,0,1
223 406 m 0,33,34
 223 435 223 435 242 458.5 c 128,-1,35
 261 482 261 482 295 482 c 0,36,37
 321 482 321 482 334 469 c 128,-1,38
 347 456 347 456 347 434 c 0,39,40
 347 405 347 405 326.5 382.5 c 128,-1,41
 306 360 306 360 274 360 c 0,42,43
 249 360 249 360 236 372.5 c 128,-1,44
 223 385 223 385 223 406 c 0,33,34
EndSplineSet
EndChar

StartChar: OE
Encoding: 338 338 123
Width: 958
Flags: W
LayerCount: 2
Fore
SplineSet
40 256 m 0,0,1
 40 334 40 334 69 410 c 128,-1,2
 98 486 98 486 150.5 546 c 128,-1,3
 203 606 203 606 276.5 643 c 128,-1,4
 350 680 350 680 438 680 c 0,5,6
 480 680 480 680 504.5 674 c 128,-1,7
 529 668 529 668 550 660 c 1,8,-1
 881 660 l 2,9,10
 924 660 924 660 939 643 c 128,-1,11
 954 626 954 626 954 602 c 0,12,13
 954 599 954 599 953.5 595 c 128,-1,14
 953 591 953 591 951.5 580.5 c 128,-1,15
 950 570 950 570 946.5 549.5 c 128,-1,16
 943 529 943 529 937 495 c 1,17,-1
 907 495 l 1,18,19
 910 513 910 513 910 528 c 0,20,21
 910 574 910 574 882.5 594.5 c 128,-1,22
 855 615 855 615 803 615 c 2,23,-1
 642 615 l 1,24,-1
 598 365 l 1,25,-1
 858 365 l 1,26,-1
 850 320 l 1,27,-1
 590 320 l 1,28,-1
 541 45 l 1,29,-1
 712 45 l 2,30,31
 767 45 767 45 810 69.5 c 128,-1,32
 853 94 853 94 891 159 c 1,33,-1
 916 149 l 1,34,-1
 873 70 l 2,35,36
 856 38 856 38 835.5 19 c 128,-1,37
 815 0 815 0 774 0 c 2,38,-1
 434 0 l 1,39,40
 406 -11 406 -11 377.5 -15.5 c 128,-1,41
 349 -20 349 -20 315 -20 c 0,42,43
 250 -20 250 -20 199 0.5 c 128,-1,44
 148 21 148 21 112.5 57.5 c 128,-1,45
 77 94 77 94 58.5 145 c 128,-1,46
 40 196 40 196 40 256 c 0,0,1
323 25 m 0,47,48
 369 25 369 25 412 48 c 1,49,-1
 511 611 l 1,50,51
 478 635 478 635 430 635 c 0,52,53
 384 635 384 635 347 615 c 128,-1,54
 310 595 310 595 281.5 561.5 c 128,-1,55
 253 528 253 528 233 485 c 128,-1,56
 213 442 213 442 200.5 396 c 128,-1,57
 188 350 188 350 182 304.5 c 128,-1,58
 176 259 176 259 176 221 c 0,59,60
 176 127 176 127 213.5 76 c 128,-1,61
 251 25 251 25 323 25 c 0,47,48
EndSplineSet
EndChar

StartChar: Ydieresis
Encoding: 376 376 124
Width: 639
Flags: W
LayerCount: 2
Fore
SplineSet
408 758 m 0,0,1
 408 732 408 732 389 711 c 128,-1,2
 370 690 370 690 341 690 c 0,3,4
 318 690 318 690 306 703 c 128,-1,5
 294 716 294 716 294 736 c 0,6,7
 294 762 294 762 313.5 782 c 128,-1,8
 333 802 333 802 361 802 c 0,9,10
 384 802 384 802 396 789.5 c 128,-1,11
 408 777 408 777 408 758 c 0,0,1
385 345 m 1,12,-1
 635 660 l 1,13,-1
 700 660 l 1,14,-1
 408 291 l 1,15,-1
 357 0 l 1,16,-1
 227 0 l 1,17,-1
 273 264 l 1,18,-1
 143 530 l 2,19,20
 134 549 134 549 121 568 c 128,-1,21
 108 587 108 587 93 602.5 c 128,-1,22
 78 618 78 618 61.5 628 c 128,-1,23
 45 638 45 638 29 640 c 1,24,-1
 33 660 l 1,25,-1
 142 660 l 2,26,27
 170 660 170 660 192.5 650 c 128,-1,28
 215 640 215 640 232.5 624 c 128,-1,29
 250 608 250 608 263 588.5 c 128,-1,30
 276 569 276 569 285 550 c 2,31,-1
 385 345 l 1,12,-1
578 758 m 0,32,33
 578 732 578 732 559 711 c 128,-1,34
 540 690 540 690 511 690 c 0,35,36
 488 690 488 690 476 703 c 128,-1,37
 464 716 464 716 464 736 c 0,38,39
 464 762 464 762 483.5 782 c 128,-1,40
 503 802 503 802 531 802 c 0,41,42
 554 802 554 802 566 789.5 c 128,-1,43
 578 777 578 777 578 758 c 0,32,33
EndSplineSet
EndChar

StartChar: oe
Encoding: 339 339 125
Width: 848
Flags: W
LayerCount: 2
Fore
SplineSet
234 35 m 0,0,1
 275 35 275 35 303 66 c 128,-1,2
 331 97 331 97 348.5 140.5 c 128,-1,3
 366 184 366 184 373.5 232 c 128,-1,4
 381 280 381 280 381 313 c 0,5,6
 381 369 381 369 362.5 402 c 128,-1,7
 344 435 344 435 304 435 c 0,8,9
 263 435 263 435 235 404 c 128,-1,10
 207 373 207 373 189.5 329.5 c 128,-1,11
 172 286 172 286 164.5 238 c 128,-1,12
 157 190 157 190 157 157 c 0,13,14
 157 101 157 101 175.5 68 c 128,-1,15
 194 35 194 35 234 35 c 0,0,1
617 255 m 2,16,17
 657 255 657 255 677.5 285 c 128,-1,18
 698 315 698 315 698 357 c 0,19,20
 698 396 698 396 680 415.5 c 128,-1,21
 662 435 662 435 639 435 c 0,22,23
 620 435 620 435 601 425 c 128,-1,24
 582 415 582 415 565 393.5 c 128,-1,25
 548 372 548 372 534.5 338 c 128,-1,26
 521 304 521 304 512 255 c 1,27,-1
 617 255 l 2,16,17
505 210 m 1,28,29
 502 199 502 199 500.5 180 c 128,-1,30
 499 161 499 161 499 145 c 0,31,32
 499 85 499 85 522.5 60 c 128,-1,33
 546 35 546 35 584 35 c 0,34,35
 636 35 636 35 672.5 59 c 128,-1,36
 709 83 709 83 741 118 c 1,37,-1
 768 95 l 1,38,39
 754 78 754 78 735.5 59.5 c 128,-1,40
 717 41 717 41 692 25.5 c 128,-1,41
 667 10 667 10 634.5 0 c 128,-1,42
 602 -10 602 -10 561 -10 c 0,43,44
 510 -10 510 -10 471.5 7 c 128,-1,45
 433 24 433 24 408 56 c 1,46,47
 372 25 372 25 326 7.5 c 128,-1,48
 280 -10 280 -10 226 -10 c 0,49,50
 177 -10 177 -10 139 4.5 c 128,-1,51
 101 19 101 19 75.5 45 c 128,-1,52
 50 71 50 71 37 106.5 c 128,-1,53
 24 142 24 142 24 184 c 0,54,55
 24 240 24 240 45.5 293.5 c 128,-1,56
 67 347 67 347 105.5 388.5 c 128,-1,57
 144 430 144 430 196.5 455 c 128,-1,58
 249 480 249 480 312 480 c 0,59,60
 365 480 365 480 404 463 c 128,-1,61
 443 446 443 446 469 417 c 1,62,63
 540 480 540 480 637 480 c 0,64,65
 732 480 732 480 780 446.5 c 128,-1,66
 828 413 828 413 828 356 c 0,67,68
 828 311 828 311 809.5 283 c 128,-1,69
 791 255 791 255 760.5 238.5 c 128,-1,70
 730 222 730 222 691 216 c 128,-1,71
 652 210 652 210 610 210 c 2,72,-1
 505 210 l 1,28,29
EndSplineSet
EndChar

StartChar: ordmasculine
Encoding: 186 186 126
Width: 338
Flags: W
LayerCount: 2
Fore
SplineSet
236 664 m 0,0,1
 211 664 211 664 194.5 638.5 c 128,-1,2
 178 613 178 613 168.5 578.5 c 128,-1,3
 159 544 159 544 155 509 c 128,-1,4
 151 474 151 474 151 455 c 0,5,6
 151 419 151 419 161.5 405.5 c 128,-1,7
 172 392 172 392 188 392 c 0,8,9
 213 392 213 392 229.5 417.5 c 128,-1,10
 246 443 246 443 255.5 477 c 128,-1,11
 265 511 265 511 269 546 c 128,-1,12
 273 581 273 581 273 601 c 0,13,14
 273 637 273 637 263 650.5 c 128,-1,15
 253 664 253 664 236 664 c 0,0,1
240 689 m 0,16,17
 295 689 295 689 318.5 656.5 c 128,-1,18
 342 624 342 624 342 576 c 0,19,20
 342 543 342 543 333 506 c 128,-1,21
 324 469 324 469 304.5 438.5 c 128,-1,22
 285 408 285 408 255 387.5 c 128,-1,23
 225 367 225 367 183 367 c 0,24,25
 128 367 128 367 105 400 c 128,-1,26
 82 433 82 433 82 482 c 0,27,28
 82 515 82 515 91 551.5 c 128,-1,29
 100 588 100 588 119.5 618.5 c 128,-1,30
 139 649 139 649 169 669 c 128,-1,31
 199 689 199 689 240 689 c 0,16,17
EndSplineSet
EndChar

StartChar: mu
Encoding: 181 181 127
Width: 552
Flags: W
LayerCount: 2
Fore
SplineSet
223 -10 m 0,0,1
 193 -10 193 -10 171 1 c 128,-1,2
 149 12 149 12 131 35 c 1,3,-1
 91 -190 l 1,4,-1
 -19 -190 l 1,5,-1
 97 470 l 1,6,-1
 227 470 l 1,7,-1
 186 235 l 2,8,9
 177 182 177 182 177 144 c 0,10,11
 177 88 177 88 195 61.5 c 128,-1,12
 213 35 213 35 246 35 c 0,13,14
 280 35 280 35 303 54.5 c 128,-1,15
 326 74 326 74 342 100 c 1,16,-1
 407 470 l 1,17,-1
 537 470 l 1,18,-1
 455 0 l 1,19,-1
 370 0 l 1,20,-1
 342 45 l 1,21,-1
 337 45 l 1,22,23
 324 29 324 29 306 17 c 0,24,25
 291 6 291 6 270 -2 c 128,-1,26
 249 -10 249 -10 223 -10 c 0,0,1
EndSplineSet
EndChar

StartChar: ordfeminine
Encoding: 170 170 128
Width: 323
Flags: W
LayerCount: 2
Fore
SplineSet
238 522 m 1,0,-1
 222 522 l 2,1,2
 194 522 194 522 169.5 504.5 c 128,-1,3
 145 487 145 487 145 453 c 0,4,5
 145 435 145 435 154 428 c 128,-1,6
 163 421 163 421 174 421 c 0,7,8
 191 421 191 421 204.5 432.5 c 128,-1,9
 218 444 218 444 226 455 c 1,10,-1
 238 522 l 1,0,-1
242 401 m 1,11,-1
 225 426 l 1,12,13
 214 416 214 416 196 406 c 128,-1,14
 178 396 178 396 150 396 c 0,15,16
 118 396 118 396 95.5 408.5 c 128,-1,17
 73 421 73 421 73 451 c 0,18,19
 73 479 73 479 87.5 497.5 c 128,-1,20
 102 516 102 516 124 527 c 128,-1,21
 146 538 146 538 173 542.5 c 128,-1,22
 200 547 200 547 226 547 c 2,23,-1
 242 547 l 1,24,25
 244 559 244 559 245 568.5 c 128,-1,26
 246 578 246 578 246 586 c 0,27,28
 246 617 246 617 235 626 c 128,-1,29
 224 635 224 635 211 635 c 0,30,31
 183 635 183 635 167.5 621 c 128,-1,32
 152 607 152 607 142 583 c 1,33,-1
 113 583 l 1,34,35
 115 597 115 597 120 613.5 c 128,-1,36
 125 630 125 630 138 641 c 1,37,38
 149 652 149 652 173.5 656 c 128,-1,39
 198 660 198 660 226 660 c 0,40,41
 245 660 245 660 262 657 c 128,-1,42
 279 654 279 654 291.5 646 c 128,-1,43
 304 638 304 638 311 623 c 128,-1,44
 318 608 318 608 318 584 c 0,45,46
 318 580 318 580 317 573.5 c 128,-1,47
 316 567 316 567 313 548.5 c 128,-1,48
 310 530 310 530 304 495.5 c 128,-1,49
 298 461 298 461 288 401 c 1,50,-1
 242 401 l 1,11,-1
EndSplineSet
EndChar

StartChar: dieresis
Encoding: 168 168 129
Width: 282
Flags: W
LayerCount: 2
Fore
SplineSet
194 758 m 0,0,1
 194 732 194 732 175 711 c 128,-1,2
 156 690 156 690 127 690 c 0,3,4
 104 690 104 690 92 703 c 128,-1,5
 80 716 80 716 80 736 c 0,6,7
 80 762 80 762 99.5 782 c 128,-1,8
 119 802 119 802 147 802 c 0,9,10
 170 802 170 802 182 789.5 c 128,-1,11
 194 777 194 777 194 758 c 0,0,1
297 690 m 1,12,13
 274 690 274 690 262 703 c 128,-1,14
 250 716 250 716 250 736 c 0,15,16
 250 762 250 762 269.5 782 c 128,-1,17
 289 802 289 802 317 802 c 0,18,19
 340 802 340 802 352 789.5 c 128,-1,20
 364 777 364 777 364 758 c 0,21,22
 364 750 364 750 363 746 c 1,23,-1
 297 690 l 1,12,13
EndSplineSet
EndChar

StartChar: circumflex
Encoding: 710 710 130
Width: 330
Flags: W
LayerCount: 2
Fore
SplineSet
245 740 m 1,0,-1
 146 660 l 1,1,-1
 86 660 l 1,2,-1
 188 785 l 1,3,-1
 318 785 l 1,4,-1
 376 660 l 1,5,-1
 316 660 l 1,6,-1
 245 740 l 1,0,-1
EndSplineSet
EndChar

StartChar: acute
Encoding: 180 180 131
Width: 201
Flags: W
LayerCount: 2
Fore
SplineSet
148 700 m 1,0,-1
 93 700 l 1,1,-1
 160 840 l 1,2,-1
 279 840 l 1,3,-1
 148 700 l 1,0,-1
EndSplineSet
EndChar

StartChar: cedilla
Encoding: 184 184 132
Width: 200
Flags: W
LayerCount: 2
Fore
SplineSet
-5 0 m 1,0,-1
 60 0 l 1,1,-1
 51 -50 l 1,2,3
 88 -50 88 -50 108 -67 c 128,-1,4
 128 -84 128 -84 128 -113 c 0,5,6
 128 -136 128 -136 118.5 -153 c 128,-1,7
 109 -170 109 -170 94 -182 c 128,-1,8
 79 -194 79 -194 60.5 -200 c 128,-1,9
 42 -206 42 -206 23 -206 c 2,10,-1
 -47 -206 l 1,11,-1
 -39 -160 l 1,12,-1
 11 -160 l 2,13,14
 30 -160 30 -160 42.5 -150 c 128,-1,15
 55 -140 55 -140 57 -123 c 1,16,17
 57 -111 57 -111 48.5 -103 c 128,-1,18
 40 -95 40 -95 23 -95 c 2,19,-1
 -22 -95 l 1,20,-1
 -5 0 l 1,0,-1
EndSplineSet
EndChar

StartChar: tilde
Encoding: 732 732 133
Width: 275
Flags: W
LayerCount: 2
Fore
SplineSet
89 680 m 1,0,1
 100 740 100 740 122.5 760 c 128,-1,2
 145 780 145 780 175 780 c 0,3,4
 192 780 192 780 203.5 773.5 c 128,-1,5
 215 767 215 767 224 759.5 c 128,-1,6
 233 752 233 752 241.5 746 c 128,-1,7
 250 740 250 740 260 740 c 0,8,9
 277 740 277 740 288.5 752.5 c 128,-1,10
 300 765 300 765 302 780 c 1,11,-1
 342 780 l 1,12,13
 331 720 331 720 309 700 c 128,-1,14
 287 680 287 680 257 680 c 0,15,16
 240 680 240 680 228.5 686 c 128,-1,17
 217 692 217 692 207.5 699.5 c 128,-1,18
 198 707 198 707 189.5 713.5 c 128,-1,19
 181 720 181 720 171 720 c 0,20,21
 154 720 154 720 143 707.5 c 128,-1,22
 132 695 132 695 129 680 c 1,23,-1
 89 680 l 1,0,1
EndSplineSet
EndChar

StartChar: periodcentered
Encoding: 183 183 134
Width: 227
Flags: W
LayerCount: 2
Fore
SplineSet
184 345 m 0,0,1
 184 316 184 316 164 293 c 128,-1,2
 144 270 144 270 111 270 c 0,3,4
 85 270 85 270 72.5 282.5 c 128,-1,5
 60 295 60 295 60 317 c 0,6,7
 60 346 60 346 80 369 c 128,-1,8
 100 392 100 392 133 392 c 0,9,10
 159 392 159 392 171.5 379.5 c 128,-1,11
 184 367 184 367 184 345 c 0,0,1
EndSplineSet
EndChar

StartChar: Agrave
Encoding: 192 192 138
Width: 647
Flags: W
LayerCount: 2
Fore
SplineSet
549 126 m 2,0,1
 560 82 560 82 581 56 c 128,-1,2
 602 30 602 30 635 26 c 1,3,-1
 631 1 l 1,4,5
 623 -1 623 -1 608 -2.5 c 128,-1,6
 593 -4 593 -4 582 -4 c 0,7,8
 558 -4 558 -4 531.5 0.5 c 128,-1,9
 505 5 505 5 481 18.5 c 128,-1,10
 457 32 457 32 437.5 57.5 c 128,-1,11
 418 83 418 83 408 126 c 2,12,-1
 395 182 l 1,13,-1
 129 182 l 1,14,-1
 15 0 l 1,15,-1
 -37 0 l 1,16,-1
 374 660 l 1,17,-1
 419 660 l 1,18,-1
 549 126 l 2,0,1
158 227 m 1,19,-1
 384 227 l 1,20,-1
 320 488 l 1,21,-1
 158 227 l 1,19,-1
292 840 m 1,22,-1
 411 840 l 1,23,-1
 428 700 l 1,24,-1
 373 700 l 1,25,-1
 292 840 l 1,22,-1
EndSplineSet
EndChar

StartChar: Aacute
Encoding: 193 193 139
Width: 647
Flags: W
LayerCount: 2
Fore
SplineSet
549 126 m 2,0,1
 560 82 560 82 581 56 c 128,-1,2
 602 30 602 30 635 26 c 1,3,-1
 631 1 l 1,4,5
 623 -1 623 -1 608 -2.5 c 128,-1,6
 593 -4 593 -4 582 -4 c 0,7,8
 558 -4 558 -4 531.5 0.5 c 128,-1,9
 505 5 505 5 481 18.5 c 128,-1,10
 457 32 457 32 437.5 57.5 c 128,-1,11
 418 83 418 83 408 126 c 2,12,-1
 395 182 l 1,13,-1
 129 182 l 1,14,-1
 15 0 l 1,15,-1
 -37 0 l 1,16,-1
 374 660 l 1,17,-1
 419 660 l 1,18,-1
 549 126 l 2,0,1
158 227 m 1,19,-1
 384 227 l 1,20,-1
 320 488 l 1,21,-1
 158 227 l 1,19,-1
434 700 m 1,22,-1
 379 700 l 1,23,-1
 446 840 l 1,24,-1
 565 840 l 1,25,-1
 434 700 l 1,22,-1
EndSplineSet
EndChar

StartChar: Acircumflex
Encoding: 194 194 140
Width: 647
Flags: W
LayerCount: 2
Fore
SplineSet
549 126 m 2,0,1
 560 82 560 82 581 56 c 128,-1,2
 602 30 602 30 635 26 c 1,3,-1
 631 1 l 1,4,5
 623 -1 623 -1 608 -2.5 c 128,-1,6
 593 -4 593 -4 582 -4 c 0,7,8
 558 -4 558 -4 531.5 0.5 c 128,-1,9
 505 5 505 5 481 18.5 c 128,-1,10
 457 32 457 32 437.5 57.5 c 128,-1,11
 418 83 418 83 408 126 c 2,12,-1
 395 182 l 1,13,-1
 129 182 l 1,14,-1
 15 0 l 1,15,-1
 -37 0 l 1,16,-1
 374 660 l 1,17,-1
 419 660 l 1,18,-1
 549 126 l 2,0,1
158 227 m 1,19,-1
 384 227 l 1,20,-1
 320 488 l 1,21,-1
 158 227 l 1,19,-1
412 765 m 1,22,-1
 313 685 l 1,23,-1
 253 685 l 1,24,-1
 355 810 l 1,25,-1
 485 810 l 1,26,-1
 543 685 l 1,27,-1
 483 685 l 1,28,-1
 412 765 l 1,22,-1
EndSplineSet
EndChar

StartChar: Atilde
Encoding: 195 195 141
Width: 647
Flags: W
LayerCount: 2
Fore
SplineSet
288 700 m 1,0,1
 299 760 299 760 321.5 780 c 128,-1,2
 344 800 344 800 374 800 c 0,3,4
 391 800 391 800 402.5 793.5 c 128,-1,5
 414 787 414 787 423 779.5 c 128,-1,6
 432 772 432 772 440.5 766 c 128,-1,7
 449 760 449 760 459 760 c 0,8,9
 476 760 476 760 487 772.5 c 128,-1,10
 498 785 498 785 501 800 c 1,11,-1
 541 800 l 1,12,13
 530 740 530 740 508 720 c 128,-1,14
 486 700 486 700 456 700 c 0,15,16
 439 700 439 700 427.5 706 c 128,-1,17
 416 712 416 712 406.5 719.5 c 128,-1,18
 397 727 397 727 388.5 733.5 c 128,-1,19
 380 740 380 740 370 740 c 0,20,21
 353 740 353 740 341.5 727.5 c 128,-1,22
 330 715 330 715 328 700 c 1,23,-1
 288 700 l 1,0,1
549 126 m 2,24,25
 560 82 560 82 581 56 c 128,-1,26
 602 30 602 30 635 26 c 1,27,-1
 631 1 l 1,28,29
 623 -1 623 -1 608 -2.5 c 128,-1,30
 593 -4 593 -4 582 -4 c 0,31,32
 558 -4 558 -4 531.5 0.5 c 128,-1,33
 505 5 505 5 481 18.5 c 128,-1,34
 457 32 457 32 437.5 57.5 c 128,-1,35
 418 83 418 83 408 126 c 2,36,-1
 395 182 l 1,37,-1
 129 182 l 1,38,-1
 15 0 l 1,39,-1
 -37 0 l 1,40,-1
 374 660 l 1,41,-1
 419 660 l 1,42,-1
 549 126 l 2,24,25
158 227 m 1,43,-1
 384 227 l 1,44,-1
 320 488 l 1,45,-1
 158 227 l 1,43,-1
EndSplineSet
EndChar

StartChar: Adieresis
Encoding: 196 196 142
Width: 647
Flags: W
LayerCount: 2
Fore
SplineSet
549 126 m 2,0,1
 560 82 560 82 581 56 c 128,-1,2
 602 30 602 30 635 26 c 1,3,-1
 631 1 l 1,4,5
 623 -1 623 -1 608 -2.5 c 128,-1,6
 593 -4 593 -4 582 -4 c 0,7,8
 558 -4 558 -4 531.5 0.5 c 128,-1,9
 505 5 505 5 481 18.5 c 128,-1,10
 457 32 457 32 437.5 57.5 c 128,-1,11
 418 83 418 83 408 126 c 2,12,-1
 395 182 l 1,13,-1
 129 182 l 1,14,-1
 15 0 l 1,15,-1
 -37 0 l 1,16,-1
 374 660 l 1,17,-1
 419 660 l 1,18,-1
 549 126 l 2,0,1
158 227 m 1,19,-1
 384 227 l 1,20,-1
 320 488 l 1,21,-1
 158 227 l 1,19,-1
382 758 m 0,22,23
 382 732 382 732 363 711 c 128,-1,24
 344 690 344 690 315 690 c 0,25,26
 292 690 292 690 280 703 c 128,-1,27
 268 716 268 716 268 736 c 0,28,29
 268 762 268 762 287.5 782 c 128,-1,30
 307 802 307 802 335 802 c 0,31,32
 358 802 358 802 370 789.5 c 128,-1,33
 382 777 382 777 382 758 c 0,22,23
552 758 m 0,34,35
 552 732 552 732 533 711 c 128,-1,36
 514 690 514 690 485 690 c 0,37,38
 462 690 462 690 450 703 c 128,-1,39
 438 716 438 716 438 736 c 0,40,41
 438 762 438 762 457.5 782 c 128,-1,42
 477 802 477 802 505 802 c 0,43,44
 528 802 528 802 540 789.5 c 128,-1,45
 552 777 552 777 552 758 c 0,34,35
EndSplineSet
EndChar

StartChar: Aring
Encoding: 197 197 143
Width: 647
Flags: W
LayerCount: 2
Fore
SplineSet
501 724 m 0,0,1
 501 691 501 691 481 663 c 128,-1,2
 461 635 461 635 429 619 c 1,3,-1
 549 126 l 2,4,5
 560 82 560 82 581 56 c 128,-1,6
 602 30 602 30 635 26 c 1,7,-1
 631 1 l 1,8,9
 623 -1 623 -1 608 -2.5 c 128,-1,10
 593 -4 593 -4 582 -4 c 0,11,12
 558 -4 558 -4 531.5 0.5 c 128,-1,13
 505 5 505 5 481 18.5 c 128,-1,14
 457 32 457 32 437.5 57.5 c 128,-1,15
 418 83 418 83 408 126 c 2,16,-1
 395 182 l 1,17,-1
 129 182 l 1,18,-1
 15 0 l 1,19,-1
 -37 0 l 1,20,-1
 348 619 l 1,21,22
 334 627 334 627 320.5 644.5 c 128,-1,23
 307 662 307 662 307 688 c 0,24,25
 307 710 307 710 316 730 c 128,-1,26
 325 750 325 750 340.5 765.5 c 128,-1,27
 356 781 356 781 377 790.5 c 128,-1,28
 398 800 398 800 421 800 c 0,29,30
 457 800 457 800 479 779 c 128,-1,31
 501 758 501 758 501 724 c 0,0,1
158 227 m 1,32,-1
 384 227 l 1,33,-1
 320 488 l 1,34,-1
 158 227 l 1,32,-1
419 660 m 1,35,36
 433 668 433 668 441.5 682.5 c 128,-1,37
 450 697 450 697 450 716 c 0,38,39
 450 734 450 734 440 744.5 c 128,-1,40
 430 755 430 755 413 755 c 0,41,42
 390 755 390 755 374 736.5 c 128,-1,43
 358 718 358 718 358 693 c 0,44,45
 358 673 358 673 374 660 c 1,46,-1
 419 660 l 1,35,36
EndSplineSet
EndChar

StartChar: AE
Encoding: 198 198 144
Width: 873
Flags: W
LayerCount: 2
Fore
SplineSet
796 660 m 2,0,1
 839 660 839 660 854 643 c 128,-1,2
 869 626 869 626 869 602 c 0,3,4
 869 599 869 599 868.5 595 c 128,-1,5
 868 591 868 591 866.5 580.5 c 128,-1,6
 865 570 865 570 861.5 549.5 c 128,-1,7
 858 529 858 529 852 495 c 1,8,-1
 822 495 l 1,9,10
 825 513 825 513 825 528 c 0,11,12
 825 574 825 574 797.5 594.5 c 128,-1,13
 770 615 770 615 718 615 c 2,14,-1
 557 615 l 1,15,-1
 513 365 l 1,16,-1
 773 365 l 1,17,-1
 765 320 l 1,18,-1
 505 320 l 1,19,-1
 456 45 l 1,20,-1
 627 45 l 2,21,22
 682 45 682 45 725 69.5 c 128,-1,23
 768 94 768 94 806 159 c 1,24,-1
 831 149 l 1,25,-1
 788 70 l 2,26,27
 771 38 771 38 750.5 19 c 128,-1,28
 730 0 730 0 689 0 c 2,29,-1
 319 0 l 1,30,-1
 352 190 l 1,31,-1
 134 190 l 1,32,-1
 -6 0 l 1,33,-1
 -66 0 l 1,34,-1
 420 660 l 1,35,-1
 796 660 l 2,0,1
360 235 m 1,36,-1
 421 579 l 1,37,-1
 167 235 l 1,38,-1
 360 235 l 1,36,-1
EndSplineSet
EndChar

StartChar: Ccedilla
Encoding: 199 199 145
Width: 683
Flags: W
LayerCount: 2
Fore
SplineSet
631 447 m 1,0,1
 629 538 629 538 586.5 586.5 c 128,-1,2
 544 635 544 635 461 635 c 0,3,4
 386 635 386 635 332 597 c 128,-1,5
 278 559 278 559 244 499.5 c 128,-1,6
 210 440 210 440 194 369 c 128,-1,7
 178 298 178 298 178 232 c 0,8,9
 178 188 178 188 187.5 150.5 c 128,-1,10
 197 113 197 113 218 85 c 128,-1,11
 239 57 239 57 272.5 41 c 128,-1,12
 306 25 306 25 354 25 c 0,13,14
 423 25 423 25 488.5 61.5 c 128,-1,15
 554 98 554 98 602 168 c 1,16,-1
 632 141 l 1,17,18
 573 61 573 61 503 22.5 c 128,-1,19
 433 -16 433 -16 336 -19 c 1,20,-1
 331 -50 l 1,21,22
 368 -50 368 -50 388 -67 c 128,-1,23
 408 -84 408 -84 408 -113 c 0,24,25
 408 -155 408 -155 377 -180.5 c 128,-1,26
 346 -206 346 -206 303 -206 c 2,27,-1
 233 -206 l 1,28,-1
 241 -160 l 1,29,-1
 291 -160 l 2,30,31
 310 -160 310 -160 322.5 -150 c 128,-1,32
 335 -140 335 -140 337 -123 c 1,33,34
 337 -111 337 -111 328.5 -103 c 128,-1,35
 320 -95 320 -95 303 -95 c 2,36,-1
 258 -95 l 1,37,-1
 272 -17 l 1,38,39
 215 -11 215 -11 171 11 c 128,-1,40
 127 33 127 33 98 67.5 c 128,-1,41
 69 102 69 102 54 147.5 c 128,-1,42
 39 193 39 193 39 246 c 0,43,44
 39 323 39 323 68.5 400.5 c 128,-1,45
 98 478 98 478 151.5 540 c 128,-1,46
 205 602 205 602 278.5 641 c 128,-1,47
 352 680 352 680 439 680 c 0,48,49
 470 680 470 680 510.5 675 c 128,-1,50
 551 670 551 670 587 655.5 c 128,-1,51
 623 641 623 641 648 614.5 c 128,-1,52
 673 588 673 588 673 545 c 0,53,54
 673 522 673 522 669.5 497.5 c 128,-1,55
 666 473 666 473 661 447 c 1,56,-1
 631 447 l 1,0,1
EndSplineSet
EndChar

StartChar: Egrave
Encoding: 200 200 146
Width: 602
Flags: W
LayerCount: 2
Fore
SplineSet
525 660 m 2,0,1
 568 660 568 660 583 643 c 128,-1,2
 598 626 598 626 598 602 c 0,3,4
 598 599 598 599 597.5 595 c 128,-1,5
 597 591 597 591 595.5 580.5 c 128,-1,6
 594 570 594 570 590.5 549.5 c 128,-1,7
 587 529 587 529 581 495 c 1,8,-1
 551 495 l 1,9,10
 554 513 554 513 554 528 c 0,11,12
 554 574 554 574 526.5 594.5 c 128,-1,13
 499 615 499 615 447 615 c 2,14,-1
 286 615 l 1,15,-1
 242 365 l 1,16,-1
 502 365 l 1,17,-1
 494 320 l 1,18,-1
 234 320 l 1,19,-1
 185 45 l 1,20,-1
 356 45 l 2,21,22
 411 45 411 45 454 69.5 c 128,-1,23
 497 94 497 94 535 159 c 1,24,-1
 560 149 l 1,25,-1
 517 70 l 2,26,27
 500 38 500 38 479.5 19 c 128,-1,28
 459 0 459 0 418 0 c 2,29,-1
 48 0 l 1,30,31
 72 137 72 137 88.5 231.5 c 128,-1,32
 105 326 105 326 116 389 c 128,-1,33
 127 452 127 452 133 487.5 c 128,-1,34
 139 523 139 523 142 541.5 c 128,-1,35
 145 560 145 560 145.5 566 c 128,-1,36
 146 572 146 572 146 575 c 0,37,38
 146 601 146 601 133.5 615.5 c 128,-1,39
 121 630 121 630 89 630 c 2,40,-1
 79 630 l 1,41,-1
 84 660 l 1,42,-1
 525 660 l 2,0,1
292 840 m 1,43,-1
 411 840 l 1,44,-1
 428 700 l 1,45,-1
 373 700 l 1,46,-1
 292 840 l 1,43,-1
EndSplineSet
EndChar

StartChar: Eacute
Encoding: 201 201 147
Width: 602
Flags: W
LayerCount: 2
Fore
SplineSet
525 660 m 2,0,1
 568 660 568 660 583 643 c 128,-1,2
 598 626 598 626 598 602 c 0,3,4
 598 599 598 599 597.5 595 c 128,-1,5
 597 591 597 591 595.5 580.5 c 128,-1,6
 594 570 594 570 590.5 549.5 c 128,-1,7
 587 529 587 529 581 495 c 1,8,-1
 551 495 l 1,9,10
 554 513 554 513 554 528 c 0,11,12
 554 574 554 574 526.5 594.5 c 128,-1,13
 499 615 499 615 447 615 c 2,14,-1
 286 615 l 1,15,-1
 242 365 l 1,16,-1
 502 365 l 1,17,-1
 494 320 l 1,18,-1
 234 320 l 1,19,-1
 185 45 l 1,20,-1
 356 45 l 2,21,22
 411 45 411 45 454 69.5 c 128,-1,23
 497 94 497 94 535 159 c 1,24,-1
 560 149 l 1,25,-1
 517 70 l 2,26,27
 500 38 500 38 479.5 19 c 128,-1,28
 459 0 459 0 418 0 c 2,29,-1
 48 0 l 1,30,31
 72 137 72 137 88.5 231.5 c 128,-1,32
 105 326 105 326 116 389 c 128,-1,33
 127 452 127 452 133 487.5 c 128,-1,34
 139 523 139 523 142 541.5 c 128,-1,35
 145 560 145 560 145.5 566 c 128,-1,36
 146 572 146 572 146 575 c 0,37,38
 146 601 146 601 133.5 615.5 c 128,-1,39
 121 630 121 630 89 630 c 2,40,-1
 79 630 l 1,41,-1
 84 660 l 1,42,-1
 525 660 l 2,0,1
412 700 m 1,43,-1
 357 700 l 1,44,-1
 424 840 l 1,45,-1
 543 840 l 1,46,-1
 412 700 l 1,43,-1
EndSplineSet
EndChar

StartChar: Ecircumflex
Encoding: 202 202 148
Width: 602
Flags: W
LayerCount: 2
Fore
SplineSet
525 660 m 2,0,1
 568 660 568 660 583 643 c 128,-1,2
 598 626 598 626 598 602 c 0,3,4
 598 599 598 599 597.5 595 c 128,-1,5
 597 591 597 591 595.5 580.5 c 128,-1,6
 594 570 594 570 590.5 549.5 c 128,-1,7
 587 529 587 529 581 495 c 1,8,-1
 551 495 l 1,9,10
 554 513 554 513 554 528 c 0,11,12
 554 574 554 574 526.5 594.5 c 128,-1,13
 499 615 499 615 447 615 c 2,14,-1
 286 615 l 1,15,-1
 242 365 l 1,16,-1
 502 365 l 1,17,-1
 494 320 l 1,18,-1
 234 320 l 1,19,-1
 185 45 l 1,20,-1
 356 45 l 2,21,22
 411 45 411 45 454 69.5 c 128,-1,23
 497 94 497 94 535 159 c 1,24,-1
 560 149 l 1,25,-1
 517 70 l 2,26,27
 500 38 500 38 479.5 19 c 128,-1,28
 459 0 459 0 418 0 c 2,29,-1
 48 0 l 1,30,31
 72 137 72 137 88.5 231.5 c 128,-1,32
 105 326 105 326 116 389 c 128,-1,33
 127 452 127 452 133 487.5 c 128,-1,34
 139 523 139 523 142 541.5 c 128,-1,35
 145 560 145 560 145.5 566 c 128,-1,36
 146 572 146 572 146 575 c 0,37,38
 146 601 146 601 133.5 615.5 c 128,-1,39
 121 630 121 630 89 630 c 2,40,-1
 79 630 l 1,41,-1
 84 660 l 1,42,-1
 525 660 l 2,0,1
399 802 m 1,43,-1
 300 722 l 1,44,-1
 240 722 l 1,45,-1
 342 847 l 1,46,-1
 472 847 l 1,47,-1
 530 722 l 1,48,-1
 470 722 l 1,49,-1
 399 802 l 1,43,-1
EndSplineSet
EndChar

StartChar: Edieresis
Encoding: 203 203 149
Width: 602
Flags: W
LayerCount: 2
Fore
SplineSet
525 660 m 2,0,1
 568 660 568 660 583 643 c 128,-1,2
 598 626 598 626 598 602 c 0,3,4
 598 599 598 599 597.5 595 c 128,-1,5
 597 591 597 591 595.5 580.5 c 128,-1,6
 594 570 594 570 590.5 549.5 c 128,-1,7
 587 529 587 529 581 495 c 1,8,-1
 551 495 l 1,9,10
 554 513 554 513 554 528 c 0,11,12
 554 574 554 574 526.5 594.5 c 128,-1,13
 499 615 499 615 447 615 c 2,14,-1
 286 615 l 1,15,-1
 242 365 l 1,16,-1
 502 365 l 1,17,-1
 494 320 l 1,18,-1
 234 320 l 1,19,-1
 185 45 l 1,20,-1
 356 45 l 2,21,22
 411 45 411 45 454 69.5 c 128,-1,23
 497 94 497 94 535 159 c 1,24,-1
 560 149 l 1,25,-1
 517 70 l 2,26,27
 500 38 500 38 479.5 19 c 128,-1,28
 459 0 459 0 418 0 c 2,29,-1
 48 0 l 1,30,31
 72 137 72 137 88.5 231.5 c 128,-1,32
 105 326 105 326 116 389 c 128,-1,33
 127 452 127 452 133 487.5 c 128,-1,34
 139 523 139 523 142 541.5 c 128,-1,35
 145 560 145 560 145.5 566 c 128,-1,36
 146 572 146 572 146 575 c 0,37,38
 146 601 146 601 133.5 615.5 c 128,-1,39
 121 630 121 630 89 630 c 2,40,-1
 79 630 l 1,41,-1
 84 660 l 1,42,-1
 525 660 l 2,0,1
360 798 m 0,43,44
 360 772 360 772 341 751 c 128,-1,45
 322 730 322 730 293 730 c 0,46,47
 270 730 270 730 258 743 c 128,-1,48
 246 756 246 756 246 776 c 0,49,50
 246 802 246 802 265.5 822 c 128,-1,51
 285 842 285 842 313 842 c 0,52,53
 336 842 336 842 348 829.5 c 128,-1,54
 360 817 360 817 360 798 c 0,43,44
540 798 m 0,55,56
 540 772 540 772 521 751 c 128,-1,57
 502 730 502 730 473 730 c 0,58,59
 450 730 450 730 438 743 c 128,-1,60
 426 756 426 756 426 776 c 0,61,62
 426 802 426 802 445.5 822 c 128,-1,63
 465 842 465 842 493 842 c 0,64,65
 516 842 516 842 528 829.5 c 128,-1,66
 540 817 540 817 540 798 c 0,55,56
EndSplineSet
EndChar

StartChar: Igrave
Encoding: 204 204 150
Width: 307
Flags: W
LayerCount: 2
Fore
SplineSet
148 660 m 1,0,-1
 278 660 l 1,1,-1
 184 130 l 2,2,3
 182 118 182 118 181 107.5 c 128,-1,4
 180 97 180 97 180 87 c 0,5,6
 180 61 180 61 192 45.5 c 128,-1,7
 204 30 204 30 237 30 c 2,8,-1
 247 30 l 1,9,-1
 242 0 l 1,10,-1
 122 0 l 2,11,12
 82 0 82 0 65 15 c 128,-1,13
 48 30 48 30 48 69 c 0,14,15
 48 94 48 94 54 130 c 2,16,-1
 148 660 l 1,0,-1
122 840 m 1,17,-1
 241 840 l 1,18,-1
 258 700 l 1,19,-1
 203 700 l 1,20,-1
 122 840 l 1,17,-1
EndSplineSet
EndChar

StartChar: Iacute
Encoding: 205 205 151
Width: 307
Flags: W
LayerCount: 2
Fore
SplineSet
148 660 m 1,0,-1
 278 660 l 1,1,-1
 184 130 l 2,2,3
 182 118 182 118 181 107.5 c 128,-1,4
 180 97 180 97 180 87 c 0,5,6
 180 61 180 61 192 45.5 c 128,-1,7
 204 30 204 30 237 30 c 2,8,-1
 247 30 l 1,9,-1
 242 0 l 1,10,-1
 122 0 l 2,11,12
 82 0 82 0 65 15 c 128,-1,13
 48 30 48 30 48 69 c 0,14,15
 48 94 48 94 54 130 c 2,16,-1
 148 660 l 1,0,-1
242 700 m 1,17,-1
 187 700 l 1,18,-1
 254 840 l 1,19,-1
 373 840 l 1,20,-1
 242 700 l 1,17,-1
EndSplineSet
EndChar

StartChar: Icircumflex
Encoding: 206 206 152
Width: 307
Flags: W
LayerCount: 2
Fore
SplineSet
148 660 m 1,0,-1
 278 660 l 1,1,-1
 184 130 l 2,2,3
 182 118 182 118 181 107.5 c 128,-1,4
 180 97 180 97 180 87 c 0,5,6
 180 61 180 61 192 45.5 c 128,-1,7
 204 30 204 30 237 30 c 2,8,-1
 247 30 l 1,9,-1
 242 0 l 1,10,-1
 122 0 l 2,11,12
 96 0 96 0 79.5 6 c 128,-1,13
 63 12 63 12 55.5 27 c 128,-1,14
 48 42 48 42 48 67 c 128,-1,15
 48 92 48 92 54 130 c 2,16,-1
 148 660 l 1,0,-1
231 765 m 1,17,-1
 132 685 l 1,18,-1
 72 685 l 1,19,-1
 174 810 l 1,20,-1
 304 810 l 1,21,-1
 362 685 l 1,22,-1
 302 685 l 1,23,-1
 231 765 l 1,17,-1
EndSplineSet
EndChar

StartChar: Idieresis
Encoding: 207 207 153
Width: 307
Flags: W
LayerCount: 2
Fore
SplineSet
148 660 m 1,0,-1
 278 660 l 1,1,-1
 184 130 l 2,2,3
 182 118 182 118 181 107.5 c 128,-1,4
 180 97 180 97 180 87 c 0,5,6
 180 61 180 61 192 45.5 c 128,-1,7
 204 30 204 30 237 30 c 2,8,-1
 247 30 l 1,9,-1
 242 0 l 1,10,-1
 122 0 l 2,11,12
 82 0 82 0 65 15 c 128,-1,13
 48 30 48 30 48 69 c 0,14,15
 48 94 48 94 54 130 c 2,16,-1
 148 660 l 1,0,-1
206 783 m 0,17,18
 206 757 206 757 187.5 736 c 128,-1,19
 169 715 169 715 140 715 c 0,20,21
 115 715 115 715 104 728 c 128,-1,22
 93 741 93 741 93 758 c 0,23,24
 93 770 93 770 97.5 782 c 128,-1,25
 102 794 102 794 111 804 c 128,-1,26
 120 814 120 814 132 820.5 c 128,-1,27
 144 827 144 827 159 827 c 0,28,29
 182 827 182 827 194 814.5 c 128,-1,30
 206 802 206 802 206 783 c 0,17,18
372 783 m 0,31,32
 372 757 372 757 353.5 736 c 128,-1,33
 335 715 335 715 306 715 c 0,34,35
 283 715 283 715 270.5 728 c 128,-1,36
 258 741 258 741 258 761 c 0,37,38
 258 787 258 787 277.5 807 c 128,-1,39
 297 827 297 827 325 827 c 0,40,41
 348 827 348 827 360 814.5 c 128,-1,42
 372 802 372 802 372 783 c 0,31,32
EndSplineSet
EndChar

StartChar: Ntilde
Encoding: 209 209 154
Width: 696
Flags: W
LayerCount: 2
Fore
SplineSet
557 200 m 1,0,-1
 638 660 l 1,1,-1
 688 660 l 1,2,-1
 571 -3 l 1,3,-1
 525 -3 l 1,4,-1
 189 495 l 1,5,-1
 102 0 l 1,6,-1
 52 0 l 1,7,8
 76 137 76 137 93 232 c 128,-1,9
 110 327 110 327 120.5 389 c 128,-1,10
 131 451 131 451 137 486 c 128,-1,11
 143 521 143 521 146 538 c 128,-1,12
 149 555 149 555 149.5 559.5 c 128,-1,13
 150 564 150 564 150 566 c 0,14,15
 150 594 150 594 133 612 c 128,-1,16
 116 630 116 630 73 630 c 2,17,-1
 68 630 l 1,18,-1
 73 660 l 1,19,-1
 143 660 l 2,20,21
 200 660 200 660 232.5 645 c 128,-1,22
 265 630 265 630 283 600 c 1,23,-1
 557 200 l 1,0,-1
311 694 m 1,24,25
 322 754 322 754 344.5 774 c 128,-1,26
 367 794 367 794 397 794 c 0,27,28
 414 794 414 794 425.5 787.5 c 128,-1,29
 437 781 437 781 446 773.5 c 128,-1,30
 455 766 455 766 463 760 c 128,-1,31
 471 754 471 754 481 754 c 0,32,33
 498 754 498 754 509.5 766.5 c 128,-1,34
 521 779 521 779 524 794 c 1,35,-1
 564 794 l 1,36,37
 553 734 553 734 531 714 c 128,-1,38
 509 694 509 694 479 694 c 0,39,40
 462 694 462 694 450.5 700 c 128,-1,41
 439 706 439 706 429.5 713.5 c 128,-1,42
 420 721 420 721 411.5 727.5 c 128,-1,43
 403 734 403 734 393 734 c 0,44,45
 376 734 376 734 364.5 721.5 c 128,-1,46
 353 709 353 709 351 694 c 1,47,-1
 311 694 l 1,24,25
EndSplineSet
EndChar

StartChar: Ograve
Encoding: 210 210 155
Width: 735
Flags: W
LayerCount: 2
Fore
SplineSet
342 864 m 1,0,-1
 461 864 l 1,1,-1
 478 724 l 1,2,-1
 423 724 l 1,3,-1
 342 864 l 1,0,-1
323 25 m 0,4,5
 370 25 370 25 407 45 c 128,-1,6
 444 65 444 65 472.5 98 c 128,-1,7
 501 131 501 131 521 173.5 c 128,-1,8
 541 216 541 216 553.5 262 c 128,-1,9
 566 308 566 308 572 353.5 c 128,-1,10
 578 399 578 399 578 438 c 0,11,12
 578 533 578 533 540 584 c 128,-1,13
 502 635 502 635 430 635 c 0,14,15
 384 635 384 635 347 615 c 128,-1,16
 310 595 310 595 281.5 561.5 c 128,-1,17
 253 528 253 528 233 485 c 128,-1,18
 213 442 213 442 200.5 396 c 128,-1,19
 188 350 188 350 182 304.5 c 128,-1,20
 176 259 176 259 176 221 c 0,21,22
 176 127 176 127 213.5 76 c 128,-1,23
 251 25 251 25 323 25 c 0,4,5
40 256 m 0,24,25
 40 334 40 334 69 410 c 128,-1,26
 98 486 98 486 150.5 546 c 128,-1,27
 203 606 203 606 276.5 643 c 128,-1,28
 350 680 350 680 438 680 c 0,29,30
 503 680 503 680 554 659.5 c 128,-1,31
 605 639 605 639 640.5 602.5 c 128,-1,32
 676 566 676 566 694.5 515 c 128,-1,33
 713 464 713 464 713 404 c 0,34,35
 713 326 713 326 684 250 c 128,-1,36
 655 174 655 174 602.5 114 c 128,-1,37
 550 54 550 54 476.5 17 c 128,-1,38
 403 -20 403 -20 315 -20 c 0,39,40
 250 -20 250 -20 199 0.5 c 128,-1,41
 148 21 148 21 112.5 57.5 c 128,-1,42
 77 94 77 94 58.5 145 c 128,-1,43
 40 196 40 196 40 256 c 0,24,25
EndSplineSet
EndChar

StartChar: Oacute
Encoding: 211 211 156
Width: 735
Flags: W
LayerCount: 2
Fore
SplineSet
472 724 m 1,0,-1
 417 724 l 1,1,-1
 484 864 l 1,2,-1
 603 864 l 1,3,-1
 472 724 l 1,0,-1
323 25 m 0,4,5
 370 25 370 25 407 45 c 128,-1,6
 444 65 444 65 472.5 98 c 128,-1,7
 501 131 501 131 521 173.5 c 128,-1,8
 541 216 541 216 553.5 262 c 128,-1,9
 566 308 566 308 572 353.5 c 128,-1,10
 578 399 578 399 578 438 c 0,11,12
 578 533 578 533 540 584 c 128,-1,13
 502 635 502 635 430 635 c 0,14,15
 384 635 384 635 347 615 c 128,-1,16
 310 595 310 595 281.5 561.5 c 128,-1,17
 253 528 253 528 233 485 c 128,-1,18
 213 442 213 442 200.5 396 c 128,-1,19
 188 350 188 350 182 304.5 c 128,-1,20
 176 259 176 259 176 221 c 0,21,22
 176 127 176 127 213.5 76 c 128,-1,23
 251 25 251 25 323 25 c 0,4,5
40 256 m 0,24,25
 40 334 40 334 69 410 c 128,-1,26
 98 486 98 486 150.5 546 c 128,-1,27
 203 606 203 606 276.5 643 c 128,-1,28
 350 680 350 680 438 680 c 0,29,30
 503 680 503 680 554 659.5 c 128,-1,31
 605 639 605 639 640.5 602.5 c 128,-1,32
 676 566 676 566 694.5 515 c 128,-1,33
 713 464 713 464 713 404 c 0,34,35
 713 326 713 326 684 250 c 128,-1,36
 655 174 655 174 602.5 114 c 128,-1,37
 550 54 550 54 476.5 17 c 128,-1,38
 403 -20 403 -20 315 -20 c 0,39,40
 250 -20 250 -20 199 0.5 c 128,-1,41
 148 21 148 21 112.5 57.5 c 128,-1,42
 77 94 77 94 58.5 145 c 128,-1,43
 40 196 40 196 40 256 c 0,24,25
EndSplineSet
EndChar

StartChar: Otilde
Encoding: 213 213 157
Width: 735
Flags: W
LayerCount: 2
Fore
SplineSet
331 738 m 1,0,1
 342 798 342 798 364 818 c 128,-1,2
 386 838 386 838 416 838 c 0,3,4
 433 838 433 838 444.5 831.5 c 128,-1,5
 456 825 456 825 465 817.5 c 128,-1,6
 474 810 474 810 482.5 804 c 128,-1,7
 491 798 491 798 501 798 c 0,8,9
 518 798 518 798 529.5 810.5 c 128,-1,10
 541 823 541 823 543 838 c 1,11,-1
 583 838 l 1,12,13
 572 778 572 778 550.5 758 c 128,-1,14
 529 738 529 738 499 738 c 0,15,16
 482 738 482 738 470.5 744 c 128,-1,17
 459 750 459 750 449.5 757.5 c 128,-1,18
 440 765 440 765 431.5 771.5 c 128,-1,19
 423 778 423 778 413 778 c 0,20,21
 396 778 396 778 384.5 765.5 c 128,-1,22
 373 753 373 753 371 738 c 1,23,-1
 331 738 l 1,0,1
323 25 m 0,24,25
 370 25 370 25 407 45 c 128,-1,26
 444 65 444 65 472.5 98 c 128,-1,27
 501 131 501 131 521 173.5 c 128,-1,28
 541 216 541 216 553.5 262 c 128,-1,29
 566 308 566 308 572 353.5 c 128,-1,30
 578 399 578 399 578 438 c 0,31,32
 578 533 578 533 540 584 c 128,-1,33
 502 635 502 635 430 635 c 0,34,35
 384 635 384 635 347 615 c 128,-1,36
 310 595 310 595 281.5 561.5 c 128,-1,37
 253 528 253 528 233 485 c 128,-1,38
 213 442 213 442 200.5 396 c 128,-1,39
 188 350 188 350 182 304.5 c 128,-1,40
 176 259 176 259 176 221 c 0,41,42
 176 127 176 127 213.5 76 c 128,-1,43
 251 25 251 25 323 25 c 0,24,25
40 256 m 0,44,45
 40 334 40 334 69 410 c 128,-1,46
 98 486 98 486 150.5 546 c 128,-1,47
 203 606 203 606 276.5 643 c 128,-1,48
 350 680 350 680 438 680 c 0,49,50
 503 680 503 680 554 659.5 c 128,-1,51
 605 639 605 639 640.5 602.5 c 128,-1,52
 676 566 676 566 694.5 515 c 128,-1,53
 713 464 713 464 713 404 c 0,54,55
 713 326 713 326 684 250 c 128,-1,56
 655 174 655 174 602.5 114 c 128,-1,57
 550 54 550 54 476.5 17 c 128,-1,58
 403 -20 403 -20 315 -20 c 0,59,60
 250 -20 250 -20 199 0.5 c 128,-1,61
 148 21 148 21 112.5 57.5 c 128,-1,62
 77 94 77 94 58.5 145 c 128,-1,63
 40 196 40 196 40 256 c 0,44,45
EndSplineSet
EndChar

StartChar: Odieresis
Encoding: 214 214 158
Width: 735
Flags: W
LayerCount: 2
Fore
SplineSet
425 801 m 0,0,1
 425 775 425 775 405.5 755 c 128,-1,2
 386 735 386 735 358 735 c 0,3,4
 335 735 335 735 323 748 c 128,-1,5
 311 761 311 761 311 781 c 0,6,7
 311 807 311 807 330.5 827 c 128,-1,8
 350 847 350 847 378 847 c 0,9,10
 401 847 401 847 413 834 c 128,-1,11
 425 821 425 821 425 801 c 0,0,1
605 801 m 0,12,13
 605 775 605 775 585.5 755 c 128,-1,14
 566 735 566 735 538 735 c 0,15,16
 515 735 515 735 503 748 c 128,-1,17
 491 761 491 761 491 781 c 0,18,19
 491 807 491 807 510.5 827 c 128,-1,20
 530 847 530 847 558 847 c 0,21,22
 581 847 581 847 593 834 c 128,-1,23
 605 821 605 821 605 801 c 0,12,13
323 25 m 0,24,25
 370 25 370 25 407 45 c 128,-1,26
 444 65 444 65 472.5 98 c 128,-1,27
 501 131 501 131 521 173.5 c 128,-1,28
 541 216 541 216 553.5 262 c 128,-1,29
 566 308 566 308 572 353.5 c 128,-1,30
 578 399 578 399 578 438 c 0,31,32
 578 533 578 533 540 584 c 128,-1,33
 502 635 502 635 430 635 c 0,34,35
 384 635 384 635 347 615 c 128,-1,36
 310 595 310 595 281.5 561.5 c 128,-1,37
 253 528 253 528 233 485 c 128,-1,38
 213 442 213 442 200.5 396 c 128,-1,39
 188 350 188 350 182 304.5 c 128,-1,40
 176 259 176 259 176 221 c 0,41,42
 176 127 176 127 213.5 76 c 128,-1,43
 251 25 251 25 323 25 c 0,24,25
40 256 m 0,44,45
 40 334 40 334 69 410 c 128,-1,46
 98 486 98 486 150.5 546 c 128,-1,47
 203 606 203 606 276.5 643 c 128,-1,48
 350 680 350 680 438 680 c 0,49,50
 503 680 503 680 554 659.5 c 128,-1,51
 605 639 605 639 640.5 602.5 c 128,-1,52
 676 566 676 566 694.5 515 c 128,-1,53
 713 464 713 464 713 404 c 0,54,55
 713 326 713 326 684 250 c 128,-1,56
 655 174 655 174 602.5 114 c 128,-1,57
 550 54 550 54 476.5 17 c 128,-1,58
 403 -20 403 -20 315 -20 c 0,59,60
 250 -20 250 -20 199 0.5 c 128,-1,61
 148 21 148 21 112.5 57.5 c 128,-1,62
 77 94 77 94 58.5 145 c 128,-1,63
 40 196 40 196 40 256 c 0,44,45
EndSplineSet
EndChar

StartChar: Oslash
Encoding: 216 216 159
Width: 734
Flags: W
LayerCount: 2
Fore
SplineSet
55 -20 m 1,0,-1
 113 56 l 1,1,2
 77 92 77 92 58.5 142.5 c 128,-1,3
 40 193 40 193 40 254 c 0,4,5
 40 332 40 332 69 408.5 c 128,-1,6
 98 485 98 485 150.5 545 c 128,-1,7
 203 605 203 605 276 642.5 c 128,-1,8
 349 680 349 680 438 680 c 0,9,10
 516 680 516 680 576 649 c 1,11,-1
 599 680 l 1,12,-1
 691 680 l 1,13,-1
 635 607 l 1,14,15
 673 570 673 570 692.5 518 c 128,-1,16
 712 466 712 466 712 403 c 0,17,18
 712 325 712 325 683 249.5 c 128,-1,19
 654 174 654 174 601.5 114 c 128,-1,20
 549 54 549 54 476 17 c 128,-1,21
 403 -20 403 -20 315 -20 c 0,22,23
 273 -20 273 -20 237.5 -11.5 c 128,-1,24
 202 -3 202 -3 173 13 c 1,25,-1
 147 -20 l 1,26,-1
 55 -20 l 1,0,-1
323 25 m 0,27,28
 370 25 370 25 407 45 c 128,-1,29
 444 65 444 65 472.5 98 c 128,-1,30
 501 131 501 131 521 174 c 128,-1,31
 541 217 541 217 553.5 262.5 c 128,-1,32
 566 308 566 308 572 353.5 c 128,-1,33
 578 399 578 399 578 438 c 0,34,35
 578 486 578 486 569 522 c 1,36,-1
 217 70 l 1,37,38
 254 25 254 25 323 25 c 0,27,28
430 635 m 0,39,40
 383 635 383 635 346 615 c 128,-1,41
 309 595 309 595 281 561.5 c 128,-1,42
 253 528 253 528 233 484.5 c 128,-1,43
 213 441 213 441 200.5 394.5 c 128,-1,44
 188 348 188 348 182 302 c 128,-1,45
 176 256 176 256 176 218 c 0,46,47
 176 198 176 198 178 180 c 128,-1,48
 180 162 180 162 183 145 c 1,49,-1
 532 593 l 1,50,51
 493 635 493 635 430 635 c 0,39,40
EndSplineSet
EndChar

StartChar: Ugrave
Encoding: 217 217 160
Width: 697
Flags: W
LayerCount: 2
Fore
SplineSet
359 820 m 1,0,-1
 478 820 l 1,1,-1
 495 680 l 1,2,-1
 440 680 l 1,3,-1
 359 820 l 1,0,-1
268 530 m 0,4,5
 255 454 255 454 246 400 c 128,-1,6
 237 346 237 346 231 308.5 c 128,-1,7
 225 271 225 271 221 247.5 c 128,-1,8
 217 224 217 224 215.5 210 c 128,-1,9
 214 196 214 196 213.5 188 c 128,-1,10
 213 180 213 180 213 174 c 0,11,12
 213 105 213 105 241 67.5 c 128,-1,13
 269 30 269 30 332 30 c 0,14,15
 387 30 387 30 428.5 45.5 c 128,-1,16
 470 61 470 61 500 92.5 c 128,-1,17
 530 124 530 124 549 172.5 c 128,-1,18
 568 221 568 221 580 288 c 2,19,-1
 646 660 l 1,20,-1
 696 660 l 1,21,-1
 630 288 l 2,22,23
 618 217 618 217 595 162 c 128,-1,24
 572 107 572 107 534.5 68.5 c 128,-1,25
 497 30 497 30 442.5 10 c 128,-1,26
 388 -10 388 -10 313 -10 c 0,27,28
 195 -10 195 -10 140.5 41 c 128,-1,29
 86 92 86 92 86 195 c 0,30,31
 86 205 86 205 87 220 c 128,-1,32
 88 235 88 235 93.5 269.5 c 128,-1,33
 99 304 99 304 109.5 365 c 128,-1,34
 120 426 120 426 138 530 c 0,35,36
 143 558 143 558 143 575 c 0,37,38
 143 601 143 601 130.5 615.5 c 128,-1,39
 118 630 118 630 86 630 c 1,40,-1
 91 660 l 1,41,-1
 201 660 l 2,42,43
 240 660 240 660 257.5 645.5 c 128,-1,44
 275 631 275 631 275 593 c 0,45,46
 275 565 275 565 268 530 c 0,4,5
EndSplineSet
EndChar

StartChar: Uacute
Encoding: 218 218 161
Width: 697
Flags: W
LayerCount: 2
Fore
SplineSet
463 680 m 1,0,-1
 408 680 l 1,1,-1
 475 820 l 1,2,-1
 594 820 l 1,3,-1
 463 680 l 1,0,-1
268 530 m 0,4,5
 255 454 255 454 246 400 c 128,-1,6
 237 346 237 346 231 308.5 c 128,-1,7
 225 271 225 271 221 247.5 c 128,-1,8
 217 224 217 224 215.5 210 c 128,-1,9
 214 196 214 196 213.5 188 c 128,-1,10
 213 180 213 180 213 174 c 0,11,12
 213 105 213 105 241 67.5 c 128,-1,13
 269 30 269 30 332 30 c 0,14,15
 387 30 387 30 428.5 45.5 c 128,-1,16
 470 61 470 61 500 92.5 c 128,-1,17
 530 124 530 124 549 172.5 c 128,-1,18
 568 221 568 221 580 288 c 2,19,-1
 646 660 l 1,20,-1
 696 660 l 1,21,-1
 630 288 l 2,22,23
 618 217 618 217 595 162 c 128,-1,24
 572 107 572 107 534.5 68.5 c 128,-1,25
 497 30 497 30 442.5 10 c 128,-1,26
 388 -10 388 -10 313 -10 c 0,27,28
 195 -10 195 -10 140.5 41 c 128,-1,29
 86 92 86 92 86 195 c 0,30,31
 86 205 86 205 87 220 c 128,-1,32
 88 235 88 235 93.5 269.5 c 128,-1,33
 99 304 99 304 109.5 365 c 128,-1,34
 120 426 120 426 138 530 c 0,35,36
 143 558 143 558 143 575 c 0,37,38
 143 601 143 601 130.5 615.5 c 128,-1,39
 118 630 118 630 86 630 c 1,40,-1
 91 660 l 1,41,-1
 201 660 l 2,42,43
 240 660 240 660 257.5 645.5 c 128,-1,44
 275 631 275 631 275 593 c 0,45,46
 275 565 275 565 268 530 c 0,4,5
EndSplineSet
EndChar

StartChar: Ucircumflex
Encoding: 219 219 162
Width: 697
Flags: W
LayerCount: 2
Fore
SplineSet
474 761 m 1,0,-1
 375 681 l 1,1,-1
 315 681 l 1,2,-1
 417 806 l 1,3,-1
 547 806 l 1,4,-1
 605 681 l 1,5,-1
 545 681 l 1,6,-1
 474 761 l 1,0,-1
268 530 m 0,7,8
 255 454 255 454 246 400 c 128,-1,9
 237 346 237 346 231 308.5 c 128,-1,10
 225 271 225 271 221 247.5 c 128,-1,11
 217 224 217 224 215.5 210 c 128,-1,12
 214 196 214 196 213.5 188 c 128,-1,13
 213 180 213 180 213 174 c 0,14,15
 213 105 213 105 241 67.5 c 128,-1,16
 269 30 269 30 332 30 c 0,17,18
 387 30 387 30 428.5 45.5 c 128,-1,19
 470 61 470 61 500 92.5 c 128,-1,20
 530 124 530 124 549 172.5 c 128,-1,21
 568 221 568 221 580 288 c 2,22,-1
 646 660 l 1,23,-1
 696 660 l 1,24,-1
 630 288 l 2,25,26
 618 217 618 217 595 162 c 128,-1,27
 572 107 572 107 534.5 68.5 c 128,-1,28
 497 30 497 30 442.5 10 c 128,-1,29
 388 -10 388 -10 313 -10 c 0,30,31
 195 -10 195 -10 140.5 41 c 128,-1,32
 86 92 86 92 86 195 c 0,33,34
 86 205 86 205 87 220 c 128,-1,35
 88 235 88 235 93.5 269.5 c 128,-1,36
 99 304 99 304 109.5 365 c 128,-1,37
 120 426 120 426 138 530 c 0,38,39
 143 558 143 558 143 575 c 0,40,41
 143 601 143 601 130.5 615.5 c 128,-1,42
 118 630 118 630 86 630 c 1,43,-1
 91 660 l 1,44,-1
 201 660 l 2,45,46
 240 660 240 660 257.5 645.5 c 128,-1,47
 275 631 275 631 275 593 c 0,48,49
 275 565 275 565 268 530 c 0,7,8
EndSplineSet
EndChar

StartChar: Udieresis
Encoding: 220 220 163
Width: 697
Flags: W
LayerCount: 2
Fore
SplineSet
430 748 m 0,0,1
 430 722 430 722 411 701 c 128,-1,2
 392 680 392 680 363 680 c 0,3,4
 340 680 340 680 328 693 c 128,-1,5
 316 706 316 706 316 726 c 0,6,7
 316 752 316 752 335.5 772 c 128,-1,8
 355 792 355 792 383 792 c 0,9,10
 406 792 406 792 418 779.5 c 128,-1,11
 430 767 430 767 430 748 c 0,0,1
612 748 m 0,12,13
 612 722 612 722 593 701 c 128,-1,14
 574 680 574 680 545 680 c 0,15,16
 522 680 522 680 510 693 c 128,-1,17
 498 706 498 706 498 726 c 0,18,19
 498 752 498 752 517.5 772 c 128,-1,20
 537 792 537 792 565 792 c 0,21,22
 588 792 588 792 600 779.5 c 128,-1,23
 612 767 612 767 612 748 c 0,12,13
268 530 m 0,24,25
 255 454 255 454 246 400 c 128,-1,26
 237 346 237 346 231 308.5 c 128,-1,27
 225 271 225 271 221 247.5 c 128,-1,28
 217 224 217 224 215.5 210 c 128,-1,29
 214 196 214 196 213.5 188 c 128,-1,30
 213 180 213 180 213 174 c 0,31,32
 213 105 213 105 241 67.5 c 128,-1,33
 269 30 269 30 332 30 c 0,34,35
 387 30 387 30 428.5 45.5 c 128,-1,36
 470 61 470 61 500 92.5 c 128,-1,37
 530 124 530 124 549 172.5 c 128,-1,38
 568 221 568 221 580 288 c 2,39,-1
 646 660 l 1,40,-1
 696 660 l 1,41,-1
 630 288 l 2,42,43
 618 217 618 217 595 162 c 128,-1,44
 572 107 572 107 534.5 68.5 c 128,-1,45
 497 30 497 30 442.5 10 c 128,-1,46
 388 -10 388 -10 313 -10 c 0,47,48
 195 -10 195 -10 140.5 41 c 128,-1,49
 86 92 86 92 86 195 c 0,50,51
 86 205 86 205 87 220 c 128,-1,52
 88 235 88 235 93.5 269.5 c 128,-1,53
 99 304 99 304 109.5 365 c 128,-1,54
 120 426 120 426 138 530 c 0,55,56
 143 558 143 558 143 575 c 0,57,58
 143 601 143 601 130.5 615.5 c 128,-1,59
 118 630 118 630 86 630 c 1,60,-1
 91 660 l 1,61,-1
 201 660 l 2,62,63
 240 660 240 660 257.5 645.5 c 128,-1,64
 275 631 275 631 275 593 c 0,65,66
 275 565 275 565 268 530 c 0,24,25
EndSplineSet
EndChar

StartChar: germandbls
Encoding: 223 223 164
Width: 573
Flags: W
LayerCount: 2
Fore
SplineSet
246 328 m 256,0,1
 246 355 246 355 256.5 376.5 c 128,-1,2
 267 398 267 398 283 416 c 128,-1,3
 299 434 299 434 318 450.5 c 128,-1,4
 337 467 337 467 353 485 c 128,-1,5
 369 503 369 503 379.5 523 c 128,-1,6
 390 543 390 543 390 569 c 0,7,8
 390 597 390 597 374 611 c 128,-1,9
 358 625 358 625 332 625 c 0,10,11
 298 625 298 625 270.5 598 c 128,-1,12
 243 571 243 571 230 500 c 2,13,-1
 142 0 l 1,14,-1
 12 0 l 1,15,-1
 100 500 l 2,16,17
 109 552 109 552 131 585.5 c 128,-1,18
 153 619 153 619 185 637.5 c 128,-1,19
 217 656 217 656 257.5 663 c 128,-1,20
 298 670 298 670 345 670 c 0,21,22
 436 670 436 670 477 646.5 c 128,-1,23
 518 623 518 623 518 584 c 0,24,25
 518 553 518 553 506 530 c 128,-1,26
 494 507 494 507 476 488.5 c 128,-1,27
 458 470 458 470 437 455 c 128,-1,28
 416 440 416 440 398 425 c 128,-1,29
 380 410 380 410 368 393.5 c 128,-1,30
 356 377 356 377 356 356 c 0,31,32
 356 333 356 333 369 316 c 128,-1,33
 382 299 382 299 401 284 c 128,-1,34
 420 269 420 269 443 255.5 c 128,-1,35
 466 242 466 242 485 225.5 c 128,-1,36
 504 209 504 209 517 188.5 c 128,-1,37
 530 168 530 168 530 140 c 0,38,39
 530 103 530 103 511.5 75 c 128,-1,40
 493 47 493 47 464.5 28 c 128,-1,41
 436 9 436 9 400 -0.5 c 128,-1,42
 364 -10 364 -10 330 -10 c 0,43,44
 309 -10 309 -10 286 -6.5 c 128,-1,45
 263 -3 263 -3 243.5 7 c 128,-1,46
 224 17 224 17 211 34 c 128,-1,47
 198 51 198 51 198 77 c 0,48,49
 198 89 198 89 199.5 100 c 128,-1,50
 201 111 201 111 203 120 c 1,51,-1
 233 120 l 1,52,-1
 233 116 l 2,53,54
 233 101 233 101 238 86.5 c 128,-1,55
 243 72 243 72 253.5 60.5 c 128,-1,56
 264 49 264 49 280 42 c 128,-1,57
 296 35 296 35 318 35 c 0,58,59
 350 35 350 35 375 57 c 128,-1,60
 400 79 400 79 400 116 c 0,61,62
 400 138 400 138 388.5 155 c 128,-1,63
 377 172 377 172 360 187 c 128,-1,64
 343 202 343 202 323 215.5 c 128,-1,65
 303 229 303 229 286 245 c 128,-1,66
 269 261 269 261 257.5 281 c 128,-1,67
 246 301 246 301 246 328 c 256,0,1
EndSplineSet
EndChar

StartChar: agrave
Encoding: 224 224 165
Width: 549
Flags: W
LayerCount: 2
Fore
SplineSet
217 665 m 1,0,-1
 336 665 l 1,1,-1
 353 525 l 1,2,-1
 298 525 l 1,3,-1
 217 665 l 1,0,-1
295 435 m 0,4,5
 269 435 269 435 248.5 419 c 128,-1,6
 228 403 228 403 212.5 378 c 128,-1,7
 197 353 197 353 186 321 c 128,-1,8
 175 289 175 289 168 256.5 c 128,-1,9
 161 224 161 224 158 194.5 c 128,-1,10
 155 165 155 165 155 144 c 0,11,12
 155 96 155 96 171 65.5 c 128,-1,13
 187 35 187 35 225 35 c 0,14,15
 248 35 248 35 266 45 c 128,-1,16
 284 55 284 55 298 67 c 0,17,18
 314 81 314 81 326 100 c 1,19,-1
 374 370 l 1,20,21
 368 388 368 388 357 402 c 0,22,23
 348 414 348 414 333 424.5 c 128,-1,24
 318 435 318 435 295 435 c 0,4,5
283 480 m 0,25,26
 313 480 313 480 333 471.5 c 128,-1,27
 353 463 353 463 365 452 c 0,28,29
 379 440 379 440 388 425 c 1,30,-1
 393 425 l 1,31,-1
 436 470 l 1,32,-1
 521 470 l 1,33,-1
 439 0 l 1,34,-1
 354 0 l 1,35,-1
 326 45 l 1,36,-1
 321 45 l 1,37,38
 307 29 307 29 289 17 c 0,39,40
 273 6 273 6 250 -2 c 128,-1,41
 227 -10 227 -10 197 -10 c 0,42,43
 152 -10 152 -10 119.5 4 c 128,-1,44
 87 18 87 18 65.5 42 c 128,-1,45
 44 66 44 66 33.5 99 c 128,-1,46
 23 132 23 132 23 170 c 0,47,48
 23 222 23 222 40.5 277 c 128,-1,49
 58 332 58 332 91 377 c 128,-1,50
 124 422 124 422 172.5 451 c 128,-1,51
 221 480 221 480 283 480 c 0,25,26
EndSplineSet
EndChar

StartChar: aacute
Encoding: 225 225 166
Width: 549
Flags: W
LayerCount: 2
Fore
SplineSet
343 525 m 1,0,-1
 288 525 l 1,1,-1
 355 665 l 1,2,-1
 474 665 l 1,3,-1
 343 525 l 1,0,-1
295 435 m 0,4,5
 269 435 269 435 248.5 419 c 128,-1,6
 228 403 228 403 212.5 378 c 128,-1,7
 197 353 197 353 186 321 c 128,-1,8
 175 289 175 289 168 256.5 c 128,-1,9
 161 224 161 224 158 194.5 c 128,-1,10
 155 165 155 165 155 144 c 0,11,12
 155 96 155 96 171 65.5 c 128,-1,13
 187 35 187 35 225 35 c 0,14,15
 248 35 248 35 266 45 c 128,-1,16
 284 55 284 55 298 67 c 0,17,18
 314 81 314 81 326 100 c 1,19,-1
 374 370 l 1,20,21
 368 388 368 388 357 402 c 0,22,23
 348 414 348 414 333 424.5 c 128,-1,24
 318 435 318 435 295 435 c 0,4,5
283 480 m 0,25,26
 313 480 313 480 333 471.5 c 128,-1,27
 353 463 353 463 365 452 c 0,28,29
 379 440 379 440 388 425 c 1,30,-1
 393 425 l 1,31,-1
 436 470 l 1,32,-1
 521 470 l 1,33,-1
 439 0 l 1,34,-1
 354 0 l 1,35,-1
 326 45 l 1,36,-1
 321 45 l 1,37,38
 307 29 307 29 289 17 c 0,39,40
 273 6 273 6 250 -2 c 128,-1,41
 227 -10 227 -10 197 -10 c 0,42,43
 152 -10 152 -10 119.5 4 c 128,-1,44
 87 18 87 18 65.5 42 c 128,-1,45
 44 66 44 66 33.5 99 c 128,-1,46
 23 132 23 132 23 170 c 0,47,48
 23 222 23 222 40.5 277 c 128,-1,49
 58 332 58 332 91 377 c 128,-1,50
 124 422 124 422 172.5 451 c 128,-1,51
 221 480 221 480 283 480 c 0,25,26
EndSplineSet
EndChar

StartChar: acircumflex
Encoding: 226 226 167
Width: 549
Flags: W
LayerCount: 2
Fore
SplineSet
332 610 m 1,0,-1
 233 530 l 1,1,-1
 173 530 l 1,2,-1
 275 655 l 1,3,-1
 405 655 l 1,4,-1
 463 530 l 1,5,-1
 403 530 l 1,6,-1
 332 610 l 1,0,-1
295 435 m 0,7,8
 269 435 269 435 248.5 419 c 128,-1,9
 228 403 228 403 212.5 378 c 128,-1,10
 197 353 197 353 186 321 c 128,-1,11
 175 289 175 289 168 256.5 c 128,-1,12
 161 224 161 224 158 194.5 c 128,-1,13
 155 165 155 165 155 144 c 0,14,15
 155 96 155 96 171 65.5 c 128,-1,16
 187 35 187 35 225 35 c 0,17,18
 248 35 248 35 266 45 c 128,-1,19
 284 55 284 55 298 67 c 0,20,21
 314 81 314 81 326 100 c 1,22,-1
 374 370 l 1,23,24
 368 388 368 388 357 402 c 0,25,26
 348 414 348 414 333 424.5 c 128,-1,27
 318 435 318 435 295 435 c 0,7,8
283 480 m 0,28,29
 313 480 313 480 333 471.5 c 128,-1,30
 353 463 353 463 365 452 c 0,31,32
 379 440 379 440 388 425 c 1,33,-1
 393 425 l 1,34,-1
 436 470 l 1,35,-1
 521 470 l 1,36,-1
 439 0 l 1,37,-1
 354 0 l 1,38,-1
 326 45 l 1,39,-1
 321 45 l 1,40,41
 307 29 307 29 289 17 c 0,42,43
 273 6 273 6 250 -2 c 128,-1,44
 227 -10 227 -10 197 -10 c 0,45,46
 152 -10 152 -10 119.5 4 c 128,-1,47
 87 18 87 18 65.5 42 c 128,-1,48
 44 66 44 66 33.5 99 c 128,-1,49
 23 132 23 132 23 170 c 0,50,51
 23 222 23 222 40.5 277 c 128,-1,52
 58 332 58 332 91 377 c 128,-1,53
 124 422 124 422 172.5 451 c 128,-1,54
 221 480 221 480 283 480 c 0,28,29
EndSplineSet
EndChar

StartChar: atilde
Encoding: 227 227 168
Width: 549
Flags: W
LayerCount: 2
Fore
SplineSet
217 535 m 1,0,1
 228 595 228 595 250 615 c 128,-1,2
 272 635 272 635 302 635 c 0,3,4
 319 635 319 635 330.5 628.5 c 128,-1,5
 342 622 342 622 351 614.5 c 128,-1,6
 360 607 360 607 368.5 601 c 128,-1,7
 377 595 377 595 387 595 c 0,8,9
 404 595 404 595 415.5 607.5 c 128,-1,10
 427 620 427 620 429 635 c 1,11,-1
 469 635 l 1,12,13
 458 575 458 575 436.5 555 c 128,-1,14
 415 535 415 535 385 535 c 0,15,16
 368 535 368 535 356.5 541 c 128,-1,17
 345 547 345 547 335.5 554.5 c 128,-1,18
 326 562 326 562 317.5 568.5 c 128,-1,19
 309 575 309 575 299 575 c 0,20,21
 282 575 282 575 270.5 562.5 c 128,-1,22
 259 550 259 550 257 535 c 1,23,-1
 217 535 l 1,0,1
295 435 m 0,24,25
 269 435 269 435 248.5 419 c 128,-1,26
 228 403 228 403 212.5 378 c 128,-1,27
 197 353 197 353 186 321 c 128,-1,28
 175 289 175 289 168 256.5 c 128,-1,29
 161 224 161 224 158 194.5 c 128,-1,30
 155 165 155 165 155 144 c 0,31,32
 155 96 155 96 171 65.5 c 128,-1,33
 187 35 187 35 225 35 c 0,34,35
 248 35 248 35 266 45 c 128,-1,36
 284 55 284 55 298 67 c 0,37,38
 314 81 314 81 326 100 c 1,39,-1
 374 370 l 1,40,41
 368 388 368 388 357 402 c 0,42,43
 348 414 348 414 333 424.5 c 128,-1,44
 318 435 318 435 295 435 c 0,24,25
283 480 m 0,45,46
 313 480 313 480 333 471.5 c 128,-1,47
 353 463 353 463 365 452 c 0,48,49
 379 440 379 440 388 425 c 1,50,-1
 393 425 l 1,51,-1
 436 470 l 1,52,-1
 521 470 l 1,53,-1
 439 0 l 1,54,-1
 354 0 l 1,55,-1
 326 45 l 1,56,-1
 321 45 l 1,57,58
 307 29 307 29 289 17 c 0,59,60
 273 6 273 6 250 -2 c 128,-1,61
 227 -10 227 -10 197 -10 c 0,62,63
 152 -10 152 -10 119.5 4 c 128,-1,64
 87 18 87 18 65.5 42 c 128,-1,65
 44 66 44 66 33.5 99 c 128,-1,66
 23 132 23 132 23 170 c 0,67,68
 23 222 23 222 40.5 277 c 128,-1,69
 58 332 58 332 91 377 c 128,-1,70
 124 422 124 422 172.5 451 c 128,-1,71
 221 480 221 480 283 480 c 0,45,46
EndSplineSet
EndChar

StartChar: adieresis
Encoding: 228 228 169
Width: 549
Flags: W
LayerCount: 2
Fore
SplineSet
295 601 m 0,0,1
 295 575 295 575 275.5 555 c 128,-1,2
 256 535 256 535 228 535 c 0,3,4
 205 535 205 535 193 547.5 c 128,-1,5
 181 560 181 560 181 579 c 0,6,7
 181 605 181 605 200 626 c 128,-1,8
 219 647 219 647 248 647 c 0,9,10
 271 647 271 647 283 634 c 128,-1,11
 295 621 295 621 295 601 c 0,0,1
475 601 m 0,12,13
 475 575 475 575 455.5 555 c 128,-1,14
 436 535 436 535 408 535 c 0,15,16
 385 535 385 535 373 547.5 c 128,-1,17
 361 560 361 560 361 579 c 0,18,19
 361 605 361 605 380 626 c 128,-1,20
 399 647 399 647 428 647 c 0,21,22
 451 647 451 647 463 634 c 128,-1,23
 475 621 475 621 475 601 c 0,12,13
295 435 m 0,24,25
 269 435 269 435 248.5 419 c 128,-1,26
 228 403 228 403 212.5 378 c 128,-1,27
 197 353 197 353 186 321 c 128,-1,28
 175 289 175 289 168 256.5 c 128,-1,29
 161 224 161 224 158 194.5 c 128,-1,30
 155 165 155 165 155 144 c 0,31,32
 155 96 155 96 171 65.5 c 128,-1,33
 187 35 187 35 225 35 c 0,34,35
 248 35 248 35 266 45 c 128,-1,36
 284 55 284 55 298 67 c 0,37,38
 314 81 314 81 326 100 c 1,39,-1
 374 370 l 1,40,41
 368 388 368 388 357 402 c 0,42,43
 348 414 348 414 333 424.5 c 128,-1,44
 318 435 318 435 295 435 c 0,24,25
283 480 m 0,45,46
 313 480 313 480 333 471.5 c 128,-1,47
 353 463 353 463 365 452 c 0,48,49
 379 440 379 440 388 425 c 1,50,-1
 393 425 l 1,51,-1
 436 470 l 1,52,-1
 521 470 l 1,53,-1
 439 0 l 1,54,-1
 354 0 l 1,55,-1
 326 45 l 1,56,-1
 321 45 l 1,57,58
 307 29 307 29 289 17 c 0,59,60
 273 6 273 6 250 -2 c 128,-1,61
 227 -10 227 -10 197 -10 c 0,62,63
 152 -10 152 -10 119.5 4 c 128,-1,64
 87 18 87 18 65.5 42 c 128,-1,65
 44 66 44 66 33.5 99 c 128,-1,66
 23 132 23 132 23 170 c 0,67,68
 23 222 23 222 40.5 277 c 128,-1,69
 58 332 58 332 91 377 c 128,-1,70
 124 422 124 422 172.5 451 c 128,-1,71
 221 480 221 480 283 480 c 0,45,46
EndSplineSet
EndChar

StartChar: aring
Encoding: 229 229 170
Width: 549
Flags: W
LayerCount: 2
Fore
SplineSet
250 596 m 0,0,1
 250 618 250 618 259 638.5 c 128,-1,2
 268 659 268 659 283 675 c 128,-1,3
 298 691 298 691 319 700.5 c 128,-1,4
 340 710 340 710 364 710 c 0,5,6
 400 710 400 710 422 689 c 128,-1,7
 444 668 444 668 444 634 c 0,8,9
 444 612 444 612 435 591.5 c 128,-1,10
 426 571 426 571 411 555 c 128,-1,11
 396 539 396 539 375 529.5 c 128,-1,12
 354 520 354 520 330 520 c 0,13,14
 294 520 294 520 272 541 c 128,-1,15
 250 562 250 562 250 596 c 0,0,1
338 565 m 0,16,17
 361 565 361 565 377 583 c 128,-1,18
 393 601 393 601 393 626 c 0,19,20
 393 644 393 644 383 654.5 c 128,-1,21
 373 665 373 665 356 665 c 0,22,23
 333 665 333 665 317 647 c 128,-1,24
 301 629 301 629 301 604 c 0,25,26
 301 586 301 586 311 575.5 c 128,-1,27
 321 565 321 565 338 565 c 0,16,17
295 435 m 0,28,29
 269 435 269 435 248.5 419 c 128,-1,30
 228 403 228 403 212.5 378 c 128,-1,31
 197 353 197 353 186 321 c 128,-1,32
 175 289 175 289 168 256.5 c 128,-1,33
 161 224 161 224 158 194.5 c 128,-1,34
 155 165 155 165 155 144 c 0,35,36
 155 96 155 96 171 65.5 c 128,-1,37
 187 35 187 35 225 35 c 0,38,39
 248 35 248 35 266 45 c 128,-1,40
 284 55 284 55 298 67 c 0,41,42
 314 81 314 81 326 100 c 1,43,-1
 374 370 l 1,44,45
 368 388 368 388 357 402 c 0,46,47
 348 414 348 414 333 424.5 c 128,-1,48
 318 435 318 435 295 435 c 0,28,29
283 480 m 0,49,50
 313 480 313 480 333 471.5 c 128,-1,51
 353 463 353 463 365 452 c 0,52,53
 379 440 379 440 388 425 c 1,54,-1
 393 425 l 1,55,-1
 436 470 l 1,56,-1
 521 470 l 1,57,-1
 439 0 l 1,58,-1
 354 0 l 1,59,-1
 326 45 l 1,60,-1
 321 45 l 1,61,62
 307 29 307 29 289 17 c 0,63,64
 273 6 273 6 250 -2 c 128,-1,65
 227 -10 227 -10 197 -10 c 0,66,67
 152 -10 152 -10 119.5 4 c 128,-1,68
 87 18 87 18 65.5 42 c 128,-1,69
 44 66 44 66 33.5 99 c 128,-1,70
 23 132 23 132 23 170 c 0,71,72
 23 222 23 222 40.5 277 c 128,-1,73
 58 332 58 332 91 377 c 128,-1,74
 124 422 124 422 172.5 451 c 128,-1,75
 221 480 221 480 283 480 c 0,49,50
EndSplineSet
EndChar

StartChar: ccedilla
Encoding: 231 231 171
Width: 499
Flags: W
LayerCount: 2
Fore
SplineSet
320 435 m 0,0,1
 275 435 275 435 244 405.5 c 128,-1,2
 213 376 213 376 193.5 333 c 128,-1,3
 174 290 174 290 165.5 242 c 128,-1,4
 157 194 157 194 157 157 c 0,5,6
 157 35 157 35 255 35 c 0,7,8
 307 35 307 35 343.5 59 c 128,-1,9
 380 83 380 83 412 118 c 1,10,-1
 439 95 l 1,11,12
 426 79 426 79 408.5 61.5 c 128,-1,13
 391 44 391 44 368 29 c 128,-1,14
 345 14 345 14 315 3.5 c 128,-1,15
 285 -7 285 -7 246 -9 c 1,16,-1
 242 -32 l 1,17,18
 276 -32 276 -32 296 -48.5 c 128,-1,19
 316 -65 316 -65 316 -94 c 0,20,21
 316 -113 316 -113 308 -130 c 128,-1,22
 300 -147 300 -147 286.5 -160 c 128,-1,23
 273 -173 273 -173 254.5 -180.5 c 128,-1,24
 236 -188 236 -188 214 -188 c 2,25,-1
 154 -188 l 1,26,-1
 162 -142 l 1,27,-1
 202 -142 l 2,28,29
 221 -142 221 -142 233.5 -132 c 128,-1,30
 246 -122 246 -122 248 -105 c 1,31,32
 248 -93 248 -93 239.5 -85 c 128,-1,33
 231 -77 231 -77 214 -77 c 2,34,-1
 175 -77 l 1,35,-1
 187 -7 l 1,36,37
 104 4 104 4 64.5 55 c 128,-1,38
 25 106 25 106 25 180 c 0,39,40
 25 237 25 237 45.5 291 c 128,-1,41
 66 345 66 345 104 387 c 128,-1,42
 142 429 142 429 195 454.5 c 128,-1,43
 248 480 248 480 313 480 c 0,44,45
 334 480 334 480 362 478.5 c 128,-1,46
 390 477 390 477 415 469.5 c 128,-1,47
 440 462 440 462 457.5 446 c 128,-1,48
 475 430 475 430 475 400 c 0,49,50
 475 383 475 383 471.5 359.5 c 128,-1,51
 468 336 468 336 462 305 c 1,52,-1
 432 305 l 1,53,54
 433 311 433 311 433 317 c 128,-1,55
 433 323 433 323 433 329 c 0,56,57
 433 382 433 382 403.5 408.5 c 128,-1,58
 374 435 374 435 320 435 c 0,0,1
EndSplineSet
EndChar

StartChar: egrave
Encoding: 232 232 172
Width: 508
Flags: W
LayerCount: 2
Fore
SplineSet
194 665 m 1,0,-1
 313 665 l 1,1,-1
 330 525 l 1,2,-1
 275 525 l 1,3,-1
 194 665 l 1,0,-1
272 245 m 2,4,5
 292 245 292 245 307.5 256 c 128,-1,6
 323 267 323 267 333.5 284 c 128,-1,7
 344 301 344 301 349.5 321.5 c 128,-1,8
 355 342 355 342 355 362 c 0,9,10
 355 400 355 400 336.5 417.5 c 128,-1,11
 318 435 318 435 295 435 c 0,12,13
 274 435 274 435 255 425.5 c 128,-1,14
 236 416 236 416 219.5 393.5 c 128,-1,15
 203 371 203 371 189.5 335 c 128,-1,16
 176 299 176 299 167 245 c 1,17,-1
 272 245 l 2,4,5
490 358 m 0,18,19
 490 315 490 315 470 285 c 128,-1,20
 450 255 450 255 417.5 236 c 128,-1,21
 385 217 385 217 344.5 208.5 c 128,-1,22
 304 200 304 200 264 200 c 2,23,-1
 159 200 l 1,24,25
 153 168 153 168 153 144 c 0,26,27
 153 89 153 89 176.5 62 c 128,-1,28
 200 35 200 35 240 35 c 0,29,30
 292 35 292 35 328.5 59 c 128,-1,31
 365 83 365 83 397 118 c 1,32,-1
 424 95 l 1,33,34
 410 78 410 78 391.5 59.5 c 128,-1,35
 373 41 373 41 348 25.5 c 128,-1,36
 323 10 323 10 290.5 0 c 128,-1,37
 258 -10 258 -10 217 -10 c 0,38,39
 171 -10 171 -10 135.5 4 c 128,-1,40
 100 18 100 18 75.5 43.5 c 128,-1,41
 51 69 51 69 38 104.5 c 128,-1,42
 25 140 25 140 25 182 c 0,43,44
 25 239 25 239 44.5 292.5 c 128,-1,45
 64 346 64 346 100 387.5 c 128,-1,46
 136 429 136 429 187.5 454.5 c 128,-1,47
 239 480 239 480 303 480 c 0,48,49
 392 480 392 480 441 447.5 c 128,-1,50
 490 415 490 415 490 358 c 0,18,19
EndSplineSet
EndChar

StartChar: eacute
Encoding: 233 233 173
Width: 508
Flags: W
LayerCount: 2
Fore
SplineSet
328 525 m 1,0,-1
 273 525 l 1,1,-1
 340 665 l 1,2,-1
 459 665 l 1,3,-1
 328 525 l 1,0,-1
272 245 m 2,4,5
 292 245 292 245 307.5 256 c 128,-1,6
 323 267 323 267 333.5 284 c 128,-1,7
 344 301 344 301 349.5 321.5 c 128,-1,8
 355 342 355 342 355 362 c 0,9,10
 355 400 355 400 336.5 417.5 c 128,-1,11
 318 435 318 435 295 435 c 0,12,13
 274 435 274 435 255 425.5 c 128,-1,14
 236 416 236 416 219.5 393.5 c 128,-1,15
 203 371 203 371 189.5 335 c 128,-1,16
 176 299 176 299 167 245 c 1,17,-1
 272 245 l 2,4,5
490 358 m 0,18,19
 490 315 490 315 470 285 c 128,-1,20
 450 255 450 255 417.5 236 c 128,-1,21
 385 217 385 217 344.5 208.5 c 128,-1,22
 304 200 304 200 264 200 c 2,23,-1
 159 200 l 1,24,25
 153 168 153 168 153 144 c 0,26,27
 153 89 153 89 176.5 62 c 128,-1,28
 200 35 200 35 240 35 c 0,29,30
 292 35 292 35 328.5 59 c 128,-1,31
 365 83 365 83 397 118 c 1,32,-1
 424 95 l 1,33,34
 410 78 410 78 391.5 59.5 c 128,-1,35
 373 41 373 41 348 25.5 c 128,-1,36
 323 10 323 10 290.5 0 c 128,-1,37
 258 -10 258 -10 217 -10 c 0,38,39
 171 -10 171 -10 135.5 4 c 128,-1,40
 100 18 100 18 75.5 43.5 c 128,-1,41
 51 69 51 69 38 104.5 c 128,-1,42
 25 140 25 140 25 182 c 0,43,44
 25 239 25 239 44.5 292.5 c 128,-1,45
 64 346 64 346 100 387.5 c 128,-1,46
 136 429 136 429 187.5 454.5 c 128,-1,47
 239 480 239 480 303 480 c 0,48,49
 392 480 392 480 441 447.5 c 128,-1,50
 490 415 490 415 490 358 c 0,18,19
EndSplineSet
EndChar

StartChar: ecircumflex
Encoding: 234 234 174
Width: 508
Flags: W
LayerCount: 2
Fore
SplineSet
330 605 m 1,0,-1
 231 525 l 1,1,-1
 171 525 l 1,2,-1
 273 650 l 1,3,-1
 403 650 l 1,4,-1
 461 525 l 1,5,-1
 401 525 l 1,6,-1
 330 605 l 1,0,-1
272 245 m 2,7,8
 292 245 292 245 307.5 256 c 128,-1,9
 323 267 323 267 333.5 284 c 128,-1,10
 344 301 344 301 349.5 321.5 c 128,-1,11
 355 342 355 342 355 362 c 0,12,13
 355 400 355 400 336.5 417.5 c 128,-1,14
 318 435 318 435 295 435 c 0,15,16
 274 435 274 435 255 425.5 c 128,-1,17
 236 416 236 416 219.5 393.5 c 128,-1,18
 203 371 203 371 189.5 335 c 128,-1,19
 176 299 176 299 167 245 c 1,20,-1
 272 245 l 2,7,8
490 358 m 0,21,22
 490 315 490 315 470 285 c 128,-1,23
 450 255 450 255 417.5 236 c 128,-1,24
 385 217 385 217 344.5 208.5 c 128,-1,25
 304 200 304 200 264 200 c 2,26,-1
 159 200 l 1,27,28
 153 168 153 168 153 144 c 0,29,30
 153 89 153 89 176.5 62 c 128,-1,31
 200 35 200 35 240 35 c 0,32,33
 292 35 292 35 328.5 59 c 128,-1,34
 365 83 365 83 397 118 c 1,35,-1
 424 95 l 1,36,37
 410 78 410 78 391.5 59.5 c 128,-1,38
 373 41 373 41 348 25.5 c 128,-1,39
 323 10 323 10 290.5 0 c 128,-1,40
 258 -10 258 -10 217 -10 c 0,41,42
 171 -10 171 -10 135.5 4 c 128,-1,43
 100 18 100 18 75.5 43.5 c 128,-1,44
 51 69 51 69 38 104.5 c 128,-1,45
 25 140 25 140 25 182 c 0,46,47
 25 239 25 239 44.5 292.5 c 128,-1,48
 64 346 64 346 100 387.5 c 128,-1,49
 136 429 136 429 187.5 454.5 c 128,-1,50
 239 480 239 480 303 480 c 0,51,52
 392 480 392 480 441 447.5 c 128,-1,53
 490 415 490 415 490 358 c 0,21,22
EndSplineSet
EndChar

StartChar: edieresis
Encoding: 235 235 175
Width: 508
Flags: W
LayerCount: 2
Fore
SplineSet
285 601 m 0,0,1
 285 575 285 575 265.5 555 c 128,-1,2
 246 535 246 535 218 535 c 0,3,4
 195 535 195 535 183 547.5 c 128,-1,5
 171 560 171 560 171 579 c 0,6,7
 171 605 171 605 190 626 c 128,-1,8
 209 647 209 647 238 647 c 0,9,10
 261 647 261 647 273 634 c 128,-1,11
 285 621 285 621 285 601 c 0,0,1
465 601 m 0,12,13
 465 575 465 575 445.5 555 c 128,-1,14
 426 535 426 535 398 535 c 0,15,16
 375 535 375 535 363 547.5 c 128,-1,17
 351 560 351 560 351 579 c 0,18,19
 351 605 351 605 370 626 c 128,-1,20
 389 647 389 647 418 647 c 0,21,22
 441 647 441 647 453 634 c 128,-1,23
 465 621 465 621 465 601 c 0,12,13
272 245 m 2,24,25
 292 245 292 245 307.5 256 c 128,-1,26
 323 267 323 267 333.5 284 c 128,-1,27
 344 301 344 301 349.5 321.5 c 128,-1,28
 355 342 355 342 355 362 c 0,29,30
 355 400 355 400 336.5 417.5 c 128,-1,31
 318 435 318 435 295 435 c 0,32,33
 274 435 274 435 255 425.5 c 128,-1,34
 236 416 236 416 219.5 393.5 c 128,-1,35
 203 371 203 371 189.5 335 c 128,-1,36
 176 299 176 299 167 245 c 1,37,-1
 272 245 l 2,24,25
490 358 m 0,38,39
 490 315 490 315 470 285 c 128,-1,40
 450 255 450 255 417.5 236 c 128,-1,41
 385 217 385 217 344.5 208.5 c 128,-1,42
 304 200 304 200 264 200 c 2,43,-1
 159 200 l 1,44,45
 153 168 153 168 153 144 c 0,46,47
 153 89 153 89 176.5 62 c 128,-1,48
 200 35 200 35 240 35 c 0,49,50
 292 35 292 35 328.5 59 c 128,-1,51
 365 83 365 83 397 118 c 1,52,-1
 424 95 l 1,53,54
 410 78 410 78 391.5 59.5 c 128,-1,55
 373 41 373 41 348 25.5 c 128,-1,56
 323 10 323 10 290.5 0 c 128,-1,57
 258 -10 258 -10 217 -10 c 0,58,59
 171 -10 171 -10 135.5 4 c 128,-1,60
 100 18 100 18 75.5 43.5 c 128,-1,61
 51 69 51 69 38 104.5 c 128,-1,62
 25 140 25 140 25 182 c 0,63,64
 25 239 25 239 44.5 292.5 c 128,-1,65
 64 346 64 346 100 387.5 c 128,-1,66
 136 429 136 429 187.5 454.5 c 128,-1,67
 239 480 239 480 303 480 c 0,68,69
 392 480 392 480 441 447.5 c 128,-1,70
 490 415 490 415 490 358 c 0,38,39
EndSplineSet
EndChar

StartChar: igrave
Encoding: 236 236 176
Width: 271
Flags: W
LayerCount: 2
Fore
SplineSet
33 0 m 1,0,1
 48 89 48 89 59 151.5 c 128,-1,2
 70 214 70 214 77 255.5 c 128,-1,3
 84 297 84 297 88 321.5 c 128,-1,4
 92 346 92 346 94 359 c 128,-1,5
 96 372 96 372 96.5 377 c 128,-1,6
 97 382 97 382 97 385 c 0,7,8
 97 411 97 411 84.5 425.5 c 128,-1,9
 72 440 72 440 40 440 c 2,10,-1
 30 440 l 1,11,-1
 35 470 l 1,12,-1
 155 470 l 2,13,14
 194 470 194 470 211.5 455.5 c 128,-1,15
 229 441 229 441 229 403 c 0,16,17
 229 399 229 399 228.5 392.5 c 128,-1,18
 228 386 228 386 226 372 c 128,-1,19
 224 358 224 358 219.5 332 c 128,-1,20
 215 306 215 306 208 263 c 128,-1,21
 201 220 201 220 190 155.5 c 128,-1,22
 179 91 179 91 163 0 c 1,23,-1
 33 0 l 1,0,1
81 665 m 1,24,-1
 200 665 l 1,25,-1
 217 525 l 1,26,-1
 162 525 l 1,27,-1
 81 665 l 1,24,-1
EndSplineSet
EndChar

StartChar: iacute
Encoding: 237 237 177
Width: 271
Flags: W
LayerCount: 2
Fore
SplineSet
196 525 m 1,0,-1
 141 525 l 1,1,-1
 208 665 l 1,2,-1
 327 665 l 1,3,-1
 196 525 l 1,0,-1
33 0 m 1,4,5
 48 89 48 89 59 151.5 c 128,-1,6
 70 214 70 214 77 255.5 c 128,-1,7
 84 297 84 297 88 321.5 c 128,-1,8
 92 346 92 346 94 359 c 128,-1,9
 96 372 96 372 96.5 377 c 128,-1,10
 97 382 97 382 97 385 c 0,11,12
 97 411 97 411 84.5 425.5 c 128,-1,13
 72 440 72 440 40 440 c 2,14,-1
 30 440 l 1,15,-1
 35 470 l 1,16,-1
 155 470 l 2,17,18
 194 470 194 470 211.5 455.5 c 128,-1,19
 229 441 229 441 229 403 c 0,20,21
 229 399 229 399 228.5 392.5 c 128,-1,22
 228 386 228 386 226 372 c 128,-1,23
 224 358 224 358 219.5 332 c 128,-1,24
 215 306 215 306 208 263 c 128,-1,25
 201 220 201 220 190 155.5 c 128,-1,26
 179 91 179 91 163 0 c 1,27,-1
 33 0 l 1,4,5
EndSplineSet
EndChar

StartChar: icircumflex
Encoding: 238 238 178
Width: 271
Flags: W
LayerCount: 2
Fore
SplineSet
195 611 m 1,0,-1
 96 531 l 1,1,-1
 36 531 l 1,2,-1
 138 656 l 1,3,-1
 268 656 l 1,4,-1
 326 531 l 1,5,-1
 266 531 l 1,6,-1
 195 611 l 1,0,-1
33 0 m 1,7,8
 48 89 48 89 59 151.5 c 128,-1,9
 70 214 70 214 77 255.5 c 128,-1,10
 84 297 84 297 88 321.5 c 128,-1,11
 92 346 92 346 94 359 c 128,-1,12
 96 372 96 372 96.5 377 c 128,-1,13
 97 382 97 382 97 385 c 0,14,15
 97 411 97 411 84.5 425.5 c 128,-1,16
 72 440 72 440 40 440 c 2,17,-1
 30 440 l 1,18,-1
 35 470 l 1,19,-1
 155 470 l 2,20,21
 194 470 194 470 211.5 455.5 c 128,-1,22
 229 441 229 441 229 403 c 0,23,24
 229 399 229 399 228.5 392.5 c 128,-1,25
 228 386 228 386 226 372 c 128,-1,26
 224 358 224 358 219.5 332 c 128,-1,27
 215 306 215 306 208 263 c 128,-1,28
 201 220 201 220 190 155.5 c 128,-1,29
 179 91 179 91 163 0 c 1,30,-1
 33 0 l 1,7,8
EndSplineSet
EndChar

StartChar: idieresis
Encoding: 239 239 179
Width: 271
Flags: W
LayerCount: 2
Fore
SplineSet
178 606 m 0,0,1
 178 579 178 579 160.5 556.5 c 128,-1,2
 143 534 143 534 112 534 c 0,3,4
 80 534 80 534 64.5 551.5 c 128,-1,5
 49 569 49 569 49 594 c 0,6,7
 49 621 49 621 66.5 643.5 c 128,-1,8
 84 666 84 666 115 666 c 0,9,10
 147 666 147 666 162.5 648.5 c 128,-1,11
 178 631 178 631 178 606 c 0,0,1
363 606 m 0,12,13
 363 579 363 579 345.5 556.5 c 128,-1,14
 328 534 328 534 297 534 c 0,15,16
 265 534 265 534 249.5 551.5 c 128,-1,17
 234 569 234 569 234 594 c 0,18,19
 234 621 234 621 251.5 643.5 c 128,-1,20
 269 666 269 666 300 666 c 0,21,22
 332 666 332 666 347.5 648.5 c 128,-1,23
 363 631 363 631 363 606 c 0,12,13
33 0 m 1,24,25
 48 89 48 89 59 151.5 c 128,-1,26
 70 214 70 214 77 255.5 c 128,-1,27
 84 297 84 297 88 321.5 c 128,-1,28
 92 346 92 346 94 359 c 128,-1,29
 96 372 96 372 96.5 377 c 128,-1,30
 97 382 97 382 97 385 c 0,31,32
 97 411 97 411 84.5 425.5 c 128,-1,33
 72 440 72 440 40 440 c 2,34,-1
 30 440 l 1,35,-1
 35 470 l 1,36,-1
 155 470 l 2,37,38
 194 470 194 470 211.5 455.5 c 128,-1,39
 229 441 229 441 229 403 c 0,40,41
 229 399 229 399 228.5 392.5 c 128,-1,42
 228 386 228 386 226 372 c 128,-1,43
 224 358 224 358 219.5 332 c 128,-1,44
 215 306 215 306 208 263 c 128,-1,45
 201 220 201 220 190 155.5 c 128,-1,46
 179 91 179 91 163 0 c 1,47,-1
 33 0 l 1,24,25
EndSplineSet
EndChar

StartChar: ntilde
Encoding: 241 241 180
Width: 577
Flags: W
LayerCount: 2
Fore
SplineSet
224 544 m 1,0,1
 235 604 235 604 257.5 624 c 128,-1,2
 280 644 280 644 310 644 c 0,3,4
 327 644 327 644 338.5 637.5 c 128,-1,5
 350 631 350 631 359 623.5 c 128,-1,6
 368 616 368 616 376.5 610 c 128,-1,7
 385 604 385 604 395 604 c 0,8,9
 412 604 412 604 423.5 616.5 c 128,-1,10
 435 629 435 629 437 644 c 1,11,-1
 477 644 l 1,12,13
 466 584 466 584 444 564 c 128,-1,14
 422 544 422 544 392 544 c 0,15,16
 375 544 375 544 363.5 550 c 128,-1,17
 352 556 352 556 342.5 563.5 c 128,-1,18
 333 571 333 571 324.5 577.5 c 128,-1,19
 316 584 316 584 306 584 c 0,20,21
 289 584 289 584 278 571.5 c 128,-1,22
 267 559 267 559 264 544 c 1,23,-1
 224 544 l 1,0,1
322 430 m 0,24,25
 290 430 290 430 265 421 c 128,-1,26
 240 412 240 412 225 399 c 1,27,-1
 225 394 l 2,28,29
 225 392 225 392 225.5 389 c 128,-1,30
 226 386 226 386 226 381 c 0,31,32
 226 379 226 379 225.5 375 c 128,-1,33
 225 371 225 371 223.5 358.5 c 128,-1,34
 222 346 222 346 218 322 c 128,-1,35
 214 298 214 298 207 256.5 c 128,-1,36
 200 215 200 215 189 152.5 c 128,-1,37
 178 90 178 90 162 0 c 1,38,-1
 32 0 l 1,39,40
 48 89 48 89 58.5 151.5 c 128,-1,41
 69 214 69 214 76 256 c 128,-1,42
 83 298 83 298 87 322 c 128,-1,43
 91 346 91 346 93 359.5 c 128,-1,44
 95 373 95 373 95.5 378 c 128,-1,45
 96 383 96 383 96 386 c 0,46,47
 96 412 96 412 84 426 c 128,-1,48
 72 440 72 440 40 440 c 2,49,-1
 30 440 l 1,50,-1
 35 470 l 1,51,-1
 134 470 l 2,52,53
 168 470 168 470 186 461.5 c 128,-1,54
 204 453 204 453 212 433 c 1,55,56
 222 441 222 441 236 449.5 c 128,-1,57
 250 458 250 458 268.5 464.5 c 128,-1,58
 287 471 287 471 311 475.5 c 128,-1,59
 335 480 335 480 366 480 c 0,60,61
 447 480 447 480 488 448.5 c 128,-1,62
 529 417 529 417 529 347 c 0,63,64
 529 343 529 343 528.5 337.5 c 128,-1,65
 528 332 528 332 526.5 320 c 128,-1,66
 525 308 525 308 521.5 286 c 128,-1,67
 518 264 518 264 511.5 226.5 c 128,-1,68
 505 189 505 189 495.5 134 c 128,-1,69
 486 79 486 79 472 0 c 1,70,-1
 342 0 l 1,71,72
 356 78 356 78 365.5 133.5 c 128,-1,73
 375 189 375 189 381 226 c 128,-1,74
 387 263 387 263 390.5 284.5 c 128,-1,75
 394 306 394 306 395.5 318 c 128,-1,76
 397 330 397 330 397.5 335 c 128,-1,77
 398 340 398 340 398 343 c 0,78,79
 398 391 398 391 377 410.5 c 128,-1,80
 356 430 356 430 322 430 c 0,24,25
EndSplineSet
EndChar

StartChar: ograve
Encoding: 242 242 181
Width: 553
Flags: W
LayerCount: 2
Fore
SplineSet
190 665 m 1,0,-1
 309 665 l 1,1,-1
 326 525 l 1,2,-1
 271 525 l 1,3,-1
 190 665 l 1,0,-1
234 35 m 0,4,5
 275 35 275 35 303 66 c 128,-1,6
 331 97 331 97 348.5 140.5 c 128,-1,7
 366 184 366 184 373.5 232 c 128,-1,8
 381 280 381 280 381 313 c 0,9,10
 381 369 381 369 362.5 402 c 128,-1,11
 344 435 344 435 304 435 c 0,12,13
 263 435 263 435 235 404 c 128,-1,14
 207 373 207 373 189.5 329.5 c 128,-1,15
 172 286 172 286 164.5 238 c 128,-1,16
 157 190 157 190 157 157 c 0,17,18
 157 101 157 101 175.5 68 c 128,-1,19
 194 35 194 35 234 35 c 0,4,5
24 184 m 0,20,21
 24 240 24 240 45.5 293.5 c 128,-1,22
 67 347 67 347 105.5 388.5 c 128,-1,23
 144 430 144 430 196.5 455 c 128,-1,24
 249 480 249 480 312 480 c 0,25,26
 361 480 361 480 399 465.5 c 128,-1,27
 437 451 437 451 462.5 425 c 128,-1,28
 488 399 488 399 501 363.5 c 128,-1,29
 514 328 514 328 514 286 c 0,30,31
 514 230 514 230 492.5 176.5 c 128,-1,32
 471 123 471 123 432.5 81.5 c 128,-1,33
 394 40 394 40 341.5 15 c 128,-1,34
 289 -10 289 -10 226 -10 c 0,35,36
 177 -10 177 -10 139 4.5 c 128,-1,37
 101 19 101 19 75.5 45 c 128,-1,38
 50 71 50 71 37 106.5 c 128,-1,39
 24 142 24 142 24 184 c 0,20,21
EndSplineSet
EndChar

StartChar: oacute
Encoding: 243 243 182
Width: 553
Flags: W
LayerCount: 2
Fore
SplineSet
332 525 m 1,0,-1
 277 525 l 1,1,-1
 344 665 l 1,2,-1
 463 665 l 1,3,-1
 332 525 l 1,0,-1
234 35 m 0,4,5
 275 35 275 35 303 66 c 128,-1,6
 331 97 331 97 348.5 140.5 c 128,-1,7
 366 184 366 184 373.5 232 c 128,-1,8
 381 280 381 280 381 313 c 0,9,10
 381 369 381 369 362.5 402 c 128,-1,11
 344 435 344 435 304 435 c 0,12,13
 263 435 263 435 235 404 c 128,-1,14
 207 373 207 373 189.5 329.5 c 128,-1,15
 172 286 172 286 164.5 238 c 128,-1,16
 157 190 157 190 157 157 c 0,17,18
 157 101 157 101 175.5 68 c 128,-1,19
 194 35 194 35 234 35 c 0,4,5
24 184 m 0,20,21
 24 240 24 240 45.5 293.5 c 128,-1,22
 67 347 67 347 105.5 388.5 c 128,-1,23
 144 430 144 430 196.5 455 c 128,-1,24
 249 480 249 480 312 480 c 0,25,26
 361 480 361 480 399 465.5 c 128,-1,27
 437 451 437 451 462.5 425 c 128,-1,28
 488 399 488 399 501 363.5 c 128,-1,29
 514 328 514 328 514 286 c 0,30,31
 514 230 514 230 492.5 176.5 c 128,-1,32
 471 123 471 123 432.5 81.5 c 128,-1,33
 394 40 394 40 341.5 15 c 128,-1,34
 289 -10 289 -10 226 -10 c 0,35,36
 177 -10 177 -10 139 4.5 c 128,-1,37
 101 19 101 19 75.5 45 c 128,-1,38
 50 71 50 71 37 106.5 c 128,-1,39
 24 142 24 142 24 184 c 0,20,21
EndSplineSet
EndChar

StartChar: ocircumflex
Encoding: 244 244 183
Width: 553
Flags: W
LayerCount: 2
Fore
SplineSet
334 605 m 1,0,-1
 235 525 l 1,1,-1
 175 525 l 1,2,-1
 277 650 l 1,3,-1
 407 650 l 1,4,-1
 465 525 l 1,5,-1
 405 525 l 1,6,-1
 334 605 l 1,0,-1
234 35 m 0,7,8
 275 35 275 35 303 66 c 128,-1,9
 331 97 331 97 348.5 140.5 c 128,-1,10
 366 184 366 184 373.5 232 c 128,-1,11
 381 280 381 280 381 313 c 0,12,13
 381 369 381 369 362.5 402 c 128,-1,14
 344 435 344 435 304 435 c 0,15,16
 263 435 263 435 235 404 c 128,-1,17
 207 373 207 373 189.5 329.5 c 128,-1,18
 172 286 172 286 164.5 238 c 128,-1,19
 157 190 157 190 157 157 c 0,20,21
 157 101 157 101 175.5 68 c 128,-1,22
 194 35 194 35 234 35 c 0,7,8
24 184 m 0,23,24
 24 240 24 240 45.5 293.5 c 128,-1,25
 67 347 67 347 105.5 388.5 c 128,-1,26
 144 430 144 430 196.5 455 c 128,-1,27
 249 480 249 480 312 480 c 0,28,29
 361 480 361 480 399 465.5 c 128,-1,30
 437 451 437 451 462.5 425 c 128,-1,31
 488 399 488 399 501 363.5 c 128,-1,32
 514 328 514 328 514 286 c 0,33,34
 514 230 514 230 492.5 176.5 c 128,-1,35
 471 123 471 123 432.5 81.5 c 128,-1,36
 394 40 394 40 341.5 15 c 128,-1,37
 289 -10 289 -10 226 -10 c 0,38,39
 177 -10 177 -10 139 4.5 c 128,-1,40
 101 19 101 19 75.5 45 c 128,-1,41
 50 71 50 71 37 106.5 c 128,-1,42
 24 142 24 142 24 184 c 0,23,24
EndSplineSet
EndChar

StartChar: otilde
Encoding: 245 245 184
Width: 553
Flags: W
LayerCount: 2
Fore
SplineSet
204 535 m 1,0,1
 215 595 215 595 237 615 c 128,-1,2
 259 635 259 635 289 635 c 0,3,4
 306 635 306 635 317.5 628.5 c 128,-1,5
 329 622 329 622 338 614.5 c 128,-1,6
 347 607 347 607 355.5 601 c 128,-1,7
 364 595 364 595 374 595 c 0,8,9
 391 595 391 595 402.5 607.5 c 128,-1,10
 414 620 414 620 416 635 c 1,11,-1
 456 635 l 1,12,13
 445 575 445 575 423.5 555 c 128,-1,14
 402 535 402 535 372 535 c 0,15,16
 355 535 355 535 343.5 541 c 128,-1,17
 332 547 332 547 322.5 554.5 c 128,-1,18
 313 562 313 562 304.5 568.5 c 128,-1,19
 296 575 296 575 286 575 c 0,20,21
 269 575 269 575 257.5 562.5 c 128,-1,22
 246 550 246 550 244 535 c 1,23,-1
 204 535 l 1,0,1
234 35 m 0,24,25
 275 35 275 35 303 66 c 128,-1,26
 331 97 331 97 348.5 140.5 c 128,-1,27
 366 184 366 184 373.5 232 c 128,-1,28
 381 280 381 280 381 313 c 0,29,30
 381 369 381 369 362.5 402 c 128,-1,31
 344 435 344 435 304 435 c 0,32,33
 263 435 263 435 235 404 c 128,-1,34
 207 373 207 373 189.5 329.5 c 128,-1,35
 172 286 172 286 164.5 238 c 128,-1,36
 157 190 157 190 157 157 c 0,37,38
 157 101 157 101 175.5 68 c 128,-1,39
 194 35 194 35 234 35 c 0,24,25
24 184 m 0,40,41
 24 240 24 240 45.5 293.5 c 128,-1,42
 67 347 67 347 105.5 388.5 c 128,-1,43
 144 430 144 430 196.5 455 c 128,-1,44
 249 480 249 480 312 480 c 0,45,46
 361 480 361 480 399 465.5 c 128,-1,47
 437 451 437 451 462.5 425 c 128,-1,48
 488 399 488 399 501 363.5 c 128,-1,49
 514 328 514 328 514 286 c 0,50,51
 514 230 514 230 492.5 176.5 c 128,-1,52
 471 123 471 123 432.5 81.5 c 128,-1,53
 394 40 394 40 341.5 15 c 128,-1,54
 289 -10 289 -10 226 -10 c 0,55,56
 177 -10 177 -10 139 4.5 c 128,-1,57
 101 19 101 19 75.5 45 c 128,-1,58
 50 71 50 71 37 106.5 c 128,-1,59
 24 142 24 142 24 184 c 0,40,41
EndSplineSet
EndChar

StartChar: oslash
Encoding: 248 248 185
Width: 553
Flags: W
LayerCount: 2
Fore
SplineSet
24 184 m 0,0,1
 24 240 24 240 45.5 293.5 c 128,-1,2
 67 347 67 347 105.5 388.5 c 128,-1,3
 144 430 144 430 196.5 455 c 128,-1,4
 249 480 249 480 312 480 c 0,5,6
 345 480 345 480 373 473 c 128,-1,7
 401 466 401 466 424 454 c 1,8,-1
 438 470 l 1,9,-1
 530 470 l 1,10,-1
 475 410 l 1,11,12
 514 359 514 359 514 286 c 0,13,14
 514 230 514 230 492.5 176.5 c 128,-1,15
 471 123 471 123 432.5 81.5 c 128,-1,16
 394 40 394 40 341.5 15 c 128,-1,17
 289 -10 289 -10 226 -10 c 0,18,19
 193 -10 193 -10 165 -3 c 128,-1,20
 137 4 137 4 114 16 c 1,21,-1
 100 0 l 1,22,-1
 8 0 l 1,23,-1
 62 60 l 1,24,25
 24 110 24 110 24 184 c 0,0,1
234 35 m 0,26,27
 274 35 274 35 302 65 c 128,-1,28
 330 95 330 95 347 138 c 128,-1,29
 364 181 364 181 372 227.5 c 128,-1,30
 380 274 380 274 381 307 c 1,31,-1
 170 77 l 1,32,33
 179 57 179 57 195 46 c 128,-1,34
 211 35 211 35 234 35 c 0,26,27
304 435 m 0,35,36
 263 435 263 435 235.5 404.5 c 128,-1,37
 208 374 208 374 190.5 331 c 128,-1,38
 173 288 173 288 165 241 c 128,-1,39
 157 194 157 194 156 162 c 1,40,-1
 367 392 l 1,41,42
 357 412 357 412 342 423.5 c 128,-1,43
 327 435 327 435 304 435 c 0,35,36
EndSplineSet
EndChar

